<?xml version="1.0" standalone="no"?>
<!DOCTYPE svg PUBLIC "-//W3C//DTD SVG 20010904//EN"
 "http://www.w3.org/TR/2001/REC-SVG-20010904/DTD/svg10.dtd">
<svg version="1.0" xmlns="http://www.w3.org/2000/svg"
 width="413.000000pt" height="413.000000pt" viewBox="0 0 413.000000 413.000000"
 preserveAspectRatio="xMidYMid meet">
<metadata>
Created by potrace 1.11, written by Peter Selinger 2001-2013
</metadata>
<g transform="translate(0.000000,413.000000) scale(0.100000,-0.100000)"
fill="#000000" stroke="none">
<path d="M1909 4126 c-2 -2 -33 -6 -69 -10 -653 -62 -1263 -471 -1589 -1065
-28 -51 -51 -95 -51 -97 0 -2 -9 -23 -20 -47 -72 -157 -133 -365 -156 -534 -3
-26 -8 -57 -11 -68 -9 -36 -11 -389 -2 -450 4 -33 11 -85 15 -115 3 -30 8 -58
10 -61 2 -3 6 -21 9 -40 3 -19 17 -74 31 -124 105 -381 335 -746 631 -1002 72
-63 192 -153 220 -166 20 -9 111 79 1062 1031 572 572 1049 1055 1060 1073 57
93 -7 240 -120 273 -49 15 -77 13 -123 -9 -18 -9 -270 -257 -562 -552 -834
-846 -814 -827 -888 -863 -144 -71 -292 -46 -419 70 -100 92 -149 207 -143
339 7 153 -63 74 1077 1216 561 561 1019 1023 1019 1027 0 9 -150 65 -266 99
-172 49 -319 70 -525 74 -103 2 -188 2 -190 1z"/>
<path d="M2094 2837 c-551 -551 -1009 -1017 -1018 -1035 -39 -77 -9 -190 66
-243 42 -30 123 -37 169 -14 19 9 340 322 714 695 481 480 693 685 725 701
166 82 353 48 492 -92 106 -105 142 -230 103 -361 -11 -40 -35 -93 -53 -118
-18 -25 -506 -519 -1084 -1097 -630 -631 -1048 -1056 -1043 -1062 15 -13 173
-78 258 -106 222 -72 387 -98 627 -99 188 -1 284 6 395 30 39 8 79 17 91 19
57 12 228 66 297 94 404 162 756 458 986 828 143 231 260 550 287 783 3 25 9
72 14 105 8 64 5 397 -5 455 -29 166 -40 218 -66 310 -135 472 -437 885 -843
1152 -48 32 -93 58 -100 58 -6 0 -462 -451 -1012 -1003z"/>
</g>
</svg>
