<?xml version="1.0" encoding="UTF-8" standalone="no"?>
<!-- Created with Inkscape (http://www.inkscape.org/) -->

<svg
   xmlns:dc="http://purl.org/dc/elements/1.1/"
   xmlns:cc="http://creativecommons.org/ns#"
   xmlns:rdf="http://www.w3.org/1999/02/22-rdf-syntax-ns#"
   xmlns:svg="http://www.w3.org/2000/svg"
   xmlns="http://www.w3.org/2000/svg"
   xmlns:sodipodi="http://sodipodi.sourceforge.net/DTD/sodipodi-0.dtd"
   xmlns:inkscape="http://www.inkscape.org/namespaces/inkscape"
   width="210mm"
   height="50mm"
   viewBox="0 0 210 50"
   version="1.1"
   id="svg8"
   inkscape:version="0.92.3 (2405546, 2018-03-11)"
   sodipodi:docname="SymbIoT_logo_noed.svg">
  <defs
     id="defs2" />
  <sodipodi:namedview
     id="base"
     pagecolor="#ffffff"
     bordercolor="#666666"
     borderopacity="1.0"
     inkscape:pageopacity="0.0"
     inkscape:pageshadow="2"
     inkscape:zoom="0.7071068"
     inkscape:cx="480.11531"
     inkscape:cy="-108.71357"
     inkscape:document-units="mm"
     inkscape:current-layer="text817"
     showgrid="false"
     inkscape:window-width="1920"
     inkscape:window-height="990"
     inkscape:window-x="0"
     inkscape:window-y="0"
     inkscape:window-maximized="1" />
  <metadata
     id="metadata5">
    <rdf:RDF>
      <cc:Work
         rdf:about="">
        <dc:format>image/svg+xml</dc:format>
        <dc:type
           rdf:resource="http://purl.org/dc/dcmitype/StillImage" />
        <dc:title />
      </cc:Work>
    </rdf:RDF>
  </metadata>
  <g
     inkscape:label="Capa 1"
     inkscape:groupmode="layer"
     id="layer1"
     transform="translate(0,-247)">
    <g
       style="font-size:34.35300827px;line-height:6.61458302px;font-family:Montserrat;-inkscape-font-specification:Montserrat;letter-spacing:0px;word-spacing:0px;stroke-width:0.26458332;fill:#ffffff"
       id="text817">
      <path
         style="font-size:34.35300827px;line-height:6.61458302px;font-family:Montserrat;-inkscape-font-specification:Montserrat;letter-spacing:0px;word-spacing:0px;fill:#0083a9;fill-opacity:1;fill-rule:nonzero;stroke:none;stroke-width:0.25054276"
         d="m 71.954824,282.06849 c -1.83058,-0.39129 -4.22324,-1.49598 -4.5454,-2.09806 -0.38897,-0.72667 -0.35913,-4.03328 0.0387,-4.27897 0.1773,-0.10951 1.37822,0.29634 2.66882,0.90222 3.83391,1.799 7.5016,1.55552 8.82515,-0.58588 1.47274,-2.38276 0.44559,-3.84767 -4.35438,-6.20902 -5.59414,-2.75227 -6.85499,-4.32672 -6.86167,-8.56879 -0.002,-2.07086 0.10229,-2.54858 0.85187,-3.85537 1.61967,-2.82376 4.75561,-4.15743 9.18209,-3.90514 2.52248,0.14388 5.15841,0.97459 5.67577,1.78876 0.34755,0.54683 0.27944,3.98979 -0.0834,4.21405 -0.17594,0.1088 -1.20639,-0.20508 -2.28989,-0.69782 -1.08363,-0.49251 -2.50195,-0.9654 -3.152,-1.051 -2.64421,-0.34788 -4.57985,0.93919 -4.57985,3.04526 0,1.53431 1.22642,2.59933 5.15061,4.47245 5.49559,2.62331 6.8174,4.39897 6.62572,8.89977 -0.0938,2.19157 -0.21391,2.63759 -1.07513,3.9793 -1.037,1.61536 -2.61533,2.83009 -4.59898,3.53888 -1.4919,0.53377 -5.79451,0.76926 -7.47793,0.40936 v 0 z"
         id="path4094-3"
         inkscape:connector-curvature="0"
         inkscape:export-xdpi="43.235409"
         inkscape:export-ydpi="43.235409" />
      <path
         style="font-size:34.35300827px;line-height:6.61458302px;font-family:Montserrat;-inkscape-font-specification:Montserrat;letter-spacing:0px;word-spacing:0px;fill:#0083a9;fill-opacity:1;fill-rule:nonzero;stroke:none;stroke-width:0.25054276"
         d="m 90.763354,281.81345 -0.73859,-0.22226 -0.1478,-13.57857 c -0.0815,-7.46819 -0.046,-13.70725 0.0796,-13.86461 0.34196,-0.43105 4.17238,-0.56994 4.90494,-0.17788 0.62859,0.33643 0.62972,0.36098 0.62972,13.9009 0,7.88313 -0.1132,13.63366 -0.27042,13.73083 -0.47072,0.29097 -3.68779,0.44362 -4.45708,0.21152 z"
         id="path4096-6"
         inkscape:connector-curvature="0"
         inkscape:export-xdpi="43.235409"
         inkscape:export-ydpi="43.235409" />
      <path
         style="font-size:34.35300827px;line-height:6.61458302px;font-family:Montserrat;-inkscape-font-specification:Montserrat;letter-spacing:0px;word-spacing:0px;fill:#0083a9;fill-opacity:1;fill-rule:nonzero;stroke:none;stroke-width:0.25054276"
         d="m 110.62165,281.9055 c -5.45699,-1.18488 -8.84838,-4.52256 -9.96902,-9.81097 -1.886296,-8.90156 2.20798,-16.41812 9.93493,-18.23956 4.97954,-1.17373 12.43705,0.16463 13.28059,2.38351 0.40054,1.05329 0.35211,3.16373 -0.0859,3.73748 -0.3366,0.44124 -0.52638,0.40792 -2.14216,-0.37669 -6.22782,-3.02339 -12.02517,-1.82598 -14.48864,2.99323 -1.05118,2.05618 -1.45329,4.86327 -1.03811,7.24717 0.90171,5.17823 4.32543,8.06742 9.15102,7.72215 3.23786,-0.23191 3.27328,-0.27593 3.27328,-4.08004 v -3.23987 h -2.74794 c -1.74327,0 -2.87743,-0.12955 -3.1024,-0.35467 -0.371,-0.37099 -0.48405,-2.5101 -0.1753,-3.31472 0.15473,-0.40263 0.9316,-0.46742 5.62138,-0.46742 h 5.44191 l 0.28814,0.75796 c 0.36609,0.96302 0.37945,11.96421 0.0157,12.92098 -0.34569,0.90923 -1.92257,1.55023 -5.23639,2.12766 -3.07253,0.53576 -5.53247,0.53369 -8.02116,-0.0107 v 0 z"
         id="path4098-7"
         inkscape:connector-curvature="0"
         inkscape:export-xdpi="43.235409"
         inkscape:export-ydpi="43.235409" />
      <path
         style="font-size:34.35300827px;line-height:6.61458302px;font-family:Montserrat;-inkscape-font-specification:Montserrat;letter-spacing:0px;word-spacing:0px;fill:#0083a9;fill-opacity:1;fill-rule:nonzero;stroke:none;stroke-width:0.25054276"
         d="m 130.72594,281.75598 -0.66481,-0.26736 v -13.25973 c 0,-12.47102 0.033,-13.28925 0.54035,-13.74907 0.43528,-0.39383 1.18532,-0.489 3.85573,-0.489 3.48571,0 4.78453,0.34824 5.19491,1.39254 0.11409,0.29025 1.60805,4.38394 3.31987,9.09671 1.71174,4.71271 3.21141,8.75139 3.3323,8.97457 0.15819,0.29169 0.30507,0.16714 0.52257,-0.44317 3.24334,-9.10152 6.72255,-17.79288 7.34823,-18.35571 0.67747,-0.60985 1.02596,-0.66494 4.2087,-0.66494 2.30499,0 3.58929,0.11918 3.82476,0.35467 0.26538,0.26557 0.35446,3.74836 0.35446,13.85366 v 13.49881 l -1.28249,0.19255 c -0.70527,0.10557 -1.83546,0.10379 -2.51142,0 l -1.22907,-0.19649 v -11.69236 c 0,-6.97006 -0.10779,-11.57919 -0.26695,-11.41187 -0.14663,0.15461 -2.02828,5.26665 -4.18125,11.36094 -2.15307,6.09408 -4.09876,11.27967 -4.32381,11.52361 -0.46976,0.50879 -4.61862,0.61874 -5.09146,0.13493 -0.1525,-0.15569 -1.27266,-3.20822 -2.48947,-6.78327 -1.21662,-3.57524 -2.98788,-8.75705 -3.93593,-11.51509 l -1.72378,-5.01477 -0.0774,11.59776 -0.0774,11.59748 -0.75447,0.28704 c -0.92644,0.35252 -2.99518,0.3425 -3.89228,-0.0179 z"
         id="path4100-5"
         inkscape:connector-curvature="0"
         inkscape:export-xdpi="43.235409"
         inkscape:export-ydpi="43.235409" />
      <path
         style="font-size:34.35300827px;line-height:6.61458302px;font-family:Montserrat;-inkscape-font-specification:Montserrat;letter-spacing:0px;word-spacing:0px;fill:#0083a9;fill-opacity:1;fill-rule:nonzero;stroke:none;stroke-width:0.25054276"
         d="m 166.8964,281.72805 c -0.40334,-0.23478 -0.49321,-0.51561 -0.35099,-1.09931 0.17866,-0.73397 7.60918,-22.32394 8.63855,-25.10036 0.25891,-0.69854 0.72999,-1.40857 1.04688,-1.57807 0.59316,-0.31746 6.22876,-0.25482 6.55555,0.073 0.0985,0.0984 1.38664,3.62238 2.86229,7.82998 6.98112,19.90618 6.91466,19.68826 6.09211,19.97995 -0.68488,0.24372 -3.6128,0.24265 -4.47842,0 -0.77466,-0.21796 -0.96343,-0.54537 -1.92067,-3.3303 l -1.06155,-3.0885 -5.21788,-0.0816 -5.218,-0.0805 -1.07493,3.22611 c -0.8655,2.59725 -1.20194,3.2605 -1.7256,3.40091 -1.05124,0.28131 -3.56026,0.1904 -4.14733,-0.15068 z m 16.05056,-10.67357 c -0.01,-0.24587 -3.76969,-11.48022 -3.87511,-11.58562 -0.0708,-0.0702 -1.0109,2.5232 -2.08867,5.76513 l -1.9594,5.89426 h 3.96348 c 2.17981,0 3.96175,-0.0322 3.9597,-0.073 z"
         id="path4102-3"
         inkscape:connector-curvature="0"
         inkscape:export-xdpi="43.235409"
         inkscape:export-ydpi="43.235409" />
      <path
         style="font-size:34.35300827px;line-height:6.61458302px;font-family:Montserrat;-inkscape-font-specification:Montserrat;letter-spacing:0px;word-spacing:0px;fill:#0083a9;fill-opacity:1;fill-rule:nonzero;stroke:none;stroke-width:0.25054276"
         d="m 67.913194,289.8323 c -0.0717,-0.0215 -0.17164,-0.0712 -0.22196,-0.0712 -0.0502,0 -0.0913,-0.0107 -0.0913,-0.038 0,-0.0107 -0.0538,-0.0605 -0.12169,-0.0758 -0.11785,-0.0143 -0.40075,-0.2559 -0.40075,-0.32139 0,-0.0107 -0.0516,-0.10594 -0.11786,-0.19827 -0.0645,-0.087 -0.12576,-0.21367 -0.1355,-0.26914 -0.009,-0.0519 -0.0454,-0.13922 -0.0781,-0.1786 -0.043,-0.0415 -0.0651,-0.6422 -0.0771,-1.99831 l -0.0165,-1.9249 h 0.21238 0.21241 l 0.002,1.65845 c 0.002,1.56709 0.0193,1.84424 0.1457,2.33115 0.0703,0.27379 0.49751,0.67443 0.8134,0.76401 0.29631,0.0823 1.29278,0.0444 1.32368,-0.0251 0.0111,-0.0143 0.0512,-0.0605 0.0908,-0.0605 0.10619,0 0.42499,-0.33248 0.54552,-0.56949 0.0588,-0.1156 0.10751,-0.29167 0.10751,-0.39182 0,-0.10057 0.0233,-0.19577 0.0512,-0.21366 0.0333,-0.0107 0.0512,-0.66276 0.0512,-1.75316 v -1.72069 h 0.2103 0.21016 l -0.0168,1.81461 c -0.0168,1.83364 -0.0521,2.22407 -0.22641,2.41998 -0.0402,0.0358 -0.0724,0.10487 -0.0724,0.13206 0,0.0662 -0.3133,0.43958 -0.37838,0.43958 -0.0322,0 -0.0948,0.0143 -0.13986,0.0673 -0.0457,0.0215 -0.21173,0.12311 -0.36976,0.18252 -0.34931,0.13243 -1.29409,0.14853 -1.51475,0.0107 v 0 z"
         id="path4106-5"
         inkscape:connector-curvature="0"
         inkscape:export-xdpi="43.235409"
         inkscape:export-ydpi="43.235409" />
      <path
         style="font-size:34.35300827px;line-height:6.61458302px;font-family:Montserrat;-inkscape-font-specification:Montserrat;letter-spacing:0px;word-spacing:0px;fill:#0083a9;fill-opacity:1;fill-rule:nonzero;stroke:none;stroke-width:0.25054276"
         d="m 71.517234,287.98351 v -1.83364 l 0.22201,0.0107 c 0.19981,0.0107 0.22024,0.0144 0.20471,0.14029 -0.009,0.0634 -0.002,0.18289 0.0157,0.25411 l 0.0336,0.13493 0.15064,-0.16571 c 0.083,-0.0909 0.17308,-0.16463 0.20028,-0.16463 0.0276,0 0.0623,-0.0179 0.0785,-0.0759 0.0439,-0.11489 0.37664,-0.1854 0.85898,-0.18611 0.47333,0 0.74843,0.0834 0.90559,0.27379 0.0516,0.0605 0.11975,0.14531 0.14842,0.17931 0.13775,0.1632 0.18013,0.56902 0.1968,1.88439 l 0.0168,1.37021 h -0.21062 -0.21055 v -1.3546 c 0,-0.84703 -0.0193,-1.36734 -0.0512,-1.3881 -0.029,-0.0107 -0.0512,-0.0673 -0.0512,-0.12956 0,-0.0472 -0.0358,-0.13243 -0.0785,-0.17609 -0.0437,-0.0214 -0.0788,-0.0955 -0.0791,-0.12061 0,-0.0144 -0.0987,-0.0863 -0.2186,-0.14709 -0.44329,-0.21331 -1.02897,-0.10272 -1.3603,0.25482 -0.30647,0.32998 -0.32254,0.41455 -0.33843,1.78106 l -0.0143,1.25368 -0.20894,0.0107 -0.20912,0.0107 v -1.83403 z"
         id="path4108-6"
         inkscape:connector-curvature="0"
         inkscape:export-xdpi="43.235409"
         inkscape:export-ydpi="43.235409" />
      <path
         style="font-size:34.35300827px;line-height:6.61458302px;font-family:Montserrat;-inkscape-font-specification:Montserrat;letter-spacing:0px;word-spacing:0px;fill:#0083a9;fill-opacity:1;fill-rule:nonzero;stroke:none;stroke-width:0.25054276"
         d="m 76.296514,289.81429 c -0.59594,-0.32783 -0.72453,-0.48416 -0.93261,-1.13414 -0.0908,-0.28166 -0.12179,-1.19104 -0.0428,-1.24069 0.0233,-0.0107 0.072,-0.15496 0.10734,-0.3128 0.0354,-0.15675 0.098,-0.31387 0.1394,-0.34822 0.0418,-0.0179 0.0752,-0.0938 0.0752,-0.13385 0,-0.0215 0.0172,-0.0655 0.0395,-0.0655 0.0211,0 0.12136,-0.0644 0.222,-0.15854 0.28514,-0.24873 0.48425,-0.31029 0.99536,-0.31029 0.43994,0 0.65525,0.0251 0.79501,0.15353 0.20447,0.16463 0.35117,0.30671 0.35117,0.33929 0,0.0551 0.14237,0.18217 0.17659,0.14924 0.0175,-0.0107 0.0326,-0.47668 0.0326,-1.01664 v -0.98432 h 0.20901 0.20894 v 2.53361 2.53248 h -0.18285 -0.18289 v -0.3128 c 0,-0.34824 -0.0967,-0.42776 -0.20493,-0.16678 -0.0518,0.12884 -0.28939,0.29812 -0.74758,0.53702 -0.15432,0.0795 -0.88363,0.0397 -1.05846,-0.0426 z m 1.27479,-0.40339 c 0.39452,-0.2949 0.48927,-0.45124 0.59976,-0.99817 0.0817,-0.40356 0.0817,-0.45678 5e-5,-0.85981 -0.1141,-0.56476 -0.33771,-0.88282 -0.74491,-1.06001 -0.19913,-0.0891 -0.89456,-0.10629 -0.89456,-0.0144 0,0.0179 -0.0414,0.0455 -0.0917,0.0455 -0.20579,0 -0.63989,0.542 -0.63989,0.79946 0,0.0465 -0.024,0.14245 -0.0557,0.20044 -0.0713,0.1342 -0.0767,0.73436 -0.004,0.92129 0.029,0.0766 0.0781,0.23693 0.10923,0.35396 0.0583,0.21581 0.22884,0.4353 0.49711,0.63985 0.12798,0.0938 0.21788,0.11524 0.5958,0.11524 0.40078,0 0.46377,-0.0107 0.63274,-0.13995 z"
         id="path4110-2"
         inkscape:connector-curvature="0"
         inkscape:export-xdpi="43.235409"
         inkscape:export-ydpi="43.235409" />
      <path
         style="font-size:34.35300827px;line-height:6.61458302px;font-family:Montserrat;-inkscape-font-specification:Montserrat;letter-spacing:0px;word-spacing:0px;fill:#0083a9;fill-opacity:1;fill-rule:nonzero;stroke:none;stroke-width:0.25054276"
         d="m 80.370824,289.82205 c -0.31492,-0.16355 -0.57064,-0.38351 -0.68877,-0.59238 -0.0665,-0.11811 -0.12108,-0.23944 -0.12126,-0.27129 0,-0.0143 -0.0385,-0.13242 -0.0841,-0.21867 -0.12823,-0.23979 -0.12437,-1.1725 0.003,-1.5153 0.14527,-0.37912 0.28421,-0.60234 0.51027,-0.81493 0.25364,-0.23907 0.48667,-0.30779 1.04155,-0.30779 0.46591,0 0.73028,0.0587 0.87455,0.20687 0.049,0.0286 0.135,0.12132 0.19388,0.16176 0.0585,0.0251 0.17104,0.20436 0.2492,0.36334 0.0784,0.15784 0.16084,0.32211 0.18367,0.36931 0.0222,0.0215 0.058,0.24874 0.0796,0.45406 l 0.0381,0.37773 h -1.12053 c -0.61637,0 -1.26521,0.0107 -1.44172,0.0179 l -0.32111,0.0144 0.002,0.18897 c 0.002,0.10378 0.0487,0.2831 0.10258,0.39723 0.0548,0.11488 0.10164,0.23907 0.10275,0.2745 0.002,0.0179 0.0211,0.0616 0.0474,0.0616 0.0236,0 0.0698,0.0548 0.10232,0.12849 0.0329,0.0655 0.15773,0.19433 0.27884,0.2745 0.19742,0.13063 0.26417,0.14424 0.64199,0.14065 0.31935,0 0.46106,-0.0144 0.58383,-0.10414 0.19999,-0.12419 0.39025,-0.3511 0.50957,-0.60972 0.0791,-0.17143 0.11341,-0.19577 0.27089,-0.19577 0.12362,0 0.18034,0.0107 0.18034,0.0748 0,0.0927 -0.16832,0.46524 -0.22193,0.48911 -0.0215,0 -0.0396,0.0415 -0.0396,0.092 0,0.0215 -0.0233,0.0719 -0.0512,0.0719 -0.029,0 -0.0512,0.0179 -0.0512,0.0737 0,0.0214 -0.0485,0.0863 -0.10408,0.10701 -0.0571,0.0107 -0.13378,0.0569 -0.16974,0.0927 -0.0364,0.0179 -0.15469,0.10307 -0.26334,0.15317 -0.26027,0.12098 -1.08565,0.1199 -1.31697,0 z m 1.83217,-2.32009 c -0.019,-0.12455 -0.0578,-0.24695 -0.0854,-0.27487 -0.0276,-0.0143 -0.0498,-0.0776 -0.0498,-0.11631 0,-0.0616 -0.0664,-0.15712 -0.28918,-0.40424 -0.17373,-0.18969 -0.43475,-0.29062 -0.7537,-0.29062 -0.61688,0 -0.98724,0.35682 -1.22718,1.18489 l -0.0333,0.1131 h 1.23674 1.2368 l -0.0362,-0.22334 v 0 z"
         id="path4112-9"
         inkscape:connector-curvature="0"
         inkscape:export-xdpi="43.235409"
         inkscape:export-ydpi="43.235409" />
      <path
         style="font-size:34.35300827px;line-height:6.61458302px;font-family:Montserrat;-inkscape-font-specification:Montserrat;letter-spacing:0px;word-spacing:0px;fill:#0083a9;fill-opacity:1;fill-rule:nonzero;stroke:none;stroke-width:0.25054276"
         d="m 83.321874,287.98351 v -1.83014 h 0.18281 0.18271 l 0.002,0.43263 0.002,0.43019 0.12426,-0.20294 c 0.10515,-0.16999 0.28324,-0.35681 0.52629,-0.54675 0.0672,-0.0465 0.5075,-0.16464 0.64903,-0.16464 0.0906,0 0.1074,0.0179 0.1074,0.20902 0,0.20043 -0.003,0.20902 -0.16978,0.20902 -0.32981,0 -0.57145,0.10701 -0.82029,0.36397 -0.37476,0.38388 -0.42017,0.5857 -0.42017,1.86235 v 1.06556 h -0.18282 -0.18281 v -1.8283 z"
         id="path4114-1"
         inkscape:connector-curvature="0"
         inkscape:export-xdpi="43.235409"
         inkscape:export-ydpi="43.235409" />
      <path
         style="font-size:34.35300827px;line-height:6.61458302px;font-family:Montserrat;-inkscape-font-specification:Montserrat;letter-spacing:0px;word-spacing:0px;fill:#0083a9;fill-opacity:1;fill-rule:nonzero;stroke:none;stroke-width:0.25054276"
         d="m 86.403534,291.21424 c -0.22368,-0.0616 -0.57013,-0.2967 -0.64787,-0.4371 -0.0319,-0.0512 -0.0759,-0.11775 -0.0984,-0.13457 -0.0222,-0.0107 -0.0544,-0.11918 -0.0728,-0.22726 l -0.0319,-0.19506 0.17594,0.0107 c 0.11267,0.0107 0.19531,0.0472 0.22949,0.12384 0.1482,0.29241 0.29769,0.43341 0.5455,0.51391 0.28209,0.0909 0.83953,0.11344 0.98418,0.0179 0.0501,-0.0107 0.16628,-0.0776 0.25872,-0.11059 0.0928,-0.0144 0.18375,-0.11346 0.20296,-0.17358 0.019,-0.0616 0.0507,-0.12491 0.0707,-0.13959 0.12165,-0.0844 0.22168,-0.4387 0.2486,-0.87419 0.0354,-0.56684 -0.0236,-0.62206 -0.2982,-0.27415 -0.21538,0.27165 -0.54962,0.41853 -0.95353,0.41853 -0.2953,0 -0.82853,-0.13744 -0.86648,-0.22333 -0.01,-0.0107 -0.0426,-0.0179 -0.0722,-0.0179 -0.0487,0 -0.18321,-0.13349 -0.35088,-0.34536 -0.0261,-0.0143 -0.101,-0.1607 -0.16825,-0.28776 -0.11191,-0.20865 -0.12236,-0.29239 -0.12236,-0.97401 0,-0.52034 0.0186,-0.75842 0.0618,-0.78465 0.034,-0.0107 0.0881,-0.0955 0.11975,-0.16785 0.16685,-0.37536 0.36879,-0.57478 0.76975,-0.75781 0.20915,-0.0938 0.99551,-0.10486 1.1982,-0.0107 0.15654,0.0673 0.54027,0.43596 0.54027,0.51419 0,0.0143 0.0354,0.0251 0.0784,0.0251 0.0596,0 0.0782,-0.0616 0.0782,-0.28704 v -0.28703 h 0.18289 0.18281 l 0.002,1.91917 c 0.002,2.28815 -0.0132,2.37794 -0.45251,2.81285 -0.19348,0.19291 -0.33543,0.28417 -0.50627,0.32748 -0.28024,0.0662 -1.02801,0.0662 -1.28814,0 z m 1.26362,-1.98003 c 0.22107,-0.15962 0.38064,-0.39393 0.49933,-0.73276 0.0778,-0.22296 0.0874,-1.02229 0.0125,-1.06688 -0.0294,-0.0107 -0.0512,-0.0863 -0.0512,-0.16535 0,-0.0655 -0.0486,-0.19255 -0.10447,-0.26485 -0.0572,-0.0644 -0.10443,-0.16463 -0.10443,-0.20257 0,-0.0251 -0.0354,-0.068 -0.0784,-0.068 -0.0435,0 -0.0786,-0.0144 -0.0786,-0.0501 0,-0.0143 -0.0985,-0.0955 -0.21871,-0.15712 -0.23528,-0.11381 -0.84485,-0.14995 -0.90432,-0.0455 -0.0172,0.0179 -0.0718,0.0455 -0.12061,0.0494 -0.10147,0 -0.37561,0.22762 -0.37561,0.30994 0,0.0179 -0.019,0.0494 -0.0431,0.0494 -0.22501,0 -0.37092,1.36244 -0.18825,1.75673 0.13446,0.29026 0.26033,0.44014 0.50853,0.60624 0.19166,0.12634 0.26821,0.14387 0.6238,0.14387 0.36828,0 0.42506,-0.0107 0.6233,-0.15819 v 0 z"
         id="path4116-2"
         inkscape:connector-curvature="0"
         inkscape:export-xdpi="43.235409"
         inkscape:export-ydpi="43.235409" />
      <path
         style="font-size:34.35300827px;line-height:6.61458302px;font-family:Montserrat;-inkscape-font-specification:Montserrat;letter-spacing:0px;word-spacing:0px;fill:#0083a9;fill-opacity:1;fill-rule:nonzero;stroke:none;stroke-width:0.25054276"
         d="m 89.537434,287.98351 v -1.83014 h 0.20894 0.20894 v 0.36362 c 0,0.39884 0.0584,0.50109 0.15468,0.26986 0.034,-0.0816 0.14502,-0.21796 0.24631,-0.30028 0.10128,-0.0823 0.21119,-0.17501 0.24415,-0.20508 0.0672,-0.0597 0.49421,-0.17966 0.65783,-0.17966 0.0907,0 0.1074,0.0179 0.1074,0.20901 0,0.20043 -0.003,0.20902 -0.16982,0.20902 -0.30918,0 -0.53965,0.10092 -0.8071,0.35252 -0.20909,0.19613 -0.27211,0.29419 -0.30124,0.47025 -0.02,0.12132 -0.0579,0.23406 -0.0843,0.25159 -0.0265,0.0107 -0.049,0.51867 -0.049,1.12215 v 1.0952 h -0.20894 -0.20898 v -1.82831 z"
         id="path4118-7"
         inkscape:connector-curvature="0"
         inkscape:export-xdpi="43.235409"
         inkscape:export-ydpi="43.235409" />
      <path
         style="font-size:34.35300827px;line-height:6.61458302px;font-family:Montserrat;-inkscape-font-specification:Montserrat;letter-spacing:0px;word-spacing:0px;fill:#0083a9;fill-opacity:1;fill-rule:nonzero;stroke:none;stroke-width:0.25054276"
         d="m 92.611764,289.81987 c -0.1006,-0.0361 -0.20636,-0.10629 -0.23503,-0.12705 -0.029,-0.0107 -0.11968,-0.087 -0.20206,-0.1521 -0.19971,-0.14997 -0.48638,-0.60689 -0.53118,-0.84457 -0.0197,-0.10558 -0.0567,-0.20472 -0.0826,-0.22083 -0.0602,-0.0179 -0.0602,-0.94834 0,-0.98536 0.0258,-0.0107 0.0616,-0.11344 0.0819,-0.21688 0.0469,-0.24157 0.29273,-0.6392 0.50182,-0.80526 0.0908,-0.0644 0.19169,-0.15569 0.22454,-0.18467 0.16199,-0.14782 0.41107,-0.19148 0.96923,-0.17323 0.49229,0.0107 0.59453,0.0215 0.73048,0.13708 0.0869,0.0587 0.17143,0.1156 0.18793,0.1156 0.0525,0 0.34007,0.31745 0.46494,0.51354 0.22798,0.36219 0.30951,1.14523 0.18124,1.74274 -0.0972,0.45328 -0.42581,0.89277 -0.80981,1.08235 -0.13958,0.0634 -0.29473,0.1453 -0.34458,0.16929 -0.16281,0.0787 -0.93766,0.0286 -1.13675,-0.0444 z m 1.04979,-0.3017 c 0.16277,-0.0144 0.67387,-0.47877 0.67387,-0.59089 0,-0.0143 0.0215,-0.052 0.0491,-0.052 0.19076,0 0.20411,-1.63111 0.0143,-1.77287 -0.0193,-0.0107 -0.12587,-0.14101 -0.23546,-0.27737 -0.11249,-0.13886 -0.26037,-0.26269 -0.33954,-0.28094 -0.0773,-0.0107 -0.17021,-0.052 -0.20683,-0.0844 -0.11109,-0.0852 -0.5957,-0.054 -0.8475,0.0483 -0.89294,0.39429 -1.12199,1.84251 -0.41789,2.6423 0.35642,0.40464 0.6696,0.49251 1.31096,0.36782 z"
         id="path4120-0"
         inkscape:connector-curvature="0"
         inkscape:export-xdpi="43.235409"
         inkscape:export-ydpi="43.235409" />
      <path
         style="font-size:34.35300827px;line-height:6.61458302px;font-family:Montserrat;-inkscape-font-specification:Montserrat;letter-spacing:0px;word-spacing:0px;fill:#0083a9;fill-opacity:1;fill-rule:nonzero;stroke:none;stroke-width:0.25054276"
         d="m 96.476974,289.86836 c 0,-0.0107 -0.0533,-0.0558 -0.12111,-0.0708 -0.18661,-0.0362 -0.49475,-0.37791 -0.55525,-0.59522 -0.0319,-0.11346 -0.0526,-0.79364 -0.0532,-1.6188 v -1.42361 h 0.17967 0.1797 l 0.0161,1.39708 c 0.0143,1.24892 0.0268,1.41616 0.11427,1.58084 0.14137,0.26305 0.25436,0.35323 0.5275,0.42385 0.55217,0.13743 1.06029,-0.0605 1.28087,-0.50141 0.0434,-0.087 0.10179,-0.17573 0.13049,-0.19542 0.0322,-0.0107 0.0582,-0.55716 0.0685,-1.37095 l 0.0165,-1.33384 h 0.20568 0.20572 v 1.82813 1.82684 h -0.15677 c -0.15293,0 -0.15669,0 -0.15669,-0.2559 0,-0.14458 -0.024,-0.27486 -0.0552,-0.2949 -0.0311,-0.0107 -0.13349,0.052 -0.22848,0.16785 -0.0952,0.11095 -0.29297,0.26628 -0.44002,0.34501 -0.23184,0.12491 -0.32661,0.14352 -0.71174,0.14352 -0.24437,0 -0.44441,-0.0107 -0.44441,-0.0397 z"
         id="path4122-9"
         inkscape:connector-curvature="0"
         inkscape:export-xdpi="43.235409"
         inkscape:export-ydpi="43.235409" />
      <path
         style="font-size:34.35300827px;line-height:6.61458302px;font-family:Montserrat;-inkscape-font-specification:Montserrat;letter-spacing:0px;word-spacing:0px;fill:#0083a9;fill-opacity:1;fill-rule:nonzero;stroke:none;stroke-width:0.25054276"
         d="m 99.634634,289.74583 c -0.0136,-0.0179 -0.0186,-0.85309 -0.0111,-1.81661 l 0.0136,-1.74851 0.19592,-0.0107 0.195906,-0.0107 v 0.28918 0.28668 l 0.25916,-0.25948 c 0.14269,-0.14245 0.32049,-0.28202 0.39519,-0.31102 0.17752,-0.0627 1.10587,-0.0627 1.14768,0 0.0172,0.0179 0.0681,0.0369 0.11278,0.0369 0.12612,0 0.43294,0.34107 0.46859,0.51834 0.0172,0.087 0.0515,0.16213 0.0781,0.16213 0.0258,0 0.0468,0.6586 0.0468,1.46276 v 1.46336 h -0.17899 -0.17895 l -0.0175,-1.37199 c -0.0186,-1.4347 -0.0336,-1.53463 -0.26989,-1.80201 -0.0567,-0.0605 -0.13288,-0.11811 -0.16842,-0.11811 -0.0358,0 -0.0747,-0.0179 -0.0869,-0.0627 -0.0304,-0.0863 -0.88452,-0.0863 -0.9146,0 -0.0114,0.0179 -0.0547,0.0627 -0.0971,0.0627 -0.11045,0 -0.43244,0.33858 -0.51951,0.54865 -0.0581,0.13923 -0.0754,0.46592 -0.0754,1.4603 v 1.28246 h -0.184506 c -0.10139,0 -0.19573,-0.0143 -0.20958,-0.0627 z"
         id="path4124-3"
         inkscape:connector-curvature="0"
         inkscape:export-xdpi="43.235409"
         inkscape:export-ydpi="43.235409" />
      <path
         style="font-size:34.35300827px;line-height:6.61458302px;font-family:Montserrat;-inkscape-font-specification:Montserrat;letter-spacing:0px;word-spacing:0px;fill:#0083a9;fill-opacity:1;fill-rule:nonzero;stroke:none;stroke-width:0.25054276"
         d="m 104.24939,289.77764 c -0.45948,-0.23049 -0.79088,-0.69239 -0.86012,-1.19845 -0.0172,-0.12777 -0.0512,-0.24766 -0.0774,-0.26234 -0.058,-0.0179 -0.058,-0.63283 0,-0.66891 0.024,-0.0107 0.0593,-0.13492 0.0777,-0.26412 0.0669,-0.48843 0.46391,-1.02419 0.88961,-1.19853 0.26209,-0.10664 1.04765,-0.11309 1.29304,-0.0107 0.19405,0.0805 0.51568,0.35868 0.51568,0.44221 0,0.0179 0.0486,0.0765 0.1044,0.10988 0.10286,0.0483 0.10447,0.0215 0.10447,-0.9651 v -1.01901 h 0.18288 0.18281 v 2.53154 2.53445 h -0.18281 -0.18288 l -0.002,-0.32748 -0.002,-0.32497 -0.18611,0.22083 c -0.10243,0.12275 -0.21828,0.22296 -0.25761,0.22296 -0.0397,0 -0.0902,0.0144 -0.11317,0.0634 -0.0805,0.13206 -0.50365,0.24587 -0.87928,0.23908 -0.26742,0 -0.42871,-0.0215 -0.60912,-0.12992 v 0 z m 1.16991,-0.26305 c 0.078,-0.0107 0.25887,-0.14388 0.40264,-0.28883 0.2069,-0.20937 0.26856,-0.31387 0.29569,-0.49374 0.0186,-0.12384 0.0502,-0.22513 0.0696,-0.22513 0.0358,0 0.0734,-0.27558 0.0734,-0.52352 0,-0.2652 -0.0398,-0.52501 -0.0802,-0.52501 -0.0225,0 -0.0419,-0.0415 -0.0419,-0.11631 0,-0.14352 -0.18063,-0.492 -0.33624,-0.64923 -0.1175,-0.11917 -0.43355,-0.24086 -0.76827,-0.29884 -0.26524,-0.0358 -0.70022,0.13206 -0.91828,0.37744 -0.0943,0.10522 -0.1709,0.22011 -0.17093,0.25303 -2e-5,0.0179 -0.0233,0.0634 -0.0517,0.0805 -0.0593,0.0107 -0.17595,0.60112 -0.17595,0.87885 0,0.27701 0.11622,0.85924 0.17595,0.87771 0.0297,0 0.0516,0.0494 0.0516,0.092 0,0.11237 0.45912,0.5386 0.61884,0.57298 0.0767,0.0107 0.16213,0.0179 0.19076,0.0358 0.0524,0.0107 0.41749,-0.0107 0.6635,-0.0548 v 0 z"
         id="path4126-6"
         inkscape:connector-curvature="0"
         inkscape:export-xdpi="43.235409"
         inkscape:export-ydpi="43.235409" />
      <path
         style="font-size:34.35300827px;line-height:6.61458302px;font-family:Montserrat;-inkscape-font-specification:Montserrat;letter-spacing:0px;word-spacing:0px;fill:#0083a9;fill-opacity:1;fill-rule:nonzero;stroke:none;stroke-width:0.25054276"
         d="m 111.13853,289.85026 c -0.59788,-0.26627 -0.73425,-0.34966 -0.99476,-0.61737 -0.17347,-0.17609 -0.31824,-0.38267 -0.36095,-0.51201 -0.0395,-0.1181 -0.0873,-0.21402 -0.10629,-0.21402 -0.0451,0 -0.15107,-0.40907 -0.21099,-0.81124 -0.0492,-0.32462 -0.0122,-1.10941 0.052,-1.20128 0.0204,-0.0179 0.0525,-0.12348 0.0739,-0.20901 0.17668,-0.76239 0.93204,-1.47787 1.65975,-1.57389 0.13922,-0.0143 0.26584,-0.0483 0.28123,-0.0787 0.0365,-0.0512 0.52951,-0.0512 0.56579,0 0.0151,0.0179 0.12845,0.0529 0.25154,0.0759 0.31366,0.0358 0.76212,0.25947 0.9935,0.47973 0.10776,0.10199 0.19595,0.19934 0.19595,0.21473 0,0.0107 0.0484,0.087 0.10296,0.16212 0.0566,0.0712 0.11858,0.21796 0.13747,0.32211 0.0186,0.10522 0.0571,0.21904 0.0864,0.25626 0.0405,0.0415 -0.003,0.0616 -0.20498,0.0616 h -0.25668 l -0.0617,-0.23085 c -0.0826,-0.30815 -0.51212,-0.74052 -0.87186,-0.87734 -0.86683,-0.33321 -1.92727,0.0795 -2.30969,0.90129 -0.21956,0.46937 -0.27783,0.73633 -0.27783,1.27124 0,0.58398 0.0443,0.77224 0.31914,1.36484 0.1064,0.22869 0.522,0.61966 0.8122,0.76142 0.19345,0.0927 0.36349,0.12742 0.72466,0.14352 0.42382,0.0107 0.50105,0 0.75741,-0.11704 0.15705,-0.0759 0.35817,-0.20041 0.44715,-0.27915 0.16993,-0.14925 0.43901,-0.60632 0.43901,-0.74439 0,-0.0358 0.0208,-0.10522 0.0491,-0.13278 0.0269,-0.0144 0.0556,-0.10772 0.0654,-0.17894 0.0147,-0.1106 0.0497,-0.13315 0.21331,-0.14746 l 0.19599,-0.0107 v 0.21259 c 0,0.12526 -0.024,0.21081 -0.0608,0.21081 -0.0337,0 -0.0495,0.0107 -0.0343,0.0143 0.0143,0.0107 -0.0147,0.14781 -0.0643,0.2967 -0.09,0.26591 -0.54223,0.87 -0.6557,0.87541 -0.0322,0 -0.11827,0.0444 -0.19157,0.10844 -0.0733,0.0559 -0.20633,0.11883 -0.29548,0.13708 -0.0893,0.0107 -0.17469,0.0465 -0.19012,0.0766 -0.0414,0.0616 -1.12077,0.0444 -1.27548,-0.0107 z"
         id="path4128-0"
         inkscape:connector-curvature="0"
         inkscape:export-xdpi="43.235409"
         inkscape:export-ydpi="43.235409" />
      <path
         style="font-size:34.35300827px;line-height:6.61458302px;font-family:Montserrat;-inkscape-font-specification:Montserrat;letter-spacing:0px;word-spacing:0px;fill:#0083a9;fill-opacity:1;fill-rule:nonzero;stroke:none;stroke-width:0.25054276"
         d="m 115.6828,289.86836 c 0,-0.0107 -0.0577,-0.0569 -0.1288,-0.0748 -0.19094,-0.0369 -0.60251,-0.34036 -0.60251,-0.43047 0,-0.0215 -0.0354,-0.0852 -0.0784,-0.10307 -0.0435,-0.0107 -0.0784,-0.0519 -0.0784,-0.0845 0,-0.0144 -0.0311,-0.087 -0.0691,-0.13779 -0.25832,-0.30814 -0.25957,-1.79807 -0.002,-2.09777 0.0396,-0.0358 0.0705,-0.10773 0.0705,-0.13708 0,-0.0179 0.0358,-0.0655 0.0785,-0.0863 0.0436,-0.0107 0.0784,-0.0627 0.0784,-0.11094 0,-0.0286 0.0201,-0.0787 0.0456,-0.0787 0.024,0 0.12304,-0.0634 0.21831,-0.15104 0.23475,-0.20507 0.47233,-0.26663 1.02748,-0.26663 0.48272,0 0.79283,0.0616 0.86617,0.19219 0.0225,0.0214 0.0647,0.0662 0.0936,0.0662 0.0914,0 0.34763,0.29991 0.44428,0.51891 0.051,0.11667 0.11063,0.21295 0.13106,0.21295 0.0204,0 0.0517,0.11703 0.0731,0.26018 0.0197,0.1446 0.0571,0.27451 0.0833,0.29134 0.0601,0.0179 0.062,0.63432 0.002,0.67108 -0.0243,0.0107 -0.0604,0.14352 -0.0798,0.28633 -0.019,0.14279 -0.0508,0.26591 -0.072,0.27521 -0.0204,0 -0.0849,0.11023 -0.14234,0.22404 -0.13538,0.26771 -0.32994,0.49924 -0.41995,0.49924 -0.0392,0 -0.09,0.0143 -0.11288,0.0644 -0.0855,0.13886 -0.5056,0.2448 -0.97063,0.2448 -0.25046,0 -0.4553,-0.0107 -0.4553,-0.0286 z m 1.12549,-0.4265 c 0.33063,-0.20042 0.58412,-0.61723 0.7047,-1.1599 0.14803,-0.66419 -0.25482,-1.55116 -0.81165,-1.78769 -0.25966,-0.1106 -0.72417,-0.11453 -0.96635,-0.0107 -0.22919,0.0955 -0.53835,0.4052 -0.66184,0.65509 -0.11925,0.24122 -0.16223,1.18056 -0.068,1.494 0.12917,0.43009 0.59537,0.89117 0.93919,0.92667 0.31789,0.0179 0.69958,-0.0107 0.86434,-0.11775 v 0 z"
         id="path4130-6"
         inkscape:connector-curvature="0"
         inkscape:export-xdpi="43.235409"
         inkscape:export-ydpi="43.235409" />
      <path
         style="font-size:34.35300827px;line-height:6.61458302px;font-family:Montserrat;-inkscape-font-specification:Montserrat;letter-spacing:0px;word-spacing:0px;fill:#0083a9;fill-opacity:1;fill-rule:nonzero;stroke:none;stroke-width:0.25054276"
         d="m 118.66007,287.98351 v -1.83014 h 0.20887 0.20896 v 0.28882 c 0,0.15926 0.0233,0.28775 0.0513,0.28775 0.0293,0 0.0513,-0.0107 0.0513,-0.0437 0,-0.10165 0.33388,-0.4268 0.51693,-0.5031 0.21907,-0.092 1.01616,-0.092 1.17756,0 0.0947,0.0444 0.28818,0.25447 0.42931,0.44383 0.0527,0.0673 0.0718,0.0644 0.16975,-0.0107 0.0595,-0.0483 0.10916,-0.13027 0.10916,-0.16713 0,-0.0214 0.0218,-0.0655 0.05,-0.0655 0.0272,0 0.13649,-0.0577 0.24226,-0.13099 0.17121,-0.11631 0.24612,-0.12992 0.67895,-0.12992 0.66464,0 0.82377,0.0765 1.05288,0.51552 0.11378,0.21939 0.11746,0.27236 0.11746,1.70921 v 1.48355 h -0.17974 -0.17983 l -0.0168,-1.44945 c -0.0151,-1.27118 -0.0286,-1.46973 -0.11009,-1.61569 -0.16482,-0.29813 -0.64583,-0.44693 -1.06838,-0.3332 -0.2412,0.0616 -0.58647,0.34501 -0.58647,0.47662 0,0.0251 -0.0301,0.10951 -0.065,0.1453 -0.0491,0.0437 -0.0692,0.42449 -0.0816,1.42106 l -0.0164,1.35543 h -0.20575 -0.20582 v -1.41255 c 0,-1.3007 -0.004,-1.42843 -0.10262,-1.61382 -0.2017,-0.39451 -0.82978,-0.53874 -1.23987,-0.28346 -0.21807,0.13708 -0.4333,0.37998 -0.4333,0.48889 0,0.0465 -0.0297,0.10701 -0.0651,0.11775 -0.0497,0.0107 -0.0693,0.34931 -0.0831,1.36322 l -0.0172,1.3399 h -0.20427 -0.20434 v -1.82664 z"
         id="path4134-2"
         inkscape:connector-curvature="0"
         inkscape:export-xdpi="43.235409"
         inkscape:export-ydpi="43.235409" />
      <path
         style="font-size:34.35300827px;line-height:6.61458302px;font-family:Montserrat;-inkscape-font-specification:Montserrat;letter-spacing:0px;word-spacing:0px;fill:#0083a9;fill-opacity:1;fill-rule:nonzero;stroke:none;stroke-width:0.25054276"
         d="m 124.71898,287.98351 v -1.83014 h 0.15672 c 0.14746,0 0.15665,0.0107 0.15665,0.20579 0,0.33642 0.0413,0.38796 0.18472,0.23299 0.0672,-0.0644 0.1302,-0.14817 0.13893,-0.16821 0.004,-0.0107 0.11853,-0.10128 0.2439,-0.18217 0.21768,-0.14137 0.25118,-0.14745 0.74192,-0.13135 l 0.51389,0.0107 0.21138,0.20722 c 0.11621,0.11309 0.21129,0.23371 0.21129,0.26807 0,0.0179 0.035,0.0737 0.0784,0.0898 0.0437,0.0107 0.0783,0.0107 0.0783,-0.0107 0,-0.0748 0.38693,-0.44486 0.53878,-0.51344 0.17648,-0.0795 0.96597,-0.0852 1.16592,-0.0107 0.22089,0.0845 0.51641,0.43256 0.53118,0.62708 0.003,0.0863 0.0358,0.209 0.0636,0.26126 0.0297,0.0529 0.0505,0.66171 0.0505,1.42998 v 1.33648 h -0.20898 -0.20894 v -1.33638 c 0,-1.56161 -0.0382,-1.76776 -0.3579,-1.9647 -0.15042,-0.0881 -0.27056,-0.11704 -0.57107,-0.11847 -0.20941,0 -0.39748,0.0107 -0.4179,0.0408 -0.0201,0.0179 -0.0843,0.0794 -0.14173,0.10988 -0.0573,0.0179 -0.17497,0.15675 -0.26119,0.27772 l -0.15668,0.2219 -0.0164,1.37901 -0.0164,1.38101 h -0.20511 -0.20511 l -0.002,-1.42417 c -0.002,-0.78219 -0.002,-1.44079 0,-1.46294 0.002,-0.0107 -0.0111,-0.0214 -0.0336,-0.0214 -0.0212,0 -0.0704,-0.0634 -0.10917,-0.15783 -0.14906,-0.33606 -0.75557,-0.45557 -1.195,-0.23334 -0.16765,0.0834 -0.37994,0.30814 -0.37994,0.40227 0,0.0143 -0.0354,0.0844 -0.0784,0.12598 -0.0437,0.0214 -0.0784,0.15819 -0.0784,0.25517 0,0.0938 -0.0233,0.19005 -0.0513,0.20866 -0.033,0.0107 -0.0512,0.47017 -0.0512,1.17751 v 1.14685 h -0.15673 -0.15668 v -1.82864 z"
         id="path4136-6"
         inkscape:connector-curvature="0"
         inkscape:export-xdpi="43.235409"
         inkscape:export-ydpi="43.235409" />
      <path
         style="font-size:34.35300827px;line-height:6.61458302px;font-family:Montserrat;-inkscape-font-specification:Montserrat;letter-spacing:0px;word-spacing:0px;fill:#0083a9;fill-opacity:1;fill-rule:nonzero;stroke:none;stroke-width:0.25054276"
         d="m 131.30292,289.80634 c -0.24977,-0.13457 -0.42205,-0.31745 -0.5181,-0.55274 -0.0658,-0.16068 -0.085,-0.48426 -0.0982,-1.64843 l -0.0164,-1.4518 h 0.17942 0.17931 l 0.0175,1.4197 c 0.0136,1.07641 0.0336,1.42457 0.0834,1.43917 0.0358,0.0107 0.0658,0.0605 0.0667,0.11024 0.002,0.15711 0.24344,0.37082 0.47813,0.42471 0.47881,0.11167 0.83903,0.0179 1.0975,-0.23048 0.32519,-0.33393 0.34543,-0.37615 0.41822,-0.8908 0.0773,-0.54164 0.0812,-0.60943 0.0879,-1.47325 l 0.003,-0.79918 h 0.15662 0.15664 v 1.83013 1.82832 h -0.15664 c -0.1549,0 -0.15662,0 -0.15662,-0.28561 0,-0.32389 -0.0567,-0.39859 -0.15955,-0.20686 -0.0758,0.14209 -0.45009,0.4303 -0.6918,0.53388 -0.22629,0.0948 -0.91601,0.0634 -1.13089,-0.0408 v 0 z"
         id="path4138-1"
         inkscape:connector-curvature="0"
         inkscape:export-xdpi="43.235409"
         inkscape:export-ydpi="43.235409" />
      <path
         style="font-size:34.35300827px;line-height:6.61458302px;font-family:Montserrat;-inkscape-font-specification:Montserrat;letter-spacing:0px;word-spacing:0px;fill:#0083a9;fill-opacity:1;fill-rule:nonzero;stroke:none;stroke-width:0.25054276"
         d="m 134.56239,289.74583 c -0.014,-0.0179 -0.019,-0.85309 -0.0107,-1.81661 l 0.0136,-1.74851 0.19294,-0.0107 0.19319,-0.0107 0.0153,0.27701 0.0161,0.27737 0.20887,-0.21509 c 0.33499,-0.3486 0.47738,-0.39763 1.09471,-0.37726 0.4876,0.0107 0.55258,0.0179 0.74944,0.16785 0.13031,0.0863 0.26176,0.24444 0.33277,0.39164 0.11123,0.22906 0.11857,0.31961 0.13879,1.69063 l 0.0212,1.44966 h -0.2153 -0.21531 l -0.002,-1.3168 c -0.002,-1.31223 -0.019,-1.48309 -0.19663,-1.79915 -0.0351,-0.0569 -0.11652,-0.1317 -0.18112,-0.15139 -0.0643,-0.0107 -0.13426,-0.0559 -0.15469,-0.0938 -0.0626,-0.0955 -0.71966,-0.0651 -0.95538,0.0214 -0.23427,0.10952 -0.49583,0.37847 -0.49611,0.51154 0,0.0361 -0.0297,0.092 -0.0649,0.10701 -0.0498,0.0107 -0.069,0.3493 -0.0812,1.36348 l -0.0153,1.342 h -0.18185 c -0.10002,0 -0.19329,-0.0143 -0.20711,-0.0627 z"
         id="path4140-8"
         inkscape:connector-curvature="0"
         inkscape:export-xdpi="43.235409"
         inkscape:export-ydpi="43.235409" />
      <path
         style="font-size:34.35300827px;line-height:6.61458302px;font-family:Montserrat;-inkscape-font-specification:Montserrat;letter-spacing:0px;word-spacing:0px;fill:#0083a9;fill-opacity:1;fill-rule:nonzero;stroke:none;stroke-width:0.25054276"
         d="m 138.45546,289.73208 c -0.002,-0.0215 -0.002,-0.82961 -0.002,-1.74857 0,-0.92083 0,-1.70856 0.002,-1.75033 0.002,-0.0444 0.0517,-0.0806 0.15745,-0.0806 h 0.15668 v 1.83043 1.82813 h -0.15668 c -0.10408,0 -0.15699,-0.0107 -0.15745,-0.0776 z"
         id="path4142-7"
         inkscape:connector-curvature="0"
         inkscape:export-xdpi="43.235409"
         inkscape:export-ydpi="43.235409" />
      <path
         style="font-size:34.35300827px;line-height:6.61458302px;font-family:Montserrat;-inkscape-font-specification:Montserrat;letter-spacing:0px;word-spacing:0px;fill:#0083a9;fill-opacity:1;fill-rule:nonzero;stroke:none;stroke-width:0.25054276"
         d="m 138.45609,285.06107 v -0.31602 h 0.15934 0.15934 l -0.0161,0.30063 c -0.0144,0.28345 -0.0229,0.30135 -0.15944,0.31566 -0.1426,0.0107 -0.1436,0.0107 -0.1436,-0.30027 z"
         id="path4144-9"
         inkscape:connector-curvature="0"
         inkscape:export-xdpi="43.235409"
         inkscape:export-ydpi="43.235409" />
      <path
         style="font-size:34.35300827px;line-height:6.61458302px;font-family:Montserrat;-inkscape-font-specification:Montserrat;letter-spacing:0px;word-spacing:0px;fill:#0083a9;fill-opacity:1;fill-rule:nonzero;stroke:none;stroke-width:0.25054276"
         d="m 140.65642,289.82964 c -0.097,-0.0215 -0.20873,-0.10951 -0.24842,-0.1496 -0.0399,-0.0214 -0.1131,-0.0844 -0.1632,-0.10128 -0.0501,-0.0107 -0.14989,-0.11703 -0.22154,-0.22476 -0.0718,-0.10772 -0.16009,-0.22726 -0.19588,-0.26484 -0.0364,-0.0179 -0.0652,-0.0948 -0.0656,-0.12956 0,-0.0179 -0.0401,-0.13314 -0.0882,-0.21939 -0.0675,-0.12241 -0.0878,-0.29133 -0.0878,-0.75649 0,-0.46655 0.0197,-0.63644 0.0878,-0.75881 0.0492,-0.0841 0.0882,-0.17143 0.0882,-0.19255 0.002,-0.0795 0.32654,-0.51447 0.45981,-0.61454 0.0778,-0.054 0.16471,-0.12383 0.19337,-0.14745 0.26177,-0.20866 1.18391,-0.25232 1.59347,-0.0748 0.29662,0.1267 0.60962,0.46835 0.65559,0.71415 0.019,0.102 0.0554,0.19935 0.0816,0.21474 0.1069,0.0605 0.0333,0.1292 -0.15437,0.1292 -0.18692,0 -0.20926,-0.0107 -0.32632,-0.24945 -0.16696,-0.3307 -0.2355,-0.39892 -0.54137,-0.53585 -0.47223,-0.21402 -1.01429,-0.0597 -1.37923,0.37783 -0.2861,0.34538 -0.39299,0.72743 -0.36015,1.28632 0.0197,0.34322 0.0566,0.508 0.1534,0.68584 0.14477,0.26949 0.36347,0.51039 0.59129,0.65394 0.21372,0.13529 0.81756,0.13994 1.06045,0 0.18968,-0.10199 0.38039,-0.27379 0.34416,-0.31065 -0.0118,-0.0107 0.0118,-0.0444 0.0565,-0.0863 0.044,-0.0179 0.0796,-0.0948 0.0796,-0.13706 0,-0.0179 0.0229,-0.0655 0.0513,-0.0655 0.029,0 0.0513,-0.0322 0.0513,-0.10057 0,-0.20007 0.0588,-0.26592 0.24064,-0.26592 0.10738,0 0.17688,0.0107 0.17644,0.0627 -0.002,0.18361 -0.3366,0.92803 -0.41684,0.92803 -0.0179,0 -0.0783,0.0214 -0.13403,0.0909 -0.25314,0.23264 -0.53368,0.3239 -0.97775,0.32068 -0.25429,0 -0.50123,-0.0179 -0.60557,-0.0805 z"
         id="path4146-2"
         inkscape:connector-curvature="0"
         inkscape:export-xdpi="43.235409"
         inkscape:export-ydpi="43.235409" />
      <path
         style="font-size:34.35300827px;line-height:6.61458302px;font-family:Montserrat;-inkscape-font-specification:Montserrat;letter-spacing:0px;word-spacing:0px;fill:#0083a9;fill-opacity:1;fill-rule:nonzero;stroke:none;stroke-width:0.25054276"
         d="m 143.88832,289.81987 c -0.23109,-0.11167 -0.43598,-0.30886 -0.51503,-0.49468 -0.0816,-0.19112 -0.0805,-0.72231 0.002,-0.90963 0.0816,-0.18503 0.33974,-0.41795 0.5094,-0.45943 0.0717,-0.0107 0.14244,-0.0494 0.1573,-0.0759 0.0144,-0.0107 0.32064,-0.0644 0.67941,-0.1045 0.95803,-0.0852 1.09657,-0.16929 1.09657,-0.63634 0,-0.38721 -0.0858,-0.52139 -0.43181,-0.67005 -0.22678,-0.0949 -0.32694,-0.11095 -0.62153,-0.0834 -0.53994,0.0455 -0.8094,0.25912 -0.9035,0.69875 -0.0326,0.15103 -0.0553,0.16965 -0.21491,0.16965 -0.15064,0 -0.17867,-0.0107 -0.17867,-0.11882 0,-0.37042 0.31474,-0.7849 0.72476,-0.95734 0.24114,-0.10236 1.19239,-0.1131 1.43189,-0.0107 0.22207,0.087 0.54025,0.43757 0.58002,0.63531 0.0168,0.0834 0.0322,0.67051 0.0322,1.29812 0,0.71372 0.0193,1.15121 0.0516,1.17193 0.0293,0.0107 0.0406,0.0408 0.024,0.0776 -0.0362,0.049 0.14231,0.15605 0.28439,0.15605 0.0851,0 0.10787,0.0179 0.10787,0.15711 0,0.14888 -0.004,0.15497 -0.22187,0.15425 -0.38245,0 -0.44428,-0.0179 -0.53898,-0.32282 l -0.087,-0.26091 -0.24215,0.23479 c -0.37427,0.36354 -0.60202,0.45578 -1.11493,0.4513 -0.2944,0 -0.49061,-0.0143 -0.61285,-0.0863 v 0 z m 1.29321,-0.37185 c 0.004,-0.0144 0.0399,-0.0465 0.0654,-0.0465 0.0817,0 0.31656,-0.22691 0.44637,-0.43058 0.10738,-0.1675 0.1243,-0.25984 0.1243,-0.66626 v -0.47353 l -0.14369,0.0644 c -0.079,0.0215 -0.28771,0.0834 -0.46391,0.10307 -0.38729,0.0179 -0.74025,0.12061 -1.08992,0.25196 -0.22314,0.0816 -0.27454,0.12991 -0.35262,0.31996 -0.0502,0.12204 -0.0916,0.24981 -0.0916,0.28631 0,0.11596 0.22913,0.5352 0.29333,0.5352 0.0351,0 0.0717,0.0107 0.0821,0.0522 0.0477,0.1378 1.08368,0.13815 1.12988,0 v 0 z"
         id="path4148-0"
         inkscape:connector-curvature="0"
         inkscape:export-xdpi="43.235409"
         inkscape:export-ydpi="43.235409" />
      <path
         style="font-size:34.35300827px;line-height:6.61458302px;font-family:Montserrat;-inkscape-font-specification:Montserrat;letter-spacing:0px;word-spacing:0px;fill:#0083a9;fill-opacity:1;fill-rule:nonzero;stroke:none;stroke-width:0.25054276"
         d="m 147.73465,289.75295 c -0.17552,-0.102 -0.19785,-0.30565 -0.19466,-1.77996 l 0.004,-1.45317 h -0.34024 -0.34016 v -0.18252 -0.18396 h 0.28861 c 0.26647,0 0.29266,-0.0107 0.34358,-0.14317 0.0308,-0.0805 0.05,-0.29598 0.044,-0.48219 -0.0161,-0.46967 -0.0157,-0.47109 0.15812,-0.47109 h 0.15487 l 0.0144,0.53644 0.0143,0.53567 0.38335,0.0107 c 0.31958,0.0107 0.37819,0.0179 0.35256,0.0927 -0.0164,0.0286 -0.0312,0.12454 -0.0312,0.17967 0,0.0891 -0.0404,0.10056 -0.36561,0.10056 h -0.36569 v 1.30382 c 0,1.60269 0.0351,1.72076 0.50926,1.72523 0.2016,0 0.22204,0.0107 0.22204,0.13171 0,0.12741 -0.004,0.13063 -0.37874,0.12992 -0.2083,0 -0.42117,-0.0107 -0.47299,-0.0519 z"
         id="path4150-2"
         inkscape:connector-curvature="0"
         inkscape:export-xdpi="43.235409"
         inkscape:export-ydpi="43.235409" />
      <path
         style="font-size:34.35300827px;line-height:6.61458302px;font-family:Montserrat;-inkscape-font-specification:Montserrat;letter-spacing:0px;word-spacing:0px;fill:#0083a9;fill-opacity:1;fill-rule:nonzero;stroke:none;stroke-width:0.25054276"
         d="m 149.36982,287.98351 v -1.83014 h 0.20893 0.2088 v 1.83014 1.82831 h -0.2088 -0.20893 z"
         id="path4152-3"
         inkscape:connector-curvature="0"
         inkscape:export-xdpi="43.235409"
         inkscape:export-ydpi="43.235409" />
      <path
         style="font-size:34.35300827px;line-height:6.61458302px;font-family:Montserrat;-inkscape-font-specification:Montserrat;letter-spacing:0px;word-spacing:0px;fill:#0083a9;fill-opacity:1;fill-rule:nonzero;stroke:none;stroke-width:0.25054276"
         d="m 149.36982,285.05699 v -0.31209 h 0.20893 0.2088 v 0.31209 0.31388 h -0.2088 -0.20893 z"
         id="path4154-7"
         inkscape:connector-curvature="0"
         inkscape:export-xdpi="43.235409"
         inkscape:export-ydpi="43.235409" />
      <path
         style="font-size:34.35300827px;line-height:6.61458302px;font-family:Montserrat;-inkscape-font-specification:Montserrat;letter-spacing:0px;word-spacing:0px;fill:#0083a9;fill-opacity:1;fill-rule:nonzero;stroke:none;stroke-width:0.25054276"
         d="m 151.56351,289.81987 c -0.20132,-0.0927 -0.21542,-0.10665 -0.44953,-0.30957 -0.18622,-0.165 -0.44787,-0.56033 -0.40061,-0.60768 0.0172,-0.0107 0.004,-0.0143 -0.0269,-0.0143 -0.0322,0 -0.0721,-0.11167 -0.0897,-0.24875 -0.0172,-0.13528 -0.0527,-0.28882 -0.0819,-0.33892 -0.0624,-0.11382 -0.0649,-0.54637 -0.003,-0.58376 0.0258,-0.0107 0.062,-0.15748 0.0825,-0.31603 0.0197,-0.15926 0.0614,-0.28774 0.0936,-0.28774 0.0319,0 0.0437,-0.0107 0.0265,-0.0179 -0.0498,-0.0358 0.27576,-0.54343 0.35786,-0.54343 0.0411,0 0.0734,-0.0179 0.0734,-0.0766 0,-0.0251 0.0219,-0.0776 0.0493,-0.0776 0.0269,0 0.0798,-0.0179 0.11744,-0.0616 0.15485,-0.14817 0.37581,-0.19506 0.89422,-0.19076 0.29301,0 0.60446,0.0179 0.69209,0.0634 0.21778,0.0844 0.59569,0.36086 0.59703,0.43778 0.002,0.0179 0.0311,0.0795 0.0663,0.10415 0.0362,0.0107 0.12404,0.15854 0.19587,0.30063 0.12012,0.238 0.13059,0.3153 0.13059,0.96595 0,0.6391 -0.0107,0.73416 -0.1269,0.98197 -0.0694,0.15103 -0.14455,0.27379 -0.16625,0.27379 -0.0212,0 -0.0523,0.0322 -0.0717,0.10236 -0.0371,0.11702 -0.43551,0.40217 -0.62973,0.45095 -0.0706,0.0107 -0.14216,0.0415 -0.15794,0.0813 -0.0515,0.0844 -0.97228,0.0415 -1.17163,-0.0391 z m 1.18592,-0.33463 c 0.18121,-0.0766 0.50839,-0.42511 0.61996,-0.65853 0.1973,-0.41133 0.1973,-1.27683 0,-1.6882 -0.12526,-0.26162 -0.46805,-0.61851 -0.59355,-0.61851 -0.0595,0 -0.1238,-0.0144 -0.14154,-0.039 -0.0498,-0.0787 -0.6851,-0.0529 -0.894,0.0144 -0.39557,0.16464 -0.65777,0.56695 -0.80485,1.23471 -0.0496,0.22619 -0.0503,0.33642 -0.004,0.46599 0.0333,0.0927 0.0591,0.21867 0.0592,0.27845 0.002,0.20578 0.25131,0.6296 0.50445,0.85231 l 0.25243,0.2237 h 0.42845 c 0.23563,0 0.49413,-0.0143 0.5745,-0.0616 v 0 z"
         id="path4156-5"
         inkscape:connector-curvature="0"
         inkscape:export-xdpi="43.235409"
         inkscape:export-ydpi="43.235409" />
      <path
         style="font-size:34.35300827px;line-height:6.61458302px;font-family:Montserrat;-inkscape-font-specification:Montserrat;letter-spacing:0px;word-spacing:0px;fill:#0083a9;fill-opacity:1;fill-rule:nonzero;stroke:none;stroke-width:0.25054276"
         d="m 154.69747,287.98351 v -1.83014 h 0.20898 0.20894 v 0.28668 c 0,0.23227 0.014,0.27987 0.0785,0.25589 0.0434,-0.0107 0.0785,-0.0437 0.0785,-0.0787 0,-0.0708 0.33263,-0.38227 0.48769,-0.45281 0.17787,-0.0787 0.97376,-0.0863 1.22996,-0.0107 0.19699,0.054 0.5245,0.41248 0.58844,0.63473 0.0186,0.0616 0.0368,0.76966 0.0394,1.56576 l 0.004,1.45117 h -0.18278 -0.18285 l -0.004,-1.26745 c -0.004,-1.43736 -0.004,-1.47722 -0.13238,-1.73999 -0.12959,-0.27487 -0.54943,-0.46602 -0.92802,-0.42644 -0.42886,0.0358 -0.69189,0.21045 -0.94691,0.58788 -0.0968,0.14209 -0.10569,0.25662 -0.12076,1.50012 l -0.0164,1.34588 h -0.20575 -0.20572 v -1.82968 z"
         id="path4158-9"
         inkscape:connector-curvature="0"
         inkscape:export-xdpi="43.235409"
         inkscape:export-ydpi="43.235409" />
      <path
         style="font-size:34.35300827px;line-height:6.61458302px;font-family:Montserrat;-inkscape-font-specification:Montserrat;letter-spacing:0px;word-spacing:0px;fill:#0083a9;fill-opacity:1;fill-rule:nonzero;stroke:none;stroke-width:0.25054276"
         d="m 159.13415,289.79386 c -0.13099,-0.054 -0.28986,-0.15104 -0.35314,-0.19757 -0.15722,-0.11452 -0.37448,-0.55746 -0.37474,-0.76543 0,-0.15175 0.0151,-0.17036 0.14757,-0.17036 0.1501,0 0.22136,0.0841 0.29837,0.35962 0.0471,0.16284 0.36269,0.46844 0.53785,0.51573 0.0766,0.0107 0.31906,0.0179 0.53928,0.0179 0.46651,0 0.69118,-0.0955 0.86833,-0.36845 0.11338,-0.17287 0.16445,-0.59504 0.0723,-0.59504 -0.0236,0 -0.0733,-0.0523 -0.11012,-0.12669 -0.0816,-0.15104 -0.19993,-0.20866 -0.60559,-0.29062 -0.1714,-0.0179 -0.35864,-0.0805 -0.41616,-0.10666 -0.0569,-0.0107 -0.19839,-0.054 -0.31324,-0.0759 -0.11492,-0.0107 -0.22053,-0.0415 -0.23496,-0.0644 -0.014,-0.0107 -0.13575,-0.0863 -0.26942,-0.15568 -0.20078,-0.10129 -0.26201,-0.16857 -0.3525,-0.38538 -0.12017,-0.28954 -0.13739,-0.43599 -0.0571,-0.4856 0.029,-0.0107 0.0513,-0.0834 0.0513,-0.14888 0,-0.15855 0.24419,-0.43209 0.49286,-0.55066 0.2472,-0.11703 1.13197,-0.15103 1.42656,-0.0455 0.33363,0.10988 0.69213,0.56827 0.69213,0.88569 0,0.092 -0.0269,0.10773 -0.19402,0.0909 -0.1725,-0.0107 -0.19999,-0.0179 -0.24487,-0.19862 -0.052,-0.19434 -0.25089,-0.41856 -0.36896,-0.41856 -0.0396,0 -0.0809,-0.0143 -0.0924,-0.054 -0.0118,-0.0251 -0.15898,-0.0616 -0.40915,-0.0616 -0.75157,-0.0107 -1.11517,0.32389 -0.93237,0.8496 0.0812,0.23049 0.636,0.48159 1.23652,0.558 0.25855,0.0144 0.66592,0.1997 0.8539,0.35002 0.13024,0.10451 0.30769,0.51079 0.30769,0.7053 0,0.39846 -0.38368,0.85603 -0.78525,0.93669 -0.0853,0.0107 -0.1549,0.0426 -0.1549,0.0787 0,0.0107 -0.22919,0.0215 -0.5093,0.0215 -0.408,0 -0.55654,-0.0143 -0.74739,-0.11847 z"
         id="path4160-2"
         inkscape:connector-curvature="0"
         inkscape:export-xdpi="43.235409"
         inkscape:export-ydpi="43.235409" />
      <path
         style="font-size:34.35300827px;line-height:6.61458302px;font-family:Montserrat;-inkscape-font-specification:Montserrat;letter-spacing:0px;word-spacing:0px;fill:#0083a9;fill-opacity:1;fill-rule:nonzero;stroke:none;stroke-width:0.25054276"
         d="m 165.1179,289.83466 c -0.0864,-0.0179 -0.20959,-0.073 -0.27419,-0.073 -0.0645,0 -0.1176,-0.0107 -0.1176,-0.0215 0,-0.0107 -0.0757,-0.0719 -0.16782,-0.11381 -0.19143,-0.0834 -0.40677,-0.29813 -0.40677,-0.40242 0,-0.0179 -0.0201,-0.0655 -0.0456,-0.0655 -0.0703,0 -0.26814,-0.58871 -0.26814,-0.80198 0,-0.18503 0.004,-0.19004 0.19899,-0.19004 0.19716,0 0.19974,0 0.26344,0.27343 0.13784,0.58691 0.40301,0.88518 0.94611,1.06256 0.31645,0.10379 1.36331,0.0891 1.39942,-0.0107 0.01,-0.0179 0.0533,-0.0616 0.0954,-0.0616 0.11213,0 0.47038,-0.34537 0.56488,-0.54457 0.0478,-0.0927 0.0838,-0.2652 0.0838,-0.37186 0,-0.23943 -0.23764,-0.64088 -0.40488,-0.68465 -0.0643,-0.0107 -0.1175,-0.0465 -0.1175,-0.0673 0,-0.0107 -0.0172,-0.0215 -0.0396,-0.0179 -0.0584,0.0107 -0.3449,-0.0634 -0.4058,-0.1156 -0.0297,-0.0107 -0.2408,-0.0766 -0.47014,-0.11953 -0.46987,-0.0881 -0.83665,-0.17788 -0.99123,-0.24302 -0.60343,-0.25625 -0.75219,-0.39654 -0.88269,-0.83243 -0.0958,-0.31817 -0.0957,-0.3196 0.0262,-0.69697 0.0915,-0.28345 0.17662,-0.43262 0.34555,-0.6047 0.1234,-0.1249 0.22447,-0.21044 0.22447,-0.18932 0,0.0143 0.0595,0 0.13285,-0.0426 0.073,-0.0361 0.25013,-0.10129 0.39335,-0.11811 0.14316,-0.0107 0.27271,-0.0472 0.28803,-0.0737 0.0364,-0.0529 0.52932,-0.0529 0.56574,0 0.0151,0.0179 0.14942,0.0569 0.29792,0.0795 0.43279,0.0512 0.70132,0.23192 1.12827,0.73237 0.0576,0.0644 0.17598,0.63434 0.13975,0.66994 -0.004,0.0107 -0.11073,0.0107 -0.22716,0 -0.16986,-0.0107 -0.21162,-0.0251 -0.21162,-0.12312 0,-0.30814 -0.36184,-0.73082 -0.76292,-0.88933 -0.36622,-0.14495 -1.03034,-0.1453 -1.33501,0 -0.33914,0.15998 -0.52062,0.37859 -0.55257,0.66114 -0.0143,0.13243 -0.0502,0.24015 -0.0792,0.24015 -0.0343,0 -0.0343,0.0143 -3e-5,0.0616 0.029,0.0214 0.0665,0.14853 0.0849,0.24981 0.0301,0.16643 0.18013,0.36251 0.28142,0.36667 0.0212,0 0.13271,0.0358 0.24748,0.10271 0.11503,0.054 0.26885,0.102 0.34219,0.10307 0.0731,0 0.15553,0.0107 0.18284,0.0286 0.0272,0.0143 0.22587,0.0759 0.44129,0.11239 0.21556,0.0215 0.41531,0.0844 0.44401,0.10701 0.029,0.0107 0.13447,0.0519 0.235,0.0748 0.19001,0.0215 0.59509,0.23478 0.73131,0.35146 0.0436,0.0179 0.1371,0.14923 0.20886,0.24945 0.11614,0.16284 0.13056,0.23441 0.13056,0.65226 0,0.40915 -0.0164,0.49741 -0.12856,0.67807 -0.16123,0.25876 -0.27458,0.37236 -0.41465,0.41677 -0.06,0.0107 -0.10959,0.0577 -0.10959,0.0844 0,0.0144 -0.0233,0.0179 -0.0513,0.0107 -0.0286,-0.0107 -0.0513,0 -0.0513,0.0107 0,0.0143 -0.0944,0.0616 -0.20869,0.0841 -0.11464,0.0107 -0.22189,0.0501 -0.23808,0.0823 -0.0491,0.0737 -1.27931,0.0444 -1.45978,-0.0143 v 0 z"
         id="path4164-2"
         inkscape:connector-curvature="0"
         inkscape:export-xdpi="43.235409"
         inkscape:export-ydpi="43.235409" />
      <path
         style="font-size:34.35300827px;line-height:6.61458302px;font-family:Montserrat;-inkscape-font-specification:Montserrat;letter-spacing:0px;word-spacing:0px;fill:#0083a9;fill-opacity:1;fill-rule:nonzero;stroke:none;stroke-width:0.25054276"
         d="m 169.45314,289.81146 c -0.11488,-0.0522 -0.27322,-0.14745 -0.35192,-0.19792 -0.15139,-0.092 -0.50988,-0.56959 -0.50988,-0.6732 0,-0.0143 -0.0229,-0.0634 -0.0512,-0.0795 -0.0974,-0.0179 -0.16398,-0.84732 -0.10658,-1.30524 0.0297,-0.2355 0.073,-0.44147 0.0971,-0.45729 0.0232,-0.0107 0.0584,-0.073 0.079,-0.1267 0.05,-0.13457 0.40882,-0.5834 0.51152,-0.63927 0.0485,-0.0143 0.16142,-0.087 0.25493,-0.1428 0.12484,-0.0634 0.2904,-0.0948 0.62037,-0.10451 0.56401,-0.0107 0.93378,0.0863 1.1879,0.31531 0.10737,0.0927 0.21206,0.17143 0.23234,0.17143 0.0201,0 0.0517,0.0605 0.0727,0.14423 0.0197,0.0805 0.0651,0.17967 0.10132,0.22261 0.23321,0.27845 0.33664,1.36928 0.16188,1.70449 -0.0436,0.0795 -0.0782,0.20257 -0.0785,0.26663 0,0.0616 -0.0218,0.11739 -0.0497,0.11739 -0.0269,0 -0.0771,0.0748 -0.1108,0.17036 -0.0738,0.20329 -0.47804,0.53248 -0.71515,0.58408 -0.0939,0.0107 -0.16989,0.0519 -0.16989,0.087 0,0.0107 -0.21732,0.0286 -0.48312,0.0286 -0.37398,0 -0.53028,-0.0107 -0.69205,-0.10378 z m 1.17935,-0.3468 c 0.046,-0.0215 0.10206,-0.0662 0.12601,-0.0662 0.14656,0 0.63806,-0.76843 0.65484,-1.02307 0.019,-0.29563 0.0114,-0.63502 -0.014,-0.73376 -0.0164,-0.0529 -0.0538,-0.19791 -0.0843,-0.30314 -0.0505,-0.18395 -0.24258,-0.48366 -0.42125,-0.6585 -0.11299,-0.10987 -0.36984,-0.21007 -0.61185,-0.23799 -0.11092,-0.0107 -0.23081,-0.0143 -0.26638,-0.0179 -0.15769,-0.0107 -0.63665,0.19219 -0.69784,0.30637 -0.0358,0.0616 -0.0769,0.10915 -0.0912,0.092 -0.0486,-0.0286 -0.27998,0.39562 -0.35335,0.67184 -0.0913,0.34108 -0.0911,0.66655 0,1.00888 0.0795,0.29776 0.28911,0.70452 0.34551,0.66954 0.0193,-0.0107 0.0643,0.0144 0.0993,0.0938 0.0656,0.12312 0.28313,0.23944 0.55296,0.29563 0.23386,0.0361 0.66763,0 0.76147,-0.0834 v 0 z"
         id="path4166-8"
         inkscape:connector-curvature="0"
         inkscape:export-xdpi="43.235409"
         inkscape:export-ydpi="43.235409" />
      <path
         style="font-size:34.35300827px;line-height:6.61458302px;font-family:Montserrat;-inkscape-font-specification:Montserrat;letter-spacing:0px;word-spacing:0px;fill:#0083a9;fill-opacity:1;fill-rule:nonzero;stroke:none;stroke-width:0.25054276"
         d="m 172.5854,287.27698 v -2.53189 h 0.20904 0.20898 v 2.53189 2.53484 h -0.20898 -0.20904 z"
         id="path4168-9"
         inkscape:connector-curvature="0"
         inkscape:export-xdpi="43.235409"
         inkscape:export-ydpi="43.235409" />
      <path
         style="font-size:34.35300827px;line-height:6.61458302px;font-family:Montserrat;-inkscape-font-specification:Montserrat;letter-spacing:0px;word-spacing:0px;fill:#0083a9;fill-opacity:1;fill-rule:nonzero;stroke:none;stroke-width:0.25054276"
         d="m 174.41373,289.71705 c -0.25758,-0.17322 -0.29928,-0.22798 -0.40428,-0.5337 -0.1092,-0.31709 -0.11685,-0.42604 -0.1175,-1.68365 l -0.002,-1.34633 h 0.20901 0.20891 v 1.35267 c 0,1.48176 0.0164,1.58222 0.31076,1.87559 0.17919,0.18002 0.52964,0.25375 0.90269,0.1929 0.26086,-0.0322 0.51036,-0.17537 0.51036,-0.27056 0,-0.0179 0.0208,-0.0616 0.0486,-0.0616 0.074,0 0.24864,-0.33034 0.32243,-0.6086 0.0416,-0.15497 0.0743,-0.68276 0.0862,-1.36351 l 0.0186,-1.11056 h 0.15458 0.15472 v 1.82899 1.82609 h -0.15665 c -0.15515,0 -0.15669,0 -0.15669,-0.28595 0,-0.15819 -0.0157,-0.28632 -0.0351,-0.28632 -0.019,0 -0.13227,0.10128 -0.25124,0.22547 -0.326,0.34072 -0.60268,0.45274 -1.10125,0.45171 -0.3908,0 -0.43088,-0.0107 -0.70171,-0.19685 v 0 z"
         id="path4170-7"
         inkscape:connector-curvature="0"
         inkscape:export-xdpi="43.235409"
         inkscape:export-ydpi="43.235409" />
      <path
         style="font-size:34.35300827px;line-height:6.61458302px;font-family:Montserrat;-inkscape-font-specification:Montserrat;letter-spacing:0px;word-spacing:0px;fill:#0083a9;fill-opacity:1;fill-rule:nonzero;stroke:none;stroke-width:0.25054276"
         d="m 178.72401,289.82299 c -0.38873,-0.0107 -0.49972,-0.0776 -0.6333,-0.335 -0.0571,-0.1113 -0.0729,-0.44704 -0.0729,-1.55401 v -1.41406 h -0.31351 -0.31345 v -0.18252 -0.18396 h 0.31345 0.31351 v -0.54819 -0.54819 h 0.20711 0.20708 l 0.0144,0.53646 0.014,0.53566 0.37874,0.0107 0.37871,0.0107 v 0.18145 0.18002 h -0.3918 -0.39169 v 1.356 c 0,0.88984 0.0197,1.39855 0.0583,1.48463 0.0662,0.14494 0.18066,0.18753 0.50636,0.18896 0.21359,0 0.22465,0 0.20901,0.14066 -0.019,0.16105 -0.004,0.15783 -0.48539,0.13385 v 0 z"
         id="path4172-3"
         inkscape:connector-curvature="0"
         inkscape:export-xdpi="43.235409"
         inkscape:export-ydpi="43.235409" />
      <path
         style="font-size:34.35300827px;line-height:6.61458302px;font-family:Montserrat;-inkscape-font-specification:Montserrat;letter-spacing:0px;word-spacing:0px;fill:#0083a9;fill-opacity:1;fill-rule:nonzero;stroke:none;stroke-width:0.25054276"
         d="m 179.95028,287.98351 v -1.83014 h 0.18285 0.18278 v 1.83014 1.82831 h -0.18278 -0.18285 z"
         id="path4174-6"
         inkscape:connector-curvature="0"
         inkscape:export-xdpi="43.235409"
         inkscape:export-ydpi="43.235409" />
      <path
         style="font-size:34.35300827px;line-height:6.61458302px;font-family:Montserrat;-inkscape-font-specification:Montserrat;letter-spacing:0px;word-spacing:0px;fill:#0083a9;fill-opacity:1;fill-rule:nonzero;stroke:none;stroke-width:0.25054276"
         d="m 182.27725,289.86497 c -0.0164,-0.0107 -0.10013,-0.0558 -0.18603,-0.0787 -0.0861,-0.0107 -0.15614,-0.0529 -0.15614,-0.0909 0,-0.0144 -0.0129,-0.0215 -0.0304,-0.0107 -0.0319,0.0144 -0.16442,-0.0616 -0.34688,-0.24838 -0.11467,-0.1156 -0.3069,-0.50165 -0.42914,-0.86227 -0.21846,-0.64221 0.0222,-1.59443 0.52429,-2.07294 0.12648,-0.1206 0.23028,-0.20292 0.23078,-0.1836 0.002,0.0107 0.0175,0.0107 0.0395,-0.0107 0.12287,-0.18289 1.21176,-0.25482 1.54181,-0.10201 0.69324,0.31782 1.02987,0.90813 1.02987,1.80248 0,0.87517 -0.3094,1.44325 -0.96628,1.77351 -0.27629,0.13994 -0.36702,0.15819 -0.76735,0.15856 -0.24971,0 -0.46719,-0.0107 -0.4836,-0.0358 v 0 z m 1.04256,-0.40124 c 0.21556,-0.10057 0.54793,-0.42572 0.54793,-0.53871 0,-0.0144 0.0186,-0.0501 0.0419,-0.0501 0.0834,0 0.17609,-0.6124 0.15082,-0.99667 -0.0271,-0.41616 -0.0828,-0.73662 -0.13425,-0.77781 -0.0172,-0.0107 -0.12164,-0.13923 -0.2312,-0.27594 -0.11231,-0.13887 -0.26034,-0.26306 -0.33947,-0.28095 -0.0776,-0.0107 -0.17025,-0.0512 -0.2069,-0.0834 -0.0368,-0.0179 -0.19401,-0.0455 -0.34977,-0.0455 -0.38342,0 -0.81452,0.21045 -0.97533,0.47536 -0.0645,0.10522 -0.13328,0.20436 -0.15254,0.2194 -0.0722,0.0465 -0.20554,0.62602 -0.20554,0.88357 0,0.28953 0.14678,0.89194 0.21747,0.89194 0.0236,0 0.0451,0.0144 0.0469,0.0616 0.003,0.0863 0.19366,0.30135 0.42076,0.46817 0.27544,0.2022 0.80679,0.22941 1.17085,0.0587 z"
         id="path4176-1"
         inkscape:connector-curvature="0"
         inkscape:export-xdpi="43.235409"
         inkscape:export-ydpi="43.235409" />
      <path
         style="font-size:34.35300827px;line-height:6.61458302px;font-family:Montserrat;-inkscape-font-specification:Montserrat;letter-spacing:0px;word-spacing:0px;fill:#0083a9;fill-opacity:1;fill-rule:nonzero;stroke:none;stroke-width:0.25054276"
         d="m 185.27797,287.98351 v -1.83014 h 0.18277 0.18303 v 0.29992 0.29991 l 0.22548,-0.24766 c 0.12404,-0.13385 0.31125,-0.28059 0.41617,-0.32354 0.24427,-0.102 1.07076,-0.10844 1.30556,-0.0107 0.17429,0.0634 0.45537,0.37233 0.45537,0.4832 0,0.0179 0.0301,0.073 0.0651,0.0844 0.0499,0.0107 0.0691,0.38473 0.0827,1.54531 l 0.0168,1.524 h -0.21313 -0.2132 v -1.38205 c 0,-0.76683 -0.0221,-1.43964 -0.0504,-1.51397 -0.0839,-0.2201 -0.3926,-0.48141 -0.61224,-0.5176 -0.34057,-0.0512 -0.47837,-0.0214 -0.7875,0.10308 -0.23288,0.10343 -0.33989,0.19434 -0.48211,0.4031 l -0.18292,0.26913 -0.0172,1.31882 -0.0175,1.31956 h -0.17812 -0.17824 v -1.83007 z"
         id="path4178-2"
         inkscape:connector-curvature="0"
         inkscape:export-xdpi="43.235409"
         inkscape:export-ydpi="43.235409" />
      <path
         style="font-size:34.35300827px;line-height:6.61458302px;font-family:Montserrat;-inkscape-font-specification:Montserrat;letter-spacing:0px;word-spacing:0px;fill:#7c7c7d;fill-opacity:1;fill-rule:nonzero;stroke:none;stroke-width:0.25054276"
         d="m 189.79614,289.84811 c -0.6294,-0.36942 -0.76353,-0.52511 -0.82962,-0.9655 l -0.0336,-0.22225 h 0.18341 c 0.12649,0 0.18339,0.0107 0.18339,0.0766 0,0.0644 0.0989,0.272 0.26885,0.54193 0.0388,0.0529 0.0993,0.11274 0.13551,0.11274 0.0364,0 0.0658,0.0107 0.0658,0.0361 0,0.0806 0.5744,0.1743 0.85765,0.13815 0.39088,-0.0251 0.63375,-0.17966 0.75845,-0.41344 0.10902,-0.204 0.1456,-0.50453 0.0608,-0.50453 -0.024,0 -0.0577,-0.0397 -0.0721,-0.10164 -0.0374,-0.14281 -0.32482,-0.3035 -0.66373,-0.37132 -0.94301,-0.1861 -1.56789,-0.47836 -1.56789,-0.73283 0,-0.0501 -0.0232,-0.0955 -0.0512,-0.0955 -0.078,0 -0.0628,-0.43255 0.0214,-0.63433 0.18054,-0.42833 0.57258,-0.62858 1.22754,-0.62642 0.45541,0 0.50417,0.0107 0.73533,0.0795 0.1409,0.0286 0.5224,0.41057 0.5224,0.49837 0,0.0179 0.0204,0.0494 0.0456,0.0494 0.0636,0 0.11857,0.37991 0.0626,0.4352 -0.0247,0.0143 -0.11532,0.0143 -0.20003,0.0107 -0.12039,-0.0143 -0.16782,-0.0759 -0.21487,-0.22797 -0.0782,-0.25053 -0.14517,-0.3282 -0.39443,-0.45407 -0.26908,-0.13743 -0.81261,-0.14316 -1.08773,-0.0107 -0.37651,0.18074 -0.4725,0.64013 -0.19208,0.92108 0.0887,0.0852 0.22361,0.17537 0.30042,0.19434 0.0769,0.0107 0.16302,0.0444 0.19179,0.0708 0.029,0.0107 0.24023,0.0644 0.4701,0.10631 0.68562,0.11023 1.13317,0.36569 1.20414,0.68887 0.0197,0.087 0.0615,0.20722 0.0932,0.25661 0.0406,0.0577 0.0397,0.12419 -0.004,0.21009 -0.0332,0.0627 -0.074,0.19648 -0.0932,0.29025 -0.0293,0.14674 -0.10561,0.23443 -0.41709,0.473 -0.029,0.0107 -0.15873,0.0805 -0.28907,0.12991 -0.27723,0.10487 -1.11184,0.11918 -1.27794,0.0107 z"
         id="path4180-9"
         inkscape:connector-curvature="0"
         inkscape:export-xdpi="43.235409"
         inkscape:export-ydpi="43.235409" />
      <path
         style="font-size:34.35300827px;line-height:6.61458302px;font-family:Montserrat;-inkscape-font-specification:Montserrat;letter-spacing:0px;word-spacing:0px;fill:#7c7c7d;fill-opacity:1;fill-rule:nonzero;stroke:none;stroke-width:0.25054276"
         d="m 58.354214,265.77233 c -0.0218,-0.0662 -0.11692,-0.4391 -0.21108,-0.82792 -0.0945,-0.38853 -0.29183,-0.92913 -0.43932,-1.20128 -0.14742,-0.272 -0.34029,-0.63548 -0.42862,-0.80791 -0.0883,-0.17251 -0.49646,-0.64249 -0.90711,-1.04477 -1.32204,-1.29444 -2.92274,-1.90902 -5.22039,-2.004 -1.20686,-0.0501 -2.5512,0.10843 -4.06074,0.47839 l -0.40448,0.0995 0.0657,-0.69704 c 0.0607,-0.64847 -0.0887,-1.95447 -0.31906,-2.78625 -0.17394,-0.62804 -0.8144,-1.6436 -1.32759,-2.10497 -1.01795,-0.91522 -2.01873,-1.28109 -3.72125,-1.36072 -1.09483,-0.0501 -1.64202,0 -3.1489,0.26126 l -0.48497,0.0863 -0.169,-0.84359 c -0.36314,-1.8126 -1.32099,-3.12282 -2.83072,-3.87172 l -0.73117,-0.36291 12.90135,0.0215 12.90147,0.0214 0.0268,8.43542 0.0268,8.43558 h -0.34029 c -0.18696,0 -0.51943,0.0444 -0.73864,0.0955 -0.28209,0.0655 -0.41033,0.057 -0.43865,-0.0286 v 0 z"
         id="path4190-3"
         inkscape:connector-curvature="0"
         inkscape:export-filename="C:\Users\PRODING\Desktop\share\img\sigmaicon.png"
         inkscape:export-xdpi="43.235409"
         inkscape:export-ydpi="43.235409" />
      <path
         style="font-size:34.35300827px;line-height:6.61458302px;font-family:Montserrat;-inkscape-font-specification:Montserrat;letter-spacing:0px;word-spacing:0px;fill:#7c7c7d;fill-opacity:1;fill-rule:nonzero;stroke:none;stroke-width:0.25054276"
         d="m 14.430454,281.50362 0.002,-12.82299 0.2929,0.56731 c 0.33437,0.6475 1.15291,1.66328 1.3477,1.67258 0.0717,0 0.13068,0.049 0.13068,0.0984 0,0.17429 1.5167,0.82305 2.38092,1.01822 0.81385,0.18395 0.86249,0.21007 0.80625,0.43587 -0.20212,0.81192 -0.38872,2.1753 -0.3959,2.89373 -0.0101,1.02753 0.31339,2.60767 0.61009,2.97745 0.0687,0.0852 0.1584,0.26306 0.19799,0.39326 0.0941,0.30743 1.34079,1.55459 1.64824,1.64825 0.13032,0.0408 0.30741,0.12741 0.39351,0.19506 0.47149,0.3692 2.34108,0.73207 3.36567,0.6528 0.74888,-0.0577 0.8202,-0.0483 0.77059,0.11667 -0.36012,1.18632 -0.50382,2.27454 -0.50599,3.8365 -0.002,1.42514 0.0318,1.78555 0.22944,2.45474 0.12723,0.43037 0.25939,0.87706 0.29323,0.99249 0.0338,0.11523 0.14554,0.34966 0.24822,0.52309 0.10242,0.17108 0.26601,0.46899 0.36304,0.65763 0.35444,0.69959 1.54214,1.74843 2.55309,2.25655 0.52235,0.26448 1.03228,0.48047 1.13282,0.48047 0.10082,0 0.39395,0.0708 0.65167,0.15998 l 0.4679,0.15998 -0.0986,0.72753 -0.0984,0.728 h -8.39483 -8.39482 l 0.002,-12.82328 z"
         id="path4192-1"
         inkscape:connector-curvature="0"
         inkscape:export-filename="C:\Users\PRODING\Desktop\share\img\sigmaicon.png"
         inkscape:export-xdpi="43.235409"
         inkscape:export-ydpi="43.235409" />
      <path
         style="font-size:34.35300827px;line-height:6.61458302px;font-family:Montserrat;-inkscape-font-specification:Montserrat;letter-spacing:0px;word-spacing:0px;fill:#14a0c1;fill-opacity:1;fill-rule:nonzero;stroke:none;stroke-width:0.25054276"
         d="m 27.622364,257.17642 -1.37881,-1.40249 0.45666,-0.65348 c 1.07211,-1.53355 2.03963,-3.82097 2.25319,-5.32768 0.0576,-0.40639 0.1312,-0.76528 0.16342,-0.79739 0.0326,-0.0322 1.15134,-0.0583 2.48699,-0.0583 h 2.42844 l 0.61841,0.31101 c 1.65182,0.8311 2.72761,2.46629 2.8813,4.37929 0.0333,0.40681 0.0322,0.40746 -0.48827,0.55444 -0.28664,0.0816 -0.66924,0.21475 -0.8503,0.29778 -0.18099,0.0834 -0.3608,0.15068 -0.39944,0.15068 -0.0984,0 -2.06759,0.96341 -2.82318,1.38129 -0.73307,0.40536 -2.64547,1.64615 -2.87276,1.86374 -0.28566,0.27344 -0.92487,0.72489 -1.01159,0.71408 -0.0486,0 -0.70583,-0.64164 -1.46405,-1.41301 v 0 z"
         id="path4198-9"
         inkscape:connector-curvature="0"
         inkscape:export-filename="C:\Users\PRODING\Desktop\share\img\sigmaicon.png"
         inkscape:export-xdpi="43.235409"
         inkscape:export-ydpi="43.235409" />
      <path
         style="font-size:34.35300827px;line-height:6.61458302px;font-family:Montserrat;-inkscape-font-specification:Montserrat;letter-spacing:0px;word-spacing:0px;fill:#14a0c1;fill-opacity:1;fill-rule:nonzero;stroke:none;stroke-width:0.25054276"
         d="m 18.241174,271.82286 c -1.49842,-0.38922 -2.67718,-1.26835 -3.30597,-2.46537 -0.47389,-0.90251 -0.50388,-1.1043 -0.50385,-3.39268 3e-5,-1.20665 0.0394,-2.25511 0.0866,-2.33001 0.0489,-0.0748 0.41111,-0.18146 0.80805,-0.23692 0.97844,-0.13708 1.78681,-0.39413 3.17656,-1.01085 0.59886,-0.26556 2.16417,-1.17372 2.6056,-1.51186 l 0.25509,-0.19541 1.43948,1.4367 c 0.79189,0.7902 1.40526,1.46225 1.36362,1.49339 -0.14546,0.10809 -1.01809,1.31767 -1.7689,2.45117 -0.91241,1.37768 -2.01351,3.5509 -2.47336,4.8817 l -0.33743,0.97638 -0.41142,0.0179 c -0.22635,0.0107 -0.6465,-0.0426 -0.93385,-0.11595 z"
         id="path4200-4"
         inkscape:connector-curvature="0"
         inkscape:export-filename="C:\Users\PRODING\Desktop\share\img\sigmaicon.png"
         inkscape:export-xdpi="43.235409"
         inkscape:export-ydpi="43.235409" />
      <path
         style="font-size:34.35300827px;line-height:6.61458302px;font-family:Montserrat;-inkscape-font-specification:Montserrat;letter-spacing:0px;word-spacing:0px;fill:#3daac7;fill-opacity:1;fill-rule:nonzero;stroke:none;stroke-width:0.25054276"
         d="m 21.113944,250.65974 c -0.7756,-0.77781 -1.47475,-1.4954 -1.5536,-1.59461 -0.1354,-0.17035 0.11971,-0.18002 4.59653,-0.16964 2.60693,0 4.59879,0.0461 4.42632,0.0877 -1.15549,0.28238 -3.57335,1.44368 -5.06941,2.4353 l -0.98957,0.65585 -1.41027,-1.41416 z"
         id="path4206-7"
         inkscape:connector-curvature="0"
         inkscape:export-filename="C:\Users\PRODING\Desktop\share\img\sigmaicon.png"
         inkscape:export-xdpi="43.235409"
         inkscape:export-ydpi="43.235409" />
      <path
         style="font-size:34.35300827px;line-height:6.61458302px;font-family:Montserrat;-inkscape-font-specification:Montserrat;letter-spacing:0px;word-spacing:0px;fill:#3daac7;fill-opacity:1;fill-rule:nonzero;stroke:none;stroke-width:0.25054276"
         d="m 14.436174,258.55629 c -0.002,-2.63813 0.0127,-4.77698 0.0389,-4.75294 0.0251,0.0214 0.74888,0.74032 1.60742,1.59247 l 1.56088,1.5488 -0.66175,0.98964 c -0.82025,1.22694 -1.81915,3.23463 -2.22801,4.47854 l -0.30909,0.9403 -0.004,-4.79681 v 0 z"
         id="path4208-8"
         inkscape:connector-curvature="0"
         inkscape:export-filename="C:\Users\PRODING\Desktop\share\img\sigmaicon.png"
         inkscape:export-xdpi="43.235409"
         inkscape:export-ydpi="43.235409" />
      <path
         style="font-size:34.35300827px;line-height:6.61458302px;font-family:Montserrat;-inkscape-font-specification:Montserrat;letter-spacing:0px;word-spacing:0px;fill:#056c97;fill-opacity:1;fill-rule:nonzero;stroke:none;stroke-width:0.25054276"
         d="m 24.411974,253.94748 c -0.95204,-0.95193 -1.73064,-1.76374 -1.73008,-1.8038 0.002,-0.24551 3.68796,-2.33519 4.6257,-2.62305 0.18452,-0.0562 0.6131,-0.19935 0.95232,-0.31746 0.33948,-0.11774 0.63313,-0.21402 0.65291,-0.21402 0.18866,0 -0.17802,1.78916 -0.59977,2.92502 -0.39613,1.06721 -1.76631,3.51447 -2.07445,3.70487 -0.0515,0.0322 -0.87483,-0.71948 -1.82663,-1.67153 z"
         id="path4210-4"
         inkscape:connector-curvature="0"
         inkscape:export-filename="C:\Users\PRODING\Desktop\share\img\sigmaicon.png"
         inkscape:export-xdpi="43.235409"
         inkscape:export-ydpi="43.235409" />
      <path
         style="font-size:34.35300827px;line-height:6.61458302px;font-family:Montserrat;-inkscape-font-specification:Montserrat;letter-spacing:0px;word-spacing:0px;fill:#056c97;fill-opacity:1;fill-rule:nonzero;stroke:none;stroke-width:0.25054276"
         d="m 14.637264,263.21445 c 0,-0.52829 0.96654,-2.81739 1.75021,-4.14444 0.49674,-0.84152 1.08536,-1.74821 1.23183,-1.89784 0.0903,-0.0927 0.54677,0.30635 1.8726,1.63393 1.03445,1.03557 1.72351,1.80354 1.68075,1.87276 -0.0862,0.13851 -0.90855,0.67289 -1.91622,1.24388 -0.92247,0.5228 -2.47915,1.126 -3.41791,1.32438 -0.98594,0.2083 -1.20126,0.20257 -1.20126,-0.0322 z"
         id="path4212-5"
         inkscape:connector-curvature="0"
         inkscape:export-filename="C:\Users\PRODING\Desktop\share\img\sigmaicon.png"
         inkscape:export-xdpi="43.235409"
         inkscape:export-ydpi="43.235409" />
      <path
         style="font-size:34.35300827px;line-height:6.61458302px;font-family:Montserrat;-inkscape-font-specification:Montserrat;letter-spacing:0px;word-spacing:0px;fill:#005e8c;fill-opacity:1;fill-rule:nonzero;stroke:none;stroke-width:0.25054276"
         d="m 31.681054,261.21642 c -1.33035,-1.32786 -2.41879,-2.4567 -2.41879,-2.50853 0,-0.12204 1.88811,-1.49689 3.00887,-2.19129 1.4705,-0.91113 4.01114,-2.08703 5.061,-2.34272 0.2808,-0.068 0.28731,-0.0597 0.28731,0.39459 0,1.10708 -0.44941,3.26476 -0.89964,4.3187 -0.0799,0.18682 -0.22083,0.51587 -0.31348,0.73132 -0.39454,0.91689 -0.94456,1.92351 -1.60291,2.93321 l -0.70346,1.07884 z"
         id="path4214-0"
         inkscape:connector-curvature="0"
         inkscape:export-filename="C:\Users\PRODING\Desktop\share\img\sigmaicon.png"
         inkscape:export-xdpi="43.235409"
         inkscape:export-ydpi="43.235409" />
      <path
         style="font-size:34.35300827px;line-height:6.61458302px;font-family:Montserrat;-inkscape-font-specification:Montserrat;letter-spacing:0px;word-spacing:0px;fill:#005e8c;fill-opacity:1;fill-rule:nonzero;stroke:none;stroke-width:0.25054276"
         d="m 19.711584,271.80249 c 0.36757,-1.55713 2.6945,-5.9836 3.72776,-7.09139 0.10716,-0.11489 0.32116,-0.40861 0.47563,-0.65284 0.1544,-0.24408 0.3046,-0.44382 0.33377,-0.4439 0.0939,-6.9e-4 4.95363,4.9001 4.90429,4.94487 -0.0458,0.0415 -1.38106,0.91371 -1.82462,1.19209 -0.11426,0.0712 -0.77176,0.40871 -1.46125,0.7495 -1.95793,0.967 -3.3976,1.38574 -5.2549,1.52836 l -0.97179,0.0748 0.071,-0.30135 z"
         id="path4216-3"
         inkscape:connector-curvature="0"
         inkscape:export-filename="C:\Users\PRODING\Desktop\share\img\sigmaicon.png"
         inkscape:export-xdpi="43.235409"
         inkscape:export-ydpi="43.235409" />
      <path
         style="font-size:34.35300827px;line-height:6.61458302px;font-family:Montserrat;-inkscape-font-specification:Montserrat;letter-spacing:0px;word-spacing:0px;fill:#0096b9;fill-opacity:1;fill-rule:nonzero;stroke:none;stroke-width:0.25054276"
         d="m 35.330144,264.86271 -1.16321,-1.16313 0.23053,-0.3822 c 0.12669,-0.21008 0.37465,-0.59382 0.55092,-0.85222 0.17622,-0.25876 0.38454,-0.58767 0.46297,-0.73133 1.45891,-2.67101 2.2081,-4.99383 2.2081,-6.84662 v -0.76464 l 0.54846,-0.14853 c 2.34638,-0.63587 4.82066,-0.44014 6.18954,0.48992 0.47005,0.31924 1.30578,1.13386 1.30578,1.27258 0,0.0662 0.0668,0.17716 0.14907,0.24515 0.18385,0.15246 0.44725,0.88254 0.64323,1.78214 0.15494,0.71143 0.19985,2.47783 0.0675,2.6732 -0.0429,0.0627 -0.42939,0.2423 -0.86033,0.39959 -2.48892,0.90813 -4.54337,1.96281 -6.73797,3.45914 -0.57455,0.39175 -1.23265,0.8622 -1.46254,1.04524 -0.22984,0.18324 -0.54196,0.41229 -0.69354,0.50896 l -0.27583,0.17573 -1.16328,-1.16331 v 0 z"
         id="path4218-6"
         inkscape:connector-curvature="0"
         inkscape:export-filename="C:\Users\PRODING\Desktop\share\img\sigmaicon.png"
         inkscape:export-xdpi="43.235409"
         inkscape:export-ydpi="43.235409" />
      <path
         style="font-size:34.35300827px;line-height:6.61458302px;font-family:Montserrat;-inkscape-font-specification:Montserrat;letter-spacing:0px;word-spacing:0px;fill:#0096b9;fill-opacity:1;fill-rule:nonzero;stroke:none;stroke-width:0.25054276"
         d="m 23.166254,280.90479 c -1.3021,-0.28453 -2.62243,-1.20801 -3.23477,-2.26233 -0.14543,-0.25054 -0.37261,-0.78451 -0.50481,-1.1866 -0.38812,-1.18017 -0.31629,-3.75885 0.13855,-4.97849 0.0951,-0.25446 0.16603,-0.28345 0.85229,-0.34787 0.88246,-0.0834 2.66236,-0.42443 3.25583,-0.62471 1.51972,-0.51257 3.78054,-1.66025 4.97625,-2.52574 0.26608,-0.19291 0.52546,-0.35039 0.57617,-0.35039 0.0505,0 0.60584,0.51513 1.2335,1.14473 1.0883,1.09173 1.135,1.15633 1.00671,1.39598 -0.0737,0.13814 -0.24282,0.36827 -0.37538,0.51108 -0.68059,0.73415 -2.1926,3.06029 -3.10886,4.78313 -0.62897,1.18246 -1.74901,3.86142 -1.74901,4.18299 0,0.10843 -0.091,0.24588 -0.20205,0.30528 -0.27535,0.14709 -2.11305,0.11704 -2.86442,-0.0483 v 0 z"
         id="path4220-1"
         inkscape:connector-curvature="0"
         inkscape:export-filename="C:\Users\PRODING\Desktop\share\img\sigmaicon.png"
         inkscape:export-xdpi="43.235409"
         inkscape:export-ydpi="43.235409" />
      <path
         style="font-size:34.35300827px;line-height:6.61458302px;font-family:Montserrat;-inkscape-font-specification:Montserrat;letter-spacing:0px;word-spacing:0px;fill:#005281;fill-opacity:1;fill-rule:nonzero;stroke:none;stroke-width:0.25054276"
         d="m 26.235334,280.88679 c 0.009,-0.34108 0.90047,-2.5785 1.50729,-3.78669 0.77913,-1.55165 2.45504,-4.27796 2.69234,-4.38004 0.0449,-0.0179 0.0812,-0.10128 0.0812,-0.18288 0,-0.0813 0.0353,-0.14818 0.0782,-0.14853 0.0437,-7.4e-4 0.19204,-0.1675 0.33092,-0.37156 0.13891,-0.20365 0.37394,-0.50965 0.52238,-0.67936 l 0.26976,-0.30887 2.45182,2.45388 c 2.34597,2.34794 2.44297,2.46083 2.24602,2.61468 -2.59228,2.02287 -5.14784,3.44042 -7.72738,4.28602 -1.35485,0.44411 -2.45721,0.67041 -2.45231,0.50338 z"
         id="path4222-0"
         inkscape:connector-curvature="0"
         inkscape:export-filename="C:\Users\PRODING\Desktop\share\img\sigmaicon.png"
         inkscape:export-xdpi="43.235409"
         inkscape:export-ydpi="43.235409" />
      <path
         style="font-size:34.35300827px;line-height:6.61458302px;font-family:Montserrat;-inkscape-font-specification:Montserrat;letter-spacing:0px;word-spacing:0px;fill:#005281;fill-opacity:1;fill-rule:nonzero;stroke:none;stroke-width:0.25054276"
         d="m 39.052464,268.5869 -2.47205,-2.46508 0.54437,-0.43019 c 2.45873,-1.94367 5.56971,-3.70923 8.1778,-4.6412 0.55601,-0.19863 1.05554,-0.36125 1.11002,-0.36125 0.13933,0 0.0107,0.81216 -0.305,1.9323 -0.72051,2.5537 -2.33549,5.54646 -4.47246,8.28853 -0.0871,0.11165 -0.64058,-0.38635 -2.58269,-2.32311 z"
         id="path4224-6"
         inkscape:connector-curvature="0"
         inkscape:export-filename="C:\Users\PRODING\Desktop\share\img\sigmaicon.png"
         inkscape:export-xdpi="43.235409"
         inkscape:export-ydpi="43.235409" />
      <path
         style="font-size:34.35300827px;line-height:6.61458302px;font-family:Montserrat;-inkscape-font-specification:Montserrat;letter-spacing:0px;word-spacing:0px;fill:#008cb0;fill-opacity:1;fill-rule:nonzero;stroke:none;stroke-width:0.25054276"
         d="m 42.868804,272.4107 c -0.70384,-0.70774 -1.27968,-1.32532 -1.27968,-1.37268 0,-0.0483 0.0717,-0.1453 0.1599,-0.21831 0.2238,-0.18575 1.90857,-2.61347 2.13681,-3.07916 0.0556,-0.11488 0.21688,-0.39695 0.35693,-0.62668 0.98144,-1.6111 1.91706,-4.01624 2.26187,-5.81463 0.11832,-0.61666 0.1642,-0.70254 0.40343,-0.75341 3.02847,-0.64636 5.4708,-0.66339 6.98196,-0.0494 1.18558,0.48244 1.74322,0.83737 2.44283,1.55542 0.26635,0.27308 0.62876,0.7067 0.80532,0.96342 0.39055,0.56759 0.94184,1.9252 1.02335,2.51998 l 0.0593,0.43567 -0.55954,0.13493 c -0.76097,0.1836 -1.82932,0.50803 -2.33546,0.70934 -0.22981,0.092 -0.5119,0.20294 -0.62675,0.24839 -1.13585,0.44873 -2.91542,1.32854 -4.05048,2.00236 -0.56155,0.33356 -1.06302,0.60613 -1.11435,0.60613 -0.0508,0 -0.10894,0.0358 -0.12805,0.0787 -0.0347,0.0787 -0.8346,0.6334 -1.1318,0.7854 -0.0863,0.0444 -0.32748,0.20865 -0.53624,0.3657 -0.20872,0.15711 -0.70241,0.51741 -1.09689,0.801 -0.39447,0.28381 -1.11686,0.84829 -1.60521,1.2549 l -0.88796,0.73908 -1.27975,-1.28681 v 0 z"
         id="path4226-3"
         inkscape:connector-curvature="0"
         inkscape:export-filename="C:\Users\PRODING\Desktop\share\img\sigmaicon.png"
         inkscape:export-xdpi="43.235409"
         inkscape:export-ydpi="43.235409" />
      <path
         style="font-size:34.35300827px;line-height:6.61458302px;font-family:Montserrat;-inkscape-font-specification:Montserrat;letter-spacing:0px;word-spacing:0px;fill:#008cb0;fill-opacity:1;fill-rule:nonzero;stroke:none;stroke-width:0.25054276"
         d="m 30.609814,292.5047 c -0.47155,-0.13207 -2.08055,-0.85906 -2.18328,-0.9879 -0.0285,-0.0179 -0.24993,-0.22153 -0.49154,-0.40964 -0.84454,-0.65717 -1.78853,-2.23242 -2.10866,-3.5177 -0.22254,-0.89363 -0.32152,-2.40159 -0.21961,-3.34589 0.23692,-2.19839 0.49531,-3.15611 0.8698,-3.22704 1.76581,-0.33463 3.15265,-0.81172 5.03174,-1.72957 1.23118,-0.6017 3.80762,-2.21481 4.88604,-3.05909 l 0.28965,-0.22654 1.25125,1.24794 c 0.68823,0.68645 1.25125,1.28729 1.25125,1.33556 0,0.0737 -0.76431,1.05952 -0.94689,1.22146 -0.16746,0.14853 -1.72259,2.28227 -2.3604,3.23814 -1.74329,2.614 -3.17552,5.52971 -3.95106,8.04379 -0.32497,1.05386 -0.36762,1.21577 -0.36762,1.39136 0,0.20901 -0.25879,0.21474 -0.95066,0.0107 z"
         id="path4228-2"
         inkscape:connector-curvature="0"
         inkscape:export-filename="C:\Users\PRODING\Desktop\share\img\sigmaicon.png"
         inkscape:export-xdpi="43.235409"
         inkscape:export-ydpi="43.235409" />
      <path
         style="font-size:34.35300827px;line-height:6.61458302px;font-family:Montserrat;-inkscape-font-specification:Montserrat;letter-spacing:0px;word-spacing:0px;fill:#004976;fill-opacity:1;fill-rule:nonzero;stroke:none;stroke-width:0.25054276"
         d="m 48.248804,277.7995 c -2.169,-2.17841 -3.94353,-3.99985 -3.94353,-4.04784 0,-0.27951 5.14035,-4.07837 5.51896,-4.07837 0.0576,0 0.12032,-0.038 0.13958,-0.0834 0.0694,-0.16821 3.28569,-1.85354 4.42226,-2.3177 1.42503,-0.58208 2.79515,-1.02487 3.44613,-1.11398 l 0.44038,-0.0605 0.0682,0.76926 c 0.10433,1.16778 -0.11534,3.12365 -0.51197,4.55835 -0.53299,1.92788 -1.709,4.60787 -2.82983,6.44871 -0.58357,0.95859 -2.08355,3.08285 -2.51542,3.5624 l -0.29176,0.32353 -3.94347,-3.96026 z"
         id="path4230-0"
         inkscape:connector-curvature="0"
         inkscape:export-filename="C:\Users\PRODING\Desktop\share\img\sigmaicon.png"
         inkscape:export-xdpi="43.235409"
         inkscape:export-ydpi="43.235409" />
      <path
         style="font-size:34.35300827px;line-height:6.61458302px;font-family:Montserrat;-inkscape-font-specification:Montserrat;letter-spacing:0px;word-spacing:0px;fill:#004976;fill-opacity:1;fill-rule:nonzero;stroke:none;stroke-width:0.25054276"
         d="m 32.053224,292.77176 c -0.2174,-0.0179 -0.39571,-0.0977 -0.3963,-0.14352 -0.004,-0.52811 0.5984,-2.42091 1.34502,-4.20362 0.35844,-0.85527 1.51836,-3.06363 2.14014,-4.07512 1.32638,-2.15514 3.86453,-5.56714 4.15182,-5.58056 0.0879,0 1.93067,1.77226 4.09527,3.94766 l 3.93558,3.95533 -0.23013,0.19755 c -0.12645,0.10773 -0.48862,0.38474 -0.8046,0.61255 -0.31599,0.22582 -0.59808,0.44081 -0.62679,0.47488 -0.029,0.0144 -0.52231,0.36789 -1.09691,0.74271 -3.60645,2.35285 -6.62175,3.57617 -9.86756,4.00694 -1.21843,0.16212 -1.9377,0.17895 -2.64554,0.0577 v 0 z"
         id="path4232-6"
         inkscape:connector-curvature="0"
         inkscape:export-filename="C:\Users\PRODING\Desktop\share\img\sigmaicon.png"
         inkscape:export-xdpi="43.235409"
         inkscape:export-ydpi="43.235409" />
      <path
         style="font-size:34.35300827px;line-height:6.61458302px;font-family:Montserrat;-inkscape-font-specification:Montserrat;letter-spacing:0px;word-spacing:0px;fill:#0083a9;fill-opacity:1;fill-rule:nonzero;stroke:none;stroke-width:0.25054276"
         d="m 56.010204,285.54617 c -2.01366,-2.01543 -3.66112,-3.70494 -3.66112,-3.75459 0,-0.0494 0.066,-0.15604 0.14706,-0.23728 0.20561,-0.20543 1.65361,-2.24852 2.22016,-3.13227 0.77731,-1.21273 1.66558,-2.89345 2.19419,-4.15242 0.0844,-0.20113 0.19684,-0.45954 0.24977,-0.57439 0.18618,-0.40474 0.73296,-2.18638 0.87924,-2.86524 0.31234,-1.44977 0.40743,-2.29755 0.39578,-3.52865 -0.0136,-1.42474 -0.0744,-1.3187 0.83453,-1.447 l 0.49622,-0.0691 v 11.71207 c 0,6.4416 -0.0211,11.71241 -0.0487,11.71241 -0.0261,0 -1.6948,-1.65059 -3.70851,-3.66329 z"
         id="path4234-1"
         inkscape:connector-curvature="0"
         inkscape:export-filename="C:\Users\PRODING\Desktop\share\img\sigmaicon.png"
         inkscape:export-xdpi="43.235409"
         inkscape:export-ydpi="43.235409" />
      <path
         style="font-size:34.35300827px;line-height:6.61458302px;font-family:Montserrat;-inkscape-font-specification:Montserrat;letter-spacing:0px;word-spacing:0px;fill:#0083a9;fill-opacity:1;fill-rule:nonzero;stroke:none;stroke-width:0.25054276"
         d="m 31.422614,294.25947 c -0.063,-0.0576 -0.0195,-0.59655 0.0945,-1.15912 0.0483,-0.22942 0.0783,-0.23514 1.48972,-0.23514 2.63961,0 5.3085,-0.71511 8.36909,-2.2429 1.90486,-0.95025 2.64803,-1.41018 4.59491,-2.83815 l 1.44176,-1.05963 3.72195,3.72391 c 2.04711,2.04879 3.72201,3.75838 3.72201,3.80032 0,0.0938 -23.33822,0.10594 -23.43369,0 z"
         id="path4236-5"
         inkscape:connector-curvature="0"
         inkscape:export-filename="C:\Users\PRODING\Desktop\share\img\sigmaicon.png"
         inkscape:export-xdpi="43.235409"
         inkscape:export-ydpi="43.235409" />
      <path
         style="font-size:34.35300827px;line-height:6.61458302px;font-family:Montserrat;-inkscape-font-specification:Montserrat;letter-spacing:0px;word-spacing:0px;fill:#f47320;fill-opacity:1;fill-rule:nonzero;stroke:none;stroke-width:0.25054276"
         d="m 54.336454,291.73372 c -0.85798,-0.32067 -1.57315,-1.32654 -1.56802,-2.20493 0.002,-0.71804 0.62592,-1.71747 1.2846,-2.06534 0.44982,-0.238 1.67645,-0.23943 2.12459,0 0.50517,0.26663 1.02275,0.94341 1.17291,1.52739 0.29945,1.16975 -0.34326,2.3463 -1.50197,2.75426 -0.63194,0.22297 -0.90198,0.22046 -1.51211,0 z"
         id="path4238-5"
         inkscape:connector-curvature="0"
         inkscape:export-filename="C:\Users\PRODING\Desktop\share\img\sigmaicon.png"
         inkscape:export-xdpi="43.235409"
         inkscape:export-ydpi="43.235409" />
      <path
         style="font-size:34.35300827px;line-height:6.61458302px;font-family:Montserrat;-inkscape-font-specification:Montserrat;letter-spacing:0px;word-spacing:0px;fill:#f47320;fill-opacity:1;fill-rule:nonzero;stroke:none;stroke-width:0.25054276"
         d="m 49.364374,286.87038 c -0.6809,-0.31746 -1.12604,-0.86106 -1.30068,-1.58838 -0.12158,-0.50671 -0.11603,-0.6425 0.0486,-1.16019 0.18553,-0.58864 0.56829,-1.06975 1.13561,-1.42739 0.21094,-0.13279 0.50726,-0.18397 1.0636,-0.18397 0.64412,0 0.83984,0.0391 1.18786,0.26341 0.67149,0.423 1.16455,1.26105 1.16455,1.97628 0,0.90629 -0.68326,1.88457 -1.52719,2.1873 -0.68416,0.24517 -1.13725,0.22727 -1.77081,-0.0616 v 0 z"
         id="path4240-4"
         inkscape:connector-curvature="0"
         inkscape:export-filename="C:\Users\PRODING\Desktop\share\img\sigmaicon.png"
         inkscape:export-xdpi="43.235409"
         inkscape:export-ydpi="43.235409" />
      <path
         style="font-size:34.35300827px;line-height:6.61458302px;font-family:Montserrat;-inkscape-font-specification:Montserrat;letter-spacing:0px;word-spacing:0px;fill:#f47320;fill-opacity:1;fill-rule:nonzero;stroke:none;stroke-width:0.25054276"
         d="m 18.135134,255.66388 c -0.5714,-0.30207 -0.81241,-0.54171 -1.07754,-1.07286 -0.56569,-1.13264 -0.0611,-2.54762 1.10295,-3.09494 1.54015,-0.72385 3.28202,0.41 3.29336,2.14422 0.002,0.81504 -0.50405,1.61784 -1.28407,2.02444 -0.56947,0.29669 -1.47196,0.29634 -2.0347,0 v 0 z"
         id="path4242-7"
         inkscape:connector-curvature="0"
         inkscape:export-filename="C:\Users\PRODING\Desktop\share\img\sigmaicon.png"
         inkscape:export-xdpi="43.235409"
         inkscape:export-ydpi="43.235409" />
      <path
         style="font-size:34.35300827px;line-height:6.61458302px;font-family:Montserrat;-inkscape-font-specification:Montserrat;letter-spacing:0px;word-spacing:0px;fill:#0083a9;fill-opacity:1;fill-rule:nonzero;stroke:none;stroke-width:0.25054276"
         d="m 189.67493,289.75134 c -0.31047,-0.16285 -0.58572,-0.43743 -0.63611,-0.63484 -0.11342,-0.44422 -0.11475,-0.43549 0.0645,-0.43277 0.15786,0 0.1647,0.0107 0.30897,0.30565 0.11062,0.22762 0.19294,0.33463 0.32894,0.42875 0.16746,0.11597 0.21524,0.1267 0.6221,0.14173 0.41024,0.0143 0.45675,0.0107 0.67231,-0.0966 0.17061,-0.0834 0.25826,-0.15963 0.33281,-0.28954 0.16835,-0.29276 0.17348,-0.40725 0.0273,-0.60914 -0.16106,-0.22225 -0.34315,-0.31459 -0.89167,-0.45181 -0.72977,-0.18252 -1.22412,-0.39866 -1.30251,-0.56948 -0.0157,-0.0358 -0.051,-0.10558 -0.0777,-0.15747 -0.073,-0.14102 -0.0572,-0.51541 0.0301,-0.70707 0.1041,-0.22905 0.33889,-0.42529 0.60292,-0.50366 0.25629,-0.0766 0.98332,-0.087 1.23653,-0.0179 0.22952,0.0616 0.67307,0.51662 0.71337,0.73139 0.0368,0.19577 0.009,0.23443 -0.16839,0.23443 -0.13546,0 -0.15254,-0.0179 -0.24551,-0.22584 -0.17133,-0.3875 -0.4897,-0.5532 -1.00912,-0.52565 -0.55069,0.0286 -0.85478,0.28203 -0.81772,0.67972 0.0343,0.36938 0.28493,0.53141 1.1183,0.72335 0.82454,0.18968 1.0759,0.35181 1.22695,0.79087 0.0813,0.23586 0.0813,0.24051 -2.7e-4,0.51288 -0.0656,0.21866 -0.11868,0.30635 -0.26023,0.42961 -0.31362,0.27308 -0.48792,0.32747 -1.10522,0.34537 -0.5315,0.0144 -0.55473,0.0107 -0.77017,-0.10057 z"
         id="path5620-6"
         inkscape:connector-curvature="0" />
    </g>
  </g>
</svg>
