<?xml version="1.0" encoding="UTF-8" standalone="no"?>
<svg
   xmlns:dc="http://purl.org/dc/elements/1.1/"
   xmlns:cc="http://creativecommons.org/ns#"
   xmlns:rdf="http://www.w3.org/1999/02/22-rdf-syntax-ns#"
   xmlns:svg="http://www.w3.org/2000/svg"
   xmlns="http://www.w3.org/2000/svg"
   xmlns:sodipodi="http://sodipodi.sourceforge.net/DTD/sodipodi-0.dtd"
   xmlns:inkscape="http://www.inkscape.org/namespaces/inkscape"
   version="1.0"
   width="413.000000pt"
   height="413.000000pt"
   viewBox="0 0 413.000000 413.000000"
   preserveAspectRatio="xMidYMid meet"
   id="svg10"
   sodipodi:docname="white_icon.svg"
   inkscape:version="0.92.3 (2405546, 2018-03-11)">
  <defs
     id="defs14" />
  <sodipodi:namedview
     pagecolor="#ffffff"
     bordercolor="#666666"
     borderopacity="1"
     objecttolerance="10"
     gridtolerance="10"
     guidetolerance="10"
     inkscape:pageopacity="0"
     inkscape:pageshadow="2"
     inkscape:window-width="1920"
     inkscape:window-height="990"
     id="namedview12"
     showgrid="false"
     inkscape:zoom="0.42857143"
     inkscape:cx="-191.33334"
     inkscape:cy="248.84308"
     inkscape:window-x="0"
     inkscape:window-y="0"
     inkscape:window-maximized="1"
     inkscape:current-layer="svg10" />
  <metadata
     id="metadata2">
Created by potrace 1.11, written by Peter Selinger 2001-2013
<rdf:RDF>
  <cc:Work
     rdf:about="">
    <dc:format>image/svg+xml</dc:format>
    <dc:type
       rdf:resource="http://purl.org/dc/dcmitype/StillImage" />
    <dc:title />
  </cc:Work>
</rdf:RDF>
</metadata>
  <path
     style="font-size:34.35300827px;line-height:6.61458302px;font-family:Montserrat;-inkscape-font-specification:Montserrat;letter-spacing:0px;word-spacing:0px;fill:#7c7c7d;fill-opacity:1;fill-rule:nonzero;stroke:none;stroke-width:2.12540865"
     d="m 390.31008,158.31133 c -0.18525,-0.5616 -0.99189,-3.725 -1.79068,-7.02342 -0.80186,-3.296 -2.47567,-7.88203 -3.72685,-10.19074 -1.25056,-2.30743 -2.88673,-5.39092 -3.63603,-6.85368 -0.74875,-1.46342 -4.21162,-5.45038 -7.69523,-8.863 -11.2152,-10.98102 -24.79426,-16.19462 -44.28575,-17.00037 -10.23804,-0.42499 -21.64238,0.91983 -34.4481,4.0583 l -3.43127,0.84408 0.55745,-5.91317 c 0.51492,-5.5011 -0.75264,-16.580185 -2.70668,-23.636351 -1.47558,-5.327796 -6.90875,-13.943004 -11.26225,-17.856904 -8.63546,-7.764027 -17.12536,-10.867776 -31.56815,-11.543285 -9.28772,-0.425023 -13.92962,0 -26.71284,2.216326 l -4.11408,0.732101 -1.43364,-7.156361 C 210.97536,34.748174 202.84976,23.633293 190.04239,17.28023 l -6.20274,-3.078641 109.44493,0.182255 109.44603,0.181657 0.22774,71.559506 0.22775,71.560853 h -2.88678 c -1.58606,0 -4.40649,0.37665 -6.2661,0.81015 -2.39304,0.55566 -3.48091,0.48353 -3.72117,-0.24271 v 0 z"
     id="path4190-3"
     inkscape:connector-curvature="0"
     inkscape:export-filename="C:\Users\PRODING\Desktop\share\img\sigmaicon.png"
     inkscape:export-xdpi="43.235409"
     inkscape:export-ydpi="43.235409" />
  <path
     style="font-size:34.35300827px;line-height:6.61458302px;font-family:Montserrat;-inkscape-font-specification:Montserrat;letter-spacing:0px;word-spacing:0px;fill:#7c7c7d;fill-opacity:1;fill-rule:nonzero;stroke:none;stroke-width:2.12540865"
     d="m 17.69527,291.76326 0.01346,-108.78018 2.484724,4.81259 c 2.836549,5.49288 9.78041,14.10997 11.432815,14.18886 0.608247,0 1.108637,0.41568 1.108637,0.83475 0,1.47854 12.866452,6.9821 20.197802,8.63777 6.904143,1.56051 7.316697,1.78209 6.839611,3.69759 -1.714638,6.88768 -3.297538,18.45353 -3.358523,24.54815 -0.08587,8.71674 2.658562,22.12139 5.17555,25.25833 0.582967,0.72277 1.343724,2.23159 1.679576,3.33614 0.798102,2.60797 11.37427,13.18791 13.982417,13.98244 1.1055,0.34614 2.607795,1.08084 3.338179,1.65475 3.999803,3.13199 19.859932,6.21031 28.551782,5.53782 6.35288,-0.48948 6.95791,-0.40973 6.53702,0.98975 -3.05496,10.06382 -4.27401,19.29543 -4.29235,32.54589 -0.015,12.08975 0.26994,15.14717 1.94632,20.82407 1.07938,3.65094 2.2005,7.4403 2.48761,8.41952 0.2864,0.9775 1.23458,2.96623 2.10563,4.43747 0.86885,1.4513 2.25661,3.97854 3.07982,5.57881 3.00677,5.93478 13.08224,14.83232 21.65842,19.14281 4.43113,2.24365 8.75704,4.07593 9.60992,4.07593 0.85531,0 3.34191,0.60063 5.52827,1.35715 l 3.9693,1.35716 -0.8367,6.17179 -0.83502,6.17578 H 88.884515 17.669431 l 0.01346,-108.78268 z"
     id="path4192-1"
     inkscape:connector-curvature="0"
     inkscape:export-filename="C:\Users\PRODING\Desktop\share\img\sigmaicon.png"
     inkscape:export-xdpi="43.235409"
     inkscape:export-ydpi="43.235409" />
  <path
     style="font-size:34.35300827px;line-height:6.61458302px;font-family:Montserrat;-inkscape-font-specification:Montserrat;letter-spacing:0px;word-spacing:0px;fill:#14a0c1;fill-opacity:1;fill-rule:nonzero;stroke:none;stroke-width:2.12540865"
     d="m 129.60512,85.390361 -11.69678,-11.89762 3.87395,-5.54363 c 9.09494,-13.009435 17.30269,-32.414099 19.11431,-45.195849 0.48898,-3.447489 1.11299,-6.492044 1.38637,-6.764438 0.27623,-0.273233 9.76701,-0.494572 21.0976,-0.494572 h 20.60099 l 5.2461,2.638356 c 14.01273,7.050419 23.13891,20.922077 24.44276,37.150479 0.28222,3.451052 0.27324,3.456558 -4.14215,4.703433 -2.43161,0.692209 -5.67731,1.82177 -7.21331,2.52613 -1.53534,0.707502 -3.06072,1.278238 -3.38847,1.278238 -0.83451,0 -17.53986,8.172827 -23.9497,11.71779 -6.21875,3.43875 -22.44209,13.964641 -24.3702,15.810502 -2.42329,2.319665 -7.84593,6.14941 -8.58156,6.057714 -0.4121,0 -5.98769,-5.443195 -12.41988,-11.986892 v 0 z"
     id="path4198-9"
     inkscape:connector-curvature="0"
     inkscape:export-filename="C:\Users\PRODING\Desktop\share\img\sigmaicon.png"
     inkscape:export-xdpi="43.235409"
     inkscape:export-ydpi="43.235409" />
  <path
     style="font-size:34.35300827px;line-height:6.61458302px;font-family:Montserrat;-inkscape-font-specification:Montserrat;letter-spacing:0px;word-spacing:0px;fill:#14a0c1;fill-opacity:1;fill-rule:nonzero;stroke:none;stroke-width:2.12540865"
     d="M 50.02241,209.63926 C 37.311054,206.33743 27.31132,198.87959 21.977173,188.725 c -4.020076,-7.65618 -4.274523,-9.36802 -4.274227,-28.78082 1.8e-4,-10.2363 0.333985,-19.1306 0.734224,-19.76598 0.414575,-0.63457 3.48746,-1.53938 6.854805,-2.00986 8.300326,-1.16287 15.157929,-3.3435 26.947438,-8.57526 5.080301,-2.2528 18.359138,-9.95691 22.103919,-12.82543 l 2.163924,-1.65769 12.211434,12.18783 c 6.717839,6.70344 11.92111,12.40458 11.56788,12.66874 -1.233973,0.91696 -8.636659,11.17808 -15.005972,20.79382 -7.740104,11.68714 -17.081041,30.12304 -20.981986,41.41252 l -2.862479,8.28283 -3.490222,0.15173 c -1.920158,0.0906 -5.484399,-0.3614 -7.922071,-0.98364 z"
     id="path4200-4"
     inkscape:connector-curvature="0"
     inkscape:export-filename="C:\Users\PRODING\Desktop\share\img\sigmaicon.png"
     inkscape:export-xdpi="43.235409"
     inkscape:export-ydpi="43.235409" />
  <path
     style="font-size:34.35300827px;line-height:6.61458302px;font-family:Montserrat;-inkscape-font-specification:Montserrat;letter-spacing:0px;word-spacing:0px;fill:#3daac7;fill-opacity:1;fill-rule:nonzero;stroke:none;stroke-width:2.12540865"
     d="M 74.392807,30.107948 C 67.813192,23.509605 61.882122,17.422143 61.213256,16.580539 c -1.148619,-1.445141 1.015491,-1.52717 38.993354,-1.439095 22.11512,0 39.01253,0.391055 37.54943,0.743953 -9.80225,2.395499 -30.31349,12.247076 -43.004868,20.659199 L 86.35635,42.108307 74.392807,30.111689 Z"
     id="path4206-7"
     inkscape:connector-curvature="0"
     inkscape:export-filename="C:\Users\PRODING\Desktop\share\img\sigmaicon.png"
     inkscape:export-xdpi="43.235409"
     inkscape:export-ydpi="43.235409" />
  <path
     style="font-size:34.35300827px;line-height:6.61458302px;font-family:Montserrat;-inkscape-font-specification:Montserrat;letter-spacing:0px;word-spacing:0px;fill:#3daac7;fill-opacity:1;fill-rule:nonzero;stroke:none;stroke-width:2.12540865"
     d="m 17.743803,97.09609 c -0.01706,-22.379818 0.107826,-40.52417 0.329656,-40.320219 0.21311,0.181657 6.352938,6.280281 13.63606,13.509274 l 13.241275,13.138809 -5.613701,8.395334 C 32.378716,102.22769 23.904857,119.25935 20.436401,129.8117 l -2.622076,7.97678 -0.0331,-40.69239 v 0 z"
     id="path4208-8"
     inkscape:connector-curvature="0"
     inkscape:export-filename="C:\Users\PRODING\Desktop\share\img\sigmaicon.png"
     inkscape:export-xdpi="43.235409"
     inkscape:export-ydpi="43.235409" />
  <path
     style="font-size:34.35300827px;line-height:6.61458302px;font-family:Montserrat;-inkscape-font-specification:Montserrat;letter-spacing:0px;word-spacing:0px;fill:#056c97;fill-opacity:1;fill-rule:nonzero;stroke:none;stroke-width:2.12540865"
     d="M 102.37069,57.998566 C 94.294282,49.923119 87.689295,43.03637 87.694053,42.696521 87.712008,40.613817 118.97979,22.886616 126.93487,20.44464 c 1.56526,-0.476765 5.20105,-1.691138 8.07867,-2.693091 2.87993,-0.998811 5.37105,-1.815576 5.53885,-1.815576 1.60043,0 -1.51024,15.177819 -5.08806,24.813563 -3.36039,9.053398 -14.98391,29.81402 -17.59798,31.429235 -0.43672,0.273232 -7.42136,-6.103503 -15.49566,-14.179966 z"
     id="path4210-4"
     inkscape:connector-curvature="0"
     inkscape:export-filename="C:\Users\PRODING\Desktop\share\img\sigmaicon.png"
     inkscape:export-xdpi="43.235409"
     inkscape:export-ydpi="43.235409" />
  <path
     style="font-size:34.35300827px;line-height:6.61458302px;font-family:Montserrat;-inkscape-font-specification:Montserrat;letter-spacing:0px;word-spacing:0px;fill:#056c97;fill-opacity:1;fill-rule:nonzero;stroke:none;stroke-width:2.12540865"
     d="m 19.449666,136.61226 c 0,-4.48158 8.199352,-23.90052 14.84747,-35.15818 4.213944,-7.138798 9.207339,-14.830432 10.449883,-16.099781 0.766203,-0.786389 4.638352,2.598822 15.885613,13.860975 8.775523,8.784986 14.620891,15.299826 14.258191,15.887026 -0.731,1.17502 -7.707393,5.70829 -16.255737,10.55211 -7.825511,4.43505 -21.03115,9.5521 -28.994861,11.235 -8.363943,1.76707 -10.190559,1.71844 -10.190559,-0.27323 z"
     id="path4212-5"
     inkscape:connector-curvature="0"
     inkscape:export-filename="C:\Users\PRODING\Desktop\share\img\sigmaicon.png"
     inkscape:export-xdpi="43.235409"
     inkscape:export-ydpi="43.235409" />
  <path
     style="font-size:34.35300827px;line-height:6.61458302px;font-family:Montserrat;-inkscape-font-specification:Montserrat;letter-spacing:0px;word-spacing:0px;fill:#005e8c;fill-opacity:1;fill-rule:nonzero;stroke:none;stroke-width:2.12540865"
     d="m 164.03582,119.66256 c -11.28559,-11.26455 -20.51908,-20.840735 -20.51908,-21.280421 0,-1.035291 16.0172,-12.698434 25.52489,-18.589186 12.47458,-7.729311 34.02734,-17.704726 42.93353,-19.873798 2.38212,-0.576842 2.43737,-0.506453 2.43737,3.347383 0,9.391601 -3.81249,27.695674 -7.63191,36.636486 -0.67772,1.584836 -1.87327,4.376246 -2.6593,6.203936 -3.34693,7.77818 -8.01292,16.31756 -13.59779,24.88305 l -5.96762,9.15204 z"
     id="path4214-0"
     inkscape:connector-curvature="0"
     inkscape:export-filename="C:\Users\PRODING\Desktop\share\img\sigmaicon.png"
     inkscape:export-xdpi="43.235409"
     inkscape:export-ydpi="43.235409" />
  <path
     style="font-size:34.35300827px;line-height:6.61458302px;font-family:Montserrat;-inkscape-font-specification:Montserrat;letter-spacing:0px;word-spacing:0px;fill:#005e8c;fill-opacity:1;fill-rule:nonzero;stroke:none;stroke-width:2.12540865"
     d="m 62.496282,209.46646 c 3.118159,-13.20946 22.857965,-50.76015 31.623346,-60.1578 0.909062,-0.97463 2.724454,-3.46632 4.034867,-5.53815 1.309842,-2.07061 2.583975,-3.76505 2.831445,-3.7657 0.79642,-0.006 42.0227,41.56859 41.6042,41.94839 -0.38836,0.35206 -11.71587,7.75119 -15.4787,10.11274 -0.96924,0.60402 -6.54699,3.46718 -12.39609,6.35818 -16.609517,8.20327 -28.822567,11.75554 -44.578427,12.96542 l -8.243899,0.63454 0.602734,-2.55641 z"
     id="path4216-3"
     inkscape:connector-curvature="0"
     inkscape:export-filename="C:\Users\PRODING\Desktop\share\img\sigmaicon.png"
     inkscape:export-xdpi="43.235409"
     inkscape:export-ydpi="43.235409" />
  <path
     style="font-size:34.35300827px;line-height:6.61458302px;font-family:Montserrat;-inkscape-font-specification:Montserrat;letter-spacing:0px;word-spacing:0px;fill:#0096b9;fill-opacity:1;fill-rule:nonzero;stroke:none;stroke-width:2.12540865"
     d="m 194.99185,150.59483 -9.86777,-9.86711 1.95566,-3.24228 c 1.07474,-1.78215 3.17825,-5.03751 4.67357,-7.22956 1.49497,-2.19511 3.26215,-4.98534 3.92749,-6.20403 12.37624,-22.65877 18.73175,-42.363746 18.73175,-58.081356 v -6.486596 l 4.65274,-1.260013 c 19.90489,-5.394235 40.89472,-3.73383 52.50723,4.156069 3.98748,2.708205 11.0772,9.618806 11.0772,10.795592 0,0.561578 0.56687,1.502869 1.26456,2.07965 1.55964,1.293351 3.79414,7.486784 5.45669,15.118294 1.31433,6.035209 1.6954,21.01996 0.5723,22.67732 -0.36376,0.53189 -3.64268,2.0555 -7.29837,3.38982 -21.11412,7.70384 -38.54241,16.65094 -57.15969,29.34462 -4.87404,3.32332 -10.45682,7.31422 -12.40704,8.86701 -1.94976,1.55446 -4.59752,3.49753 -5.88342,4.31761 l -2.33992,1.49075 -9.8684,-9.8686 v 0 z"
     id="path4218-6"
     inkscape:connector-curvature="0"
     inkscape:export-filename="C:\Users\PRODING\Desktop\share\img\sigmaicon.png"
     inkscape:export-xdpi="43.235409"
     inkscape:export-ydpi="43.235409" />
  <path
     style="font-size:34.35300827px;line-height:6.61458302px;font-family:Montserrat;-inkscape-font-specification:Montserrat;letter-spacing:0px;word-spacing:0px;fill:#0096b9;fill-opacity:1;fill-rule:nonzero;stroke:none;stroke-width:2.12540865"
     d="m 91.802957,286.68326 c -11.045964,-2.41372 -22.246601,-10.2478 -27.441256,-19.19184 -1.233722,-2.12538 -3.160907,-6.65519 -4.282379,-10.06619 -3.292524,-10.01163 -2.683165,-31.88712 1.17528,-42.23359 0.807177,-2.15867 1.408538,-2.40457 7.230179,-2.95107 7.486092,-0.7075 22.585415,-3.60054 27.619955,-5.29954 12.892064,-4.34827 32.071104,-14.08427 42.214564,-21.42642 2.25721,-1.63649 4.45761,-2.97242 4.88776,-2.97242 0.42806,0 5.13955,4.36996 10.46406,9.71098 9.23226,9.26139 9.62844,9.80941 8.54011,11.8424 -0.62478,1.17188 -2.05984,3.12414 -3.18436,4.33561 -5.77365,6.22797 -18.60029,25.9611 -26.37315,40.57633 -5.33564,10.03104 -14.83719,32.75724 -14.83719,35.48522 0,0.91981 -0.77197,2.08586 -1.7141,2.58973 -2.33585,1.2478 -17.925458,0.99288 -24.299473,-0.40973 v 0 z"
     id="path4220-1"
     inkscape:connector-curvature="0"
     inkscape:export-filename="C:\Users\PRODING\Desktop\share\img\sigmaicon.png"
     inkscape:export-xdpi="43.235409"
     inkscape:export-ydpi="43.235409" />
  <path
     style="font-size:34.35300827px;line-height:6.61458302px;font-family:Montserrat;-inkscape-font-specification:Montserrat;letter-spacing:0px;word-spacing:0px;fill:#005281;fill-opacity:1;fill-rule:nonzero;stroke:none;stroke-width:2.12540865"
     d="m 117.83864,286.53058 c 0.0799,-2.89348 7.63887,-21.874 12.78663,-32.12333 6.60954,-13.16299 20.82664,-36.29086 22.8397,-37.15682 0.38116,-0.15173 0.68874,-0.85918 0.68874,-1.55141 0,-0.6897 0.29963,-1.25706 0.66316,-1.26002 0.37061,-0.006 1.62913,-1.42093 2.80726,-3.15202 1.1784,-1.72762 3.17222,-4.32348 4.43151,-5.76317 l 2.28836,-2.62019 20.79936,20.81679 c 19.90139,19.91809 20.72423,20.87575 19.05347,22.1809 -21.99086,17.16041 -43.67024,29.18582 -65.55303,36.35921 -11.49352,3.7675 -20.84502,5.68724 -20.80351,4.2703 z"
     id="path4222-0"
     inkscape:connector-curvature="0"
     inkscape:export-filename="C:\Users\PRODING\Desktop\share\img\sigmaicon.png"
     inkscape:export-xdpi="43.235409"
     inkscape:export-ydpi="43.235409" />
  <path
     style="font-size:34.35300827px;line-height:6.61458302px;font-family:Montserrat;-inkscape-font-specification:Montserrat;letter-spacing:0px;word-spacing:0px;fill:#005281;fill-opacity:1;fill-rule:nonzero;stroke:none;stroke-width:2.12540865"
     d="m 226.56916,182.18791 -20.971,-20.91178 4.61805,-3.6494 c 20.85788,-16.48859 47.24904,-31.4662 69.37405,-39.37232 4.71675,-1.68501 8.95437,-3.06454 9.41647,-3.06454 1.18196,0 0.091,6.88971 -2.58739,16.3921 -6.11221,21.66361 -19.81242,47.05182 -37.94079,70.31341 -0.73934,0.94716 -5.43418,-3.27751 -21.9095,-19.70747 z"
     id="path4224-6"
     inkscape:connector-curvature="0"
     inkscape:export-filename="C:\Users\PRODING\Desktop\share\img\sigmaicon.png"
     inkscape:export-xdpi="43.235409"
     inkscape:export-ydpi="43.235409" />
  <path
     style="font-size:34.35300827px;line-height:6.61458302px;font-family:Montserrat;-inkscape-font-specification:Montserrat;letter-spacing:0px;word-spacing:0px;fill:#008cb0;fill-opacity:1;fill-rule:nonzero;stroke:none;stroke-width:2.12540865"
     d="m 258.94399,214.62605 c -5.97089,-6.00391 -10.85589,-11.24298 -10.85589,-11.64475 0,-0.40972 0.60844,-1.23259 1.35656,-1.85196 1.89846,-1.57577 16.19075,-22.17063 18.12693,-26.12119 0.47186,-0.97454 1.83987,-3.36741 3.02794,-5.31625 8.32579,-13.66731 16.26288,-34.07064 19.18793,-49.32677 1.00375,-5.23125 1.39298,-5.95979 3.42235,-6.39134 25.69124,-5.48321 46.41008,-5.62767 59.22954,-0.41907 10.05754,4.09266 14.78814,7.1036 20.72306,13.19496 2.25949,2.3166 5.3339,5.9951 6.83172,8.17291 3.31309,4.81497 7.98985,16.33188 8.68125,21.37753 l 0.5034,3.69589 -4.74664,1.14465 c -6.45548,1.55751 -15.51857,4.3097 -19.81227,6.01745 -1.9495,0.78046 -4.34252,1.72161 -5.31687,2.10716 -9.63567,3.80667 -24.73211,11.27029 -34.36109,16.98645 -4.76373,2.82968 -9.01778,5.14195 -9.45328,5.14195 -0.43077,0 -0.92421,0.3037 -1.08628,0.66761 -0.29449,0.66764 -7.08005,5.37328 -9.6013,6.66272 -0.73169,0.37665 -2.77803,1.77002 -4.54901,3.10231 -1.77066,1.33283 -5.95872,4.38931 -9.30518,6.79508 -3.34636,2.40761 -9.47458,7.19623 -13.6173,10.64556 l -7.53279,6.26978 -10.8564,-10.91628 v 0 z"
     id="path4226-3"
     inkscape:connector-curvature="0"
     inkscape:export-filename="C:\Users\PRODING\Desktop\share\img\sigmaicon.png"
     inkscape:export-xdpi="43.235409"
     inkscape:export-ydpi="43.235409" />
  <path
     style="font-size:34.35300827px;line-height:6.61458302px;font-family:Montserrat;-inkscape-font-specification:Montserrat;letter-spacing:0px;word-spacing:0px;fill:#008cb0;fill-opacity:1;fill-rule:nonzero;stroke:none;stroke-width:2.12540865"
     d="m 154.9483,385.08783 c -4.00027,-1.1204 -17.64972,-7.28759 -18.52128,-8.38057 -0.24181,-0.15173 -2.1202,-1.87929 -4.16983,-3.47506 -7.16439,-5.57494 -15.17249,-18.93814 -17.88821,-29.84144 -1.88785,-7.58084 -2.72754,-20.37318 -1.86298,-28.3839 2.00986,-18.64943 4.2018,-26.77398 7.37871,-27.37569 14.97977,-2.83875 26.74457,-6.886 42.68534,-14.67232 10.44435,-5.10437 32.3009,-18.78872 41.44934,-25.95091 l 2.45712,-1.92181 10.61465,10.58658 c 5.83838,5.82327 10.61462,10.92036 10.61462,11.32982 0,0.62523 -6.48384,8.98815 -8.03265,10.36192 -1.42057,1.26001 -14.61312,19.361 -20.02385,27.46984 -14.78868,22.17515 -26.93861,46.90973 -33.51763,68.23723 -2.75683,8.94009 -3.11864,10.31365 -3.11864,11.80321 0,1.77307 -2.19535,1.82167 -8.06465,0.091 z"
     id="path4228-2"
     inkscape:connector-curvature="0"
     inkscape:export-filename="C:\Users\PRODING\Desktop\share\img\sigmaicon.png"
     inkscape:export-xdpi="43.235409"
     inkscape:export-ydpi="43.235409" />
  <path
     style="font-size:34.35300827px;line-height:6.61458302px;font-family:Montserrat;-inkscape-font-specification:Montserrat;letter-spacing:0px;word-spacing:0px;fill:#004976;fill-opacity:1;fill-rule:nonzero;stroke:none;stroke-width:2.12540865"
     d="m 304.58366,260.34041 c -18.40008,-18.47993 -33.45379,-33.93161 -33.45379,-34.3387 0,-2.37114 43.60664,-34.59772 46.81849,-34.59772 0.48879,0 1.02074,-0.32234 1.18405,-0.70747 0.58876,-1.42697 27.87326,-15.72398 37.51508,-19.66155 12.08879,-4.93791 23.71183,-8.69422 29.23421,-9.45015 l 3.7359,-0.51324 0.5784,6.5258 c 0.88502,9.90652 -0.97852,26.49859 -4.3432,38.66948 -4.52145,16.35463 -14.49785,39.08956 -24.00605,54.70582 -4.95057,8.13191 -17.67519,26.15246 -21.33887,30.22057 l -2.47501,2.74459 -33.45341,-33.59576 z"
     id="path4230-0"
     inkscape:connector-curvature="0"
     inkscape:export-filename="C:\Users\PRODING\Desktop\share\img\sigmaicon.png"
     inkscape:export-xdpi="43.235409"
     inkscape:export-ydpi="43.235409" />
  <path
     style="font-size:34.35300827px;line-height:6.61458302px;font-family:Montserrat;-inkscape-font-specification:Montserrat;letter-spacing:0px;word-spacing:0px;fill:#004976;fill-opacity:1;fill-rule:nonzero;stroke:none;stroke-width:2.12540865"
     d="m 167.19305,387.35336 c -1.84425,-0.15203 -3.35685,-0.82883 -3.36193,-1.21751 -0.0323,-4.4801 5.07635,-20.53713 11.41014,-35.66025 3.04075,-7.25542 12.88057,-25.98942 18.15527,-34.57012 11.25198,-18.28253 32.78364,-47.22726 35.2208,-47.3411 0.74601,0 16.37827,15.03447 34.74106,33.48883 l 33.3863,33.55396 -1.95222,1.67587 c -1.07267,0.91388 -4.14509,3.26381 -6.82558,5.19639 -2.68058,1.91568 -5.07366,3.73948 -5.31717,4.02849 -0.246,0.1221 -4.43092,3.1209 -9.30532,6.30058 -30.59433,19.95975 -56.17372,30.33743 -83.70869,33.99174 -10.33621,1.3753 -16.43786,1.51808 -22.44266,0.48949 v 0 z"
     id="path4232-6"
     inkscape:connector-curvature="0"
     inkscape:export-filename="C:\Users\PRODING\Desktop\share\img\sigmaicon.png"
     inkscape:export-xdpi="43.235409"
     inkscape:export-ydpi="43.235409" />
  <path
     style="font-size:34.35300827px;line-height:6.61458302px;font-family:Montserrat;-inkscape-font-specification:Montserrat;letter-spacing:0px;word-spacing:0px;fill:#0083a9;fill-opacity:1;fill-rule:nonzero;stroke:none;stroke-width:2.12540865"
     d="m 370.42526,326.0571 c -17.08227,-17.09732 -31.05805,-31.42983 -31.05805,-31.85102 0,-0.41907 0.55991,-1.3237 1.24757,-2.01289 1.74423,-1.74269 14.02794,-19.07468 18.83411,-26.57174 6.59409,-10.28785 14.12944,-24.54574 18.61372,-35.22587 0.71559,-1.70623 1.6699,-3.89838 2.11891,-4.87267 1.5794,-3.43349 6.21786,-18.54753 7.45878,-24.30645 2.64961,-12.29871 3.45632,-19.49061 3.35753,-29.9343 -0.11552,-12.08637 -0.63125,-11.18682 7.07945,-12.2752 l 4.20949,-0.58621 v 99.35603 c 0,54.64548 -0.17926,99.35894 -0.4132,99.35894 -0.22176,0 -14.37731,-14.00232 -31.46007,-31.07649 z"
     id="path4234-1"
     inkscape:connector-curvature="0"
     inkscape:export-filename="C:\Users\PRODING\Desktop\share\img\sigmaicon.png"
     inkscape:export-xdpi="43.235409"
     inkscape:export-ydpi="43.235409" />
  <path
     style="font-size:34.35300827px;line-height:6.61458302px;font-family:Montserrat;-inkscape-font-specification:Montserrat;letter-spacing:0px;word-spacing:0px;fill:#0083a9;fill-opacity:1;fill-rule:nonzero;stroke:none;stroke-width:2.12540865"
     d="m 161.84346,399.97392 c -0.5341,-0.48864 -0.16549,-5.06067 0.80207,-9.83308 0.40991,-1.94621 0.6639,-1.99475 12.63763,-1.99475 22.39235,0 45.03317,-6.06642 70.99679,-19.02698 16.15935,-8.06118 22.46378,-11.96287 38.97964,-24.07665 l 12.23076,-8.98908 31.57405,31.59075 c 17.36614,17.38032 31.57471,31.88316 31.57471,32.23893 0,0.79573 -197.98325,0.89871 -198.7931,0 z"
     id="path4236-5"
     inkscape:connector-curvature="0"
     inkscape:export-filename="C:\Users\PRODING\Desktop\share\img\sigmaicon.png"
     inkscape:export-xdpi="43.235409"
     inkscape:export-ydpi="43.235409" />
  <path
     style="font-size:34.35300827px;line-height:6.61458302px;font-family:Montserrat;-inkscape-font-specification:Montserrat;letter-spacing:0px;word-spacing:0px;fill:#f47320;fill-opacity:1;fill-rule:nonzero;stroke:none;stroke-width:2.12540865"
     d="m 356.22657,378.54743 c -7.27847,-2.7203 -13.34545,-11.25333 -13.30188,-18.70492 0.0179,-6.09126 5.30981,-14.56964 10.89755,-17.52071 3.81586,-2.01898 14.22166,-2.03114 18.02336,0 4.28544,2.26189 8.67614,8.00315 9.95001,12.95719 2.54031,9.92325 -2.91192,19.90417 -12.74153,23.36499 -5.36093,1.89149 -7.65169,1.87018 -12.82751,0 z"
     id="path4238-5"
     inkscape:connector-curvature="0"
     inkscape:export-filename="C:\Users\PRODING\Desktop\share\img\sigmaicon.png"
     inkscape:export-xdpi="43.235409"
     inkscape:export-ydpi="43.235409" />
  <path
     style="font-size:34.35300827px;line-height:6.61458302px;font-family:Montserrat;-inkscape-font-specification:Montserrat;letter-spacing:0px;word-spacing:0px;fill:#f47320;fill-opacity:1;fill-rule:nonzero;stroke:none;stroke-width:2.12540865"
     d="m 314.04723,337.29068 c -5.77619,-2.6931 -9.55243,-7.30456 -11.0339,-13.47459 -1.03137,-4.29852 -0.98433,-5.45047 0.41228,-9.84215 1.57394,-4.99358 4.82094,-9.07495 9.63361,-12.10888 1.78948,-1.12648 4.30325,-1.56065 9.02281,-1.56065 5.46421,0 7.12453,0.33171 10.07684,2.23457 5.69638,3.58839 9.87911,10.69777 9.87911,16.76521 0,7.68828 -5.79618,15.98725 -12.9555,18.55534 -5.80382,2.07986 -9.64751,1.92801 -15.02217,-0.52255 v 0 z"
     id="path4240-4"
     inkscape:connector-curvature="0"
     inkscape:export-filename="C:\Users\PRODING\Desktop\share\img\sigmaicon.png"
     inkscape:export-xdpi="43.235409"
     inkscape:export-ydpi="43.235409" />
  <path
     style="font-size:34.35300827px;line-height:6.61458302px;font-family:Montserrat;-inkscape-font-specification:Montserrat;letter-spacing:0px;word-spacing:0px;fill:#f47320;fill-opacity:1;fill-rule:nonzero;stroke:none;stroke-width:2.12540865"
     d="m 49.122882,72.559142 c -4.847302,-2.562521 -6.891815,-4.595426 -9.140972,-9.10128 -4.798904,-9.608453 -0.517984,-21.612013 9.356563,-26.255053 13.065428,-6.140582 27.842091,3.478105 27.938272,18.189871 0.01945,6.914163 -4.275991,13.724478 -10.893078,17.173764 -4.830938,2.516882 -12.486905,2.513919 -17.260785,0 v 0 z"
     id="path4242-7"
     inkscape:connector-curvature="0"
     inkscape:export-filename="C:\Users\PRODING\Desktop\share\img\sigmaicon.png"
     inkscape:export-xdpi="43.235409"
     inkscape:export-ydpi="43.235409" />
</svg>
