<?xml version="1.0" encoding="UTF-8" standalone="no"?>
<!-- Created with Inkscape (http://www.inkscape.org/) -->

<svg
   xmlns:dc="http://purl.org/dc/elements/1.1/"
   xmlns:cc="http://creativecommons.org/ns#"
   xmlns:rdf="http://www.w3.org/1999/02/22-rdf-syntax-ns#"
   xmlns:svg="http://www.w3.org/2000/svg"
   xmlns="http://www.w3.org/2000/svg"
   xmlns:sodipodi="http://sodipodi.sourceforge.net/DTD/sodipodi-0.dtd"
   xmlns:inkscape="http://www.inkscape.org/namespaces/inkscape"
   width="75mm"
   height="75mm"
   viewBox="0 0 75 75"
   version="1.1"
   id="svg8"
   inkscape:version="0.92.3 (2405546, 2018-03-11)"
   sodipodi:docname="amp.svg">
  <defs
     id="defs2" />
  <sodipodi:namedview
     id="base"
     pagecolor="#ffffff"
     bordercolor="#666666"
     borderopacity="1.0"
     inkscape:pageopacity="0.0"
     inkscape:pageshadow="2"
     inkscape:zoom="1.4"
     inkscape:cx="31.734589"
     inkscape:cy="171.09856"
     inkscape:document-units="mm"
     inkscape:current-layer="layer1"
     showgrid="false"
     inkscape:window-width="1870"
     inkscape:window-height="1050"
     inkscape:window-x="50"
     inkscape:window-y="0"
     inkscape:window-maximized="1" />
  <metadata
     id="metadata5">
    <rdf:RDF>
      <cc:Work
         rdf:about="">
        <dc:format>image/svg+xml</dc:format>
        <dc:type
           rdf:resource="http://purl.org/dc/dcmitype/StillImage" />
        <dc:title></dc:title>
      </cc:Work>
    </rdf:RDF>
  </metadata>
  <g
     inkscape:label="Capa 1"
     inkscape:groupmode="layer"
     id="layer1"
     transform="translate(0,-222)">
    <path
       style="fill:#337ab7;fill-opacity:1;stroke:none;stroke-width:0.18257225px;stroke-linecap:butt;stroke-linejoin:miter;stroke-opacity:1"
       d="m 17.395272,234.25595 v 50.85942 l 45.068341,-26.02022 z"
       id="path815"
       inkscape:connector-curvature="0" />
    <rect
       style="fill:#337ab7;fill-opacity:1;stroke:none;stroke-width:0.32462305;stroke-miterlimit:4;stroke-dasharray:none;stroke-opacity:1"
       id="rect817"
       width="70.681541"
       height="4.9555326"
       x="2.2678547"
       y="256.42545"
       ry="0.26081726" />
    <g
       id="g879"
       transform="matrix(0.77013602,0,0,0.77013602,10.407189,68.42751)">
      <path
         inkscape:connector-curvature="0"
         id="path843"
         d="m 24.384657,252.70606 c -0.09847,-0.0364 -0.204177,-0.1058 -0.234918,-0.15415 -0.03075,-0.0484 -0.0564,-2.15664 -0.05701,-4.68507 -0.0011,-4.50022 0.0022,-4.60022 0.145398,-4.74365 0.184685,-0.18469 0.446322,-0.18722 0.669547,-0.007 l 0.172957,0.14003 0.01811,4.53037 c 0.01404,3.50478 -0.0028,4.57068 -0.07326,4.70841 -0.108005,0.21043 -0.390394,0.30321 -0.640833,0.21056 z"
         style="fill:#ffffff;fill-opacity:1;stroke:none;stroke-width:0.15505971;stroke-miterlimit:4;stroke-dasharray:none;stroke-opacity:1" />
      <path
         inkscape:connector-curvature="0"
         id="path845"
         d="m 28.157594,260.91271 c -2.396857,-0.24154 -4.798516,-1.21494 -6.737157,-2.73059 -0.760309,-0.59441 -2.008791,-1.89595 -2.560282,-2.66909 -1.157412,-1.62257 -1.960864,-3.56419 -2.292434,-5.53993 -0.154077,-0.91808 -0.171448,-3.1053 -0.0317,-3.99273 0.631313,-4.00931 2.999329,-7.46324 6.500868,-9.482 3.700045,-2.13321 8.412371,-2.26259 12.271675,-0.33693 3.597856,1.79521 6.106874,5.0126 6.978175,8.94836 0.734611,3.31829 0.124451,6.78229 -1.717873,9.75273 -1.847877,2.97939 -4.983245,5.15113 -8.436054,5.84332 -1.37521,0.27569 -2.639452,0.34147 -3.975203,0.20686 z m 2.600767,-1.04369 c 2.06918,-0.23218 3.759833,-0.84566 5.45536,-1.97957 4.952398,-3.31198 6.733981,-9.78693 4.178807,-15.18734 -1.354537,-2.86284 -4.001587,-5.22412 -6.969813,-6.21734 -3.700591,-1.2383 -7.635432,-0.6975 -10.769646,1.48016 -2.768917,1.92386 -4.545012,4.7634 -5.088877,8.13587 -0.119604,0.74165 -0.119604,2.82707 0,3.56872 0.820973,5.09082 4.580327,9.03242 9.575995,10.04023 1.284704,0.25918 2.321219,0.3048 3.618174,0.15927 z"
         style="fill:#ffffff;fill-opacity:1;stroke:none;stroke-width:0.15505971;stroke-miterlimit:4;stroke-dasharray:none;stroke-opacity:1" />
      <path
         inkscape:connector-curvature="0"
         id="path847"
         d="m 22.772901,250.03029 c -0.06044,-0.0218 -0.167587,-0.0899 -0.238099,-0.15136 -0.115794,-0.10088 -0.128206,-0.2915 -0.128206,-1.96849 0,-1.75912 0.0077,-1.86452 0.146523,-2.00333 0.177716,-0.17772 0.600316,-0.19508 0.764009,-0.0314 0.0986,0.0986 0.115125,0.38143 0.115125,1.96993 0,1.66116 -0.01337,1.87029 -0.128211,2.00309 -0.143225,0.16564 -0.365124,0.24149 -0.531141,0.18155 z"
         style="fill:#ffffff;fill-opacity:1;stroke:none;stroke-width:0.15505971;stroke-miterlimit:4;stroke-dasharray:none;stroke-opacity:1" />
      <path
         inkscape:connector-curvature="0"
         id="path849"
         d="m 20.916099,248.77684 c -0.09664,-0.10679 -0.121248,-0.29032 -0.121248,-0.90441 0,-0.87996 0.06993,-1.01293 0.532756,-1.01293 0.405414,0 0.492902,0.18205 0.492902,1.02566 0,0.85122 -0.086,1.02565 -0.505631,1.02565 -0.175833,0 -0.321966,-0.0491 -0.398779,-0.13397 z"
         style="fill:#ffffff;fill-opacity:1;stroke:none;stroke-width:0.15505971;stroke-miterlimit:4;stroke-dasharray:none;stroke-opacity:1" />
      <path
         inkscape:connector-curvature="0"
         id="path851"
         d="m 25.824592,250.97467 c -0.108624,-0.12002 -0.121248,-0.44305 -0.121248,-3.10224 0,-2.78256 0.0084,-2.97585 0.133978,-3.08951 0.181058,-0.16385 0.617146,-0.15665 0.770432,0.0128 0.108562,0.11995 0.121248,0.44015 0.121248,3.06066 0,3.30265 0.0078,3.25233 -0.505631,3.25233 -0.175827,0 -0.321966,-0.0491 -0.398779,-0.13397 z"
         style="fill:#ffffff;fill-opacity:1;stroke:none;stroke-width:0.15505971;stroke-miterlimit:4;stroke-dasharray:none;stroke-opacity:1" />
      <path
         inkscape:connector-curvature="0"
         id="path853"
         d="m 27.506353,248.79857 c -0.252283,-0.25228 -0.261442,-1.51262 -0.01298,-1.78716 0.170707,-0.18863 0.561023,-0.20151 0.718232,-0.0237 0.24006,0.27152 0.243737,1.57826 0.005,1.81688 -0.139676,0.13967 -0.56831,0.13604 -0.710371,-0.006 z"
         style="fill:#ffffff;fill-opacity:1;stroke:none;stroke-width:0.15505971;stroke-miterlimit:4;stroke-dasharray:none;stroke-opacity:1" />
      <path
         inkscape:connector-curvature="0"
         id="path855"
         d="m 29.103028,252.05335 c -0.133682,-0.14771 -0.139565,-0.32399 -0.139565,-4.18236 v -4.02813 l 0.172952,-0.14005 c 0.249498,-0.20203 0.554116,-0.18015 0.737497,0.053 0.149309,0.18981 0.151838,0.25827 0.151838,4.10743 0,3.90863 -0.01287,4.13057 -0.249064,4.28827 -0.164372,0.10976 -0.534288,0.0559 -0.673658,-0.0981 z"
         style="fill:#ffffff;fill-opacity:1;stroke:none;stroke-width:0.15505971;stroke-miterlimit:4;stroke-dasharray:none;stroke-opacity:1" />
      <path
         inkscape:connector-curvature="0"
         id="path857"
         d="m 30.79499,250.48051 c -0.140495,-0.10609 -0.147387,-0.20937 -0.167632,-2.51174 -0.02067,-2.34836 -0.01772,-2.40542 0.133526,-2.59768 0.188562,-0.23973 0.517848,-0.2623 0.730087,-0.0501 0.140602,0.1406 0.146523,0.24421 0.146523,2.56414 0,2.31993 -0.0059,2.42354 -0.146523,2.56414 -0.172646,0.17264 -0.489848,0.18687 -0.695981,0.0312 z"
         style="fill:#ffffff;fill-opacity:1;stroke:none;stroke-width:0.15505971;stroke-miterlimit:4;stroke-dasharray:none;stroke-opacity:1" />
      <path
         inkscape:connector-curvature="0"
         id="path859"
         d="m 32.589887,249.44759 c -0.265782,-0.0987 -0.293041,-0.24835 -0.293041,-1.60891 0,-1.29875 0.0045,-1.34045 0.162819,-1.45122 0.249804,-0.17497 0.536266,-0.14314 0.710995,0.079 0.139888,0.17784 0.151838,0.28963 0.151838,1.42047 0,1.06243 -0.01721,1.24782 -0.128206,1.37896 -0.137097,0.16202 -0.424606,0.24846 -0.604405,0.18171 z"
         style="fill:#ffffff;fill-opacity:1;stroke:none;stroke-width:0.15505971;stroke-miterlimit:4;stroke-dasharray:none;stroke-opacity:1" />
      <path
         inkscape:connector-curvature="0"
         id="path861"
         d="m 34.029833,248.77684 c -0.186373,-0.20594 -0.176317,-1.625 0.01276,-1.79609 0.181058,-0.16385 0.617146,-0.15665 0.770432,0.0127 0.186378,0.20595 0.176323,1.62501 -0.0127,1.79609 -0.181063,0.16386 -0.617151,0.15666 -0.770438,-0.0127 z"
         style="fill:#ffffff;fill-opacity:1;stroke:none;stroke-width:0.15505971;stroke-miterlimit:4;stroke-dasharray:none;stroke-opacity:1" />
      <path
         inkscape:connector-curvature="0"
         id="path863"
         d="m 35.70872,250.99353 c -0.100953,-0.10096 -0.115125,-0.4885 -0.115125,-3.14765 0,-2.92319 0.005,-3.03527 0.141704,-3.10837 0.07794,-0.0417 0.258501,-0.0758 0.401247,-0.0758 0.493497,0 0.490182,-0.0233 0.466817,3.29356 -0.01983,2.8184 -0.02691,2.95003 -0.162952,3.04948 -0.189203,0.13828 -0.588327,0.13218 -0.731691,-0.0112 z"
         style="fill:#ffffff;fill-opacity:1;stroke:none;stroke-width:0.15505971;stroke-miterlimit:4;stroke-dasharray:none;stroke-opacity:1" />
      <path
         inkscape:connector-curvature="0"
         id="path865"
         d="m 37.351857,252.64713 c -0.14342,-0.14342 -0.146518,-0.2442 -0.146518,-4.76197 0,-4.51777 0.0033,-4.61855 0.146518,-4.76197 0.198011,-0.19801 0.481508,-0.1845 0.699313,0.0333 l 0.179827,0.17983 v 4.54885 4.54884 l -0.179827,0.17982 c -0.217805,0.21781 -0.501302,0.23131 -0.699313,0.0333 z"
         style="fill:#ffffff;fill-opacity:1;stroke:none;stroke-width:0.15505971;stroke-miterlimit:4;stroke-dasharray:none;stroke-opacity:1" />
    </g>
  </g>
</svg>
