<?xml version="1.0" encoding="UTF-8" standalone="no"?>
<svg
   xmlns:dc="http://purl.org/dc/elements/1.1/"
   xmlns:cc="http://creativecommons.org/ns#"
   xmlns:rdf="http://www.w3.org/1999/02/22-rdf-syntax-ns#"
   xmlns:svg="http://www.w3.org/2000/svg"
   xmlns="http://www.w3.org/2000/svg"
   xmlns:sodipodi="http://sodipodi.sourceforge.net/DTD/sodipodi-0.dtd"
   xmlns:inkscape="http://www.inkscape.org/namespaces/inkscape"
   inkscape:version="1.0 (4035a4fb49, 2020-05-01)"
   inkscape:export-ydpi="300.01508"
   inkscape:export-xdpi="300.01508"
   inkscape:export-filename="/home/bavosaavedra/Documentos/proyectos/meteor/symbiot/symbiot-web-server-v3/public/img/4.jpg.png"
   sodipodi:docname="defaultmap.svg"
   id="svg10"
   preserveAspectRatio="xMidYMid meet"
   viewBox="0 0 549.000000 549.000000"
   height="549.000000pt"
   width="549.000000pt"
   version="1.0">
  <defs
     id="defs14" />
  <sodipodi:namedview
     inkscape:pagecheckerboard="false"
     inkscape:current-layer="text843"
     inkscape:window-maximized="1"
     inkscape:window-y="0"
     inkscape:window-x="0"
     inkscape:cy="276.39761"
     inkscape:cx="474.66395"
     inkscape:zoom="0.82399192"
     showgrid="false"
     id="namedview12"
     inkscape:window-height="1016"
     inkscape:window-width="1920"
     inkscape:pageshadow="2"
     inkscape:pageopacity="0"
     guidetolerance="10"
     gridtolerance="10"
     objecttolerance="10"
     borderopacity="1"
     bordercolor="#666666"
     pagecolor="#000000"
     inkscape:document-rotation="0" />
  <metadata
     id="metadata2">
Created by potrace 1.11, written by Peter Selinger 2001-2013
<rdf:RDF>
  <cc:Work
     rdf:about="">
    <dc:format>image/svg+xml</dc:format>
    <dc:type
       rdf:resource="http://purl.org/dc/dcmitype/StillImage" />
    <dc:title></dc:title>
  </cc:Work>
</rdf:RDF>
</metadata>
  <g
     style="fill:#0000ff"
     id="g8"
     stroke="none"
     fill="#000000"
     transform="translate(0.000000,549.000000) scale(0.100000,-0.100000)">
    <path
       style="fill:#ffffff;fill-opacity:0.443709;stroke-width:0.0500538"
       id="path4"
       d="m 3012.319,5042.2909 c -0.1,-0.1502 -1.5516,-0.3504 -3.2034,-0.5005 -4.2045,-0.4005 -10.1609,-1.3014 -12.2632,-1.802 -0.9511,-0.2503 -2.3025,-0.5506 -3.0033,-0.7007 -10.261,-1.802 -25.8778,-7.9086 -38.2913,-14.9161 -13.3144,-7.5582 -29.3817,-21.4732 -39.1922,-33.9367 -2.2524,-2.9031 -4.3548,-5.5559 -4.655,-5.9064 -1.2014,-1.4515 -7.4581,-11.6626 -9.5604,-15.6168 -5.4058,-10.0108 -11.4624,-27.3295 -13.1641,-37.5405 -0.1502,-0.951 -0.4005,-2.1023 -0.5006,-2.5027 -0.1001,-0.4004 -0.3003,-1.8019 -0.5006,-3.1033 -0.1502,-1.3014 -0.4504,-3.4037 -0.7007,-4.6551 -0.4505,-2.5027 -0.3504,-30.7331 0.1001,-32.7853 0.1502,-0.7007 0.4005,-2.3526 0.6006,-3.7541 0.851,-7.8585 5.0555,-22.9247 8.9096,-31.9844 4.4549,-10.5114 11.4624,-22.5744 18.2197,-31.3339 6.1566,-8.0086 14.6658,-16.718 22.1739,-22.7245 8.9597,-7.1577 10.6115,-8.2589 11.7627,-7.8084 1.852,0.7007 10.4113,9.0598 69.3248,68.0234 66.9723,67.0223 71.327,71.4771 72.1278,73.4292 0.901,2.4026 0.7007,6.2568 -0.5505,9.1099 -2.6029,6.0064 -9.8607,9.7104 -15.0664,7.6081 -2.4025,-0.951 -10.8616,-9.2599 -68.0734,-66.8721 -22.6744,-22.8747 -25.8779,-25.928 -29.1814,-27.5798 -8.5593,-4.3547 -17.4689,-3.8542 -25.0771,1.3514 -6.0065,4.1045 -10.7616,10.7617 -12.3634,17.2687 -1.2012,4.9053 -1.001,12.7638 0.4506,15.5168 3.1033,5.9564 7.458,10.4613 73.2289,76.4824 54.9093,55.0595 65.0702,65.3706 65.0702,65.8711 0,0.4005 -1.3014,0.9511 -9.5102,3.8542 -6.5571,2.3525 -16.0674,4.9553 -20.2719,5.5059 -1.3514,0.1501 -2.6528,0.4005 -2.803,0.5006 -0.1502,0.051 -1.5016,0.3003 -3.0033,0.4505 -1.5016,0.2002 -3.3536,0.4504 -4.2044,0.5005 -2.6029,0.3503 -26.5287,0.8009 -26.8291,0.5506 z" />
    <path
       style="fill:#ffffff;fill-opacity:0.44;stroke-width:0.0500538"
       id="path6"
       d="m 3074.8865,5005.1007 c -22.4742,-22.324 -84.6913,-84.5912 -95.8033,-95.9535 -4.4047,-4.5048 -10.8617,-11.162 -14.4155,-14.7659 -3.5038,-3.6039 -6.6072,-7.1577 -6.9075,-7.9085 -1.7018,-4.4548 0,-10.8617 3.8041,-14.3655 2.4026,-2.2024 7.8084,-3.2536 11.062,-2.1022 2.3525,0.8008 10.6114,8.7093 55.0093,52.8069 28.8311,28.5809 38.4915,37.8909 41.2445,39.7929 3.6039,2.5027 7.2578,3.5038 13.0641,3.4538 4.1044,0 5.9564,-0.2503 8.5091,-1.1012 8.2089,-2.8531 15.5168,-9.5604 18.5701,-17.1185 1.3515,-3.3536 1.7018,-10.1109 0.7508,-13.7649 -1.3515,-4.9052 -3.1534,-8.0586 -6.9575,-12.063 -7.8085,-8.1087 -19.2207,-19.6712 -61.3161,-62.0169 -51.9061,-52.1062 -77.1833,-77.7839 -77.1833,-78.3845 0,-1.3015 16.668,-7.5081 27.0292,-10.1109 11.9128,-3.0033 17.2685,-3.5539 34.7875,-3.5539 11.9128,0 15.9672,0.2502 20.5222,1.2514 1.1011,0.2503 2.903,0.5505 4.0043,0.7508 1.1011,0.1501 3.3536,0.6506 5.0054,1.0511 1.6517,0.4505 3.3536,0.851 3.754,0.951 1.902,0.4505 12.6136,4.0044 15.767,5.2558 32.0846,12.8137 59.4642,38.6416 73.4292,69.3247 5.0054,11.0119 9.1599,23.4754 10.6114,31.7843 0.1502,0.951 0.4005,2.3024 0.5507,3.0032 1.1512,5.7562 1.5015,11.7627 1.4515,25.027 -0.05,12.8639 -0.2002,15.4667 -1.1011,20.0216 -0.5507,2.9031 -1.2013,6.0565 -1.3516,7.0076 -2.6528,15.1664 -12.113,36.6896 -22.6744,51.5056 -5.7562,8.1087 -16.2175,19.471 -23.125,25.077 -1.5015,1.2514 -2.853,2.3526 -3.0032,2.5027 -1.3514,1.4015 -12.2632,8.9097 -14.8661,10.211 l -1.6517,0.8009 z" />
    <rect
       transform="scale(1,-1)"
       y="-4072.9355"
       x="690.58533"
       height="3031.1226"
       width="4157.9341"
       id="rect839"
       style="fill:#f9f9f9;fill-opacity:0.44;stroke-width:6.56537" />
    <g
       style="font-style:normal;font-weight:normal;font-size:262.615px;line-height:1.25;font-family:sans-serif;fill:#000000;fill-opacity:1;stroke:none;stroke-width:6.56537"
       id="text843"
       transform="scale(1,-1)"
       aria-label="My Room">
      <path
         id="path941"
         style="fill:#ffffff;stroke-width:6.56537"
         d="m 896.64935,-3802.3902 h 38.59722 l 48.85562,130.2816 49.11211,-130.2816 h 38.5972 v 191.4473 h -25.2613 v -168.1095 l -49.36855,131.3075 h -26.03069 l -49.36854,-131.3075 v 168.1095 h -25.13307 z" />
      <path
         id="path943"
         style="fill:#ffffff;stroke-width:6.56537"
         d="m 1181.961,-3597.607 q -10.0019,25.646 -19.4909,33.4681 -9.489,7.822 -25.3895,7.822 h -18.8499 v -19.7474 h 13.8489 q 9.7455,0 15.1311,-4.6163 5.3857,-4.6163 11.9254,-21.7991 l 4.2316,-10.7713 -58.0882,-141.3094 h 25.0049 l 44.8805,112.3294 44.8804,-112.3294 h 25.0049 z" />
      <path
         id="path945"
         style="fill:#ffffff;stroke-width:6.56537"
         d="m 1452.911,-3700.7039 q 8.3349,2.8211 16.157,12.0537 7.9502,9.2325 15.9005,25.3895 l 26.2871,52.3178 h -27.8259 l -24.4919,-49.1121 q -9.489,-19.2344 -18.4651,-25.5177 -8.8479,-6.2833 -24.2355,-6.2833 h -28.2106 v 80.9131 h -25.9024 v -191.4473 h 58.4728 q 32.8269,0 48.9839,13.7206 16.157,13.7206 16.157,41.4183 0,18.0804 -8.4632,30.0058 -8.335,11.9254 -24.3637,16.5416 z m -64.8844,-80.4001 v 67.9618 h 32.5704 q 18.7216,0 28.2106,-8.5914 9.6173,-8.7196 9.6173,-25.5177 0,-16.7982 -9.6173,-25.2613 -9.489,-8.5914 -28.2106,-8.5914 z" />
      <path
         id="path947"
         style="fill:#ffffff;stroke-width:6.56537"
         d="m 1587.4242,-3738.0188 q -18.978,0 -30.0058,14.8747 -11.0277,14.7464 -11.0277,40.5207 0,25.7742 10.8995,40.6489 11.0278,14.7464 30.134,14.7464 18.8498,0 29.8776,-14.8747 11.0278,-14.8746 11.0278,-40.5206 0,-25.5178 -11.0278,-40.3925 -11.0278,-15.0029 -29.8776,-15.0029 z m 0,-20.0039 q 30.7752,0 48.3427,20.0039 17.5676,20.0039 17.5676,55.3954 0,35.2632 -17.5676,55.3953 -17.5675,20.0039 -48.3427,20.0039 -30.9034,0 -48.4709,-20.0039 -17.4393,-20.1321 -17.4393,-55.3953 0,-35.3915 17.4393,-55.3954 17.5675,-20.0039 48.4709,-20.0039 z" />
      <path
         id="path949"
         style="fill:#ffffff;stroke-width:6.56537"
         d="m 1748.0964,-3738.0188 q -18.978,0 -30.0058,14.8747 -11.0278,14.7464 -11.0278,40.5207 0,25.7742 10.8996,40.6489 11.0278,14.7464 30.134,14.7464 18.8498,0 29.8776,-14.8747 11.0278,-14.8746 11.0278,-40.5206 0,-25.5178 -11.0278,-40.3925 -11.0278,-15.0029 -29.8776,-15.0029 z m 0,-20.0039 q 30.7752,0 48.3427,20.0039 17.5675,20.0039 17.5675,55.3954 0,35.2632 -17.5675,55.3953 -17.5675,20.0039 -48.3427,20.0039 -30.9034,0 -48.4709,-20.0039 -17.4393,-20.1321 -17.4393,-55.3953 0,-35.3915 17.4393,-55.3954 17.5675,-20.0039 48.4709,-20.0039 z" />
      <path
         id="path951"
         style="fill:#ffffff;stroke-width:6.56537"
         d="m 1964.9333,-3726.991 q 8.8478,-15.9005 21.1579,-23.4661 12.3101,-7.5656 28.98,-7.5656 22.4402,0 34.6221,15.7723 12.1818,15.6441 12.1818,44.6241 v 86.6834 h -23.7225 v -85.9141 q 0,-20.645 -7.3091,-30.6469 -7.3091,-10.002 -22.312,-10.002 -18.3369,0 -28.98,12.1819 -10.6431,12.1818 -10.6431,33.2116 v 81.1695 h -23.7225 v -85.9141 q 0,-20.7732 -7.3092,-30.6469 -7.3091,-10.002 -22.5684,-10.002 -18.0805,0 -28.7235,12.3101 -10.6431,12.1819 -10.6431,33.0834 v 81.1695 h -23.7226 v -143.6175 h 23.7226 v 22.312 q 8.0785,-13.2077 19.3627,-19.491 11.2842,-6.2833 26.8001,-6.2833 15.644,0 26.5436,7.9503 11.0277,7.9503 16.2852,23.0814 z" />
    </g>
    <g
       style="font-style:normal;font-weight:normal;font-size:262.615px;line-height:1.25;font-family:sans-serif;fill:#ffffff;fill-opacity:1;stroke:none;stroke-width:6.56537"
       id="text847"
       transform="scale(1,-1)"
       aria-label="Default Map">
      <path
         id="path839"
         style="fill:#ffffff;stroke-width:6.56537"
         d="m 3279.5402,-4991.5621 v 148.875 h 31.2881 q 39.6231,0 57.96,-17.9522 18.4651,-17.9521 18.4651,-56.6776 0,-38.469 -18.4651,-56.293 -18.3369,-17.9522 -57.96,-17.9522 z m -25.9024,-21.2861 h 53.2154 q 55.6518,0 81.6825,23.2096 26.0307,23.0814 26.0307,72.3217 0,49.4968 -26.1589,72.7064 -26.159,23.2096 -81.5543,23.2096 h -53.2154 z" />
      <path
         id="path841"
         style="fill:#ffffff;stroke-width:6.56537"
         d="m 3577.6749,-4899.1082 v 11.5407 h -108.4826 q 1.5388,24.3636 14.6183,37.1866 13.2076,12.6948 36.6737,12.6948 13.5924,0 26.2872,-3.334 12.823,-3.3339 25.3895,-10.0019 v 22.312 q -12.6948,5.3857 -26.0307,8.2067 -13.3359,2.8211 -27.0565,2.8211 -34.3656,0 -54.4977,-20.0039 -20.0039,-20.0039 -20.0039,-54.113 0,-35.2633 18.978,-55.9083 19.1063,-20.7733 51.4202,-20.7733 28.98,0 45.7781,18.7216 16.9264,18.5934 16.9264,50.6509 z m -23.5943,-6.9245 q -0.2565,-19.3627 -10.8996,-30.9034 -10.5148,-11.5407 -27.9541,-11.5407 -19.7474,0 -31.6728,11.156 -11.7972,11.156 -13.5924,31.4164 z" />
      <path
         id="path843"
         style="fill:#ffffff;stroke-width:6.56537"
         d="m 3689.1068,-5020.9267 v 19.6192 h -22.5685 q -12.6948,0 -17.6958,5.1292 -4.8727,5.1292 -4.8727,18.4651 v 12.6947 h 38.8537 v 18.3369 h -38.8537 v 125.2807 h -23.7225 v -125.2807 h -22.5685 v -18.3369 h 22.5685 v -10.0019 q 0,-23.979 11.156,-34.8785 11.156,-11.0278 35.3914,-11.0278 z" />
      <path
         id="path845"
         style="fill:#ffffff;stroke-width:6.56537"
         d="m 3774.1232,-4893.5944 q -28.5953,0 -39.623,6.5398 -11.0278,6.5397 -11.0278,22.312 0,12.5665 8.2067,20.0039 8.3349,7.3091 22.5685,7.3091 19.6192,0 31.4163,-13.8489 11.9254,-13.977 11.9254,-37.0584 v -5.2575 z m 47.0604,-9.7454 v 81.9389 h -23.5943 V -4843.2 q -8.0785,13.0795 -20.1321,19.3628 -12.0536,6.155 -29.4929,6.155 -22.0556,0 -35.135,-12.3101 -12.9512,-12.4383 -12.9512,-33.2116 0,-24.2354 16.1569,-36.5455 16.2852,-12.3101 48.471,-12.3101 h 33.0833 v -2.3081 q 0,-16.2852 -10.7713,-25.1331 -10.6431,-8.9761 -30.0058,-8.9761 -12.3101,0 -23.979,2.9493 -11.669,2.9493 -22.4403,8.8479 v -21.7991 q 12.9512,-5.001 25.1331,-7.4374 12.1818,-2.5646 23.7225,-2.5646 31.1599,0 46.5475,16.157 15.3876,16.157 15.3876,48.9839 z" />
      <path
         id="path847"
         style="fill:#ffffff;stroke-width:6.56537"
         d="m 3867.3464,-4878.0785 v -86.94 h 23.5944 v 86.0424 q 0,20.3885 7.9502,30.6469 7.9503,10.1302 23.8508,10.1302 19.1063,0 30.134,-12.1819 11.156,-12.1818 11.156,-33.2115 v -81.4261 h 23.5944 v 143.6176 h -23.5944 v -22.0555 q -8.5914,13.0794 -20.0038,19.4909 -11.2843,6.2833 -26.2872,6.2833 -24.7484,0 -37.5714,-15.3876 -12.823,-15.3876 -12.823,-45.0087 z m 59.3705,-90.4022 z" />
      <path
         id="path849"
         style="fill:#ffffff;stroke-width:6.56537"
         d="m 4036.2253,-5020.9267 h 23.5943 v 199.5258 h -23.5943 z" />
      <path
         id="path851"
         style="fill:#ffffff;stroke-width:6.56537"
         d="m 4132.526,-5005.7956 v 40.7771 h 48.5992 v 18.3369 h -48.5992 v 77.9639 q 0,17.5675 4.7445,22.5684 4.8727,5.001 19.6192,5.001 h 24.2355 v 19.7474 h -24.2355 q -27.313,0 -37.6996,-10.1301 -10.3866,-10.2584 -10.3866,-37.1867 v -77.9639 h -17.3111 v -18.3369 h 17.3111 v -40.7771 z" />
      <path
         id="path853"
         style="fill:#ffffff;stroke-width:6.56537"
         d="m 4296.6603,-5012.8482 h 38.5973 l 48.8556,130.2816 49.1121,-130.2816 h 38.5972 v 191.4473 h -25.2613 v -168.1095 l -49.3686,131.3075 h -26.0307 l -49.3685,-131.3075 v 168.1095 h -25.1331 z" />
      <path
         id="path855"
         style="fill:#ffffff;stroke-width:6.56537"
         d="m 4587.4859,-4893.5944 q -28.5952,0 -39.623,6.5398 -11.0278,6.5397 -11.0278,22.312 0,12.5665 8.2067,20.0039 8.335,7.3091 22.5685,7.3091 19.6192,0 31.4163,-13.8489 11.9254,-13.977 11.9254,-37.0584 v -5.2575 z m 47.0604,-9.7454 v 81.9389 H 4610.952 V -4843.2 q -8.0785,13.0795 -20.1321,19.3628 -12.0536,6.155 -29.4929,6.155 -22.0555,0 -35.135,-12.3101 -12.9512,-12.4383 -12.9512,-33.2116 0,-24.2354 16.157,-36.5455 16.2852,-12.3101 48.4709,-12.3101 h 33.0833 v -2.3081 q 0,-16.2852 -10.7713,-25.1331 -10.6431,-8.9761 -30.0058,-8.9761 -12.3101,0 -23.979,2.9493 -11.6689,2.9493 -22.4402,8.8479 v -21.7991 q 12.9512,-5.001 25.133,-7.4374 12.1819,-2.5646 23.7226,-2.5646 31.1599,0 46.5475,16.157 15.3875,16.157 15.3875,48.9839 z" />
      <path
         id="path857"
         style="fill:#ffffff;stroke-width:6.56537"
         d="m 4705.9704,-4842.9435 v 76.1686 h -23.7225 v -198.2436 h 23.7225 v 21.7991 q 7.4374,-12.823 18.7216,-18.978 11.4125,-6.2833 27.1847,-6.2833 26.159,0 42.4442,20.7733 16.4134,20.7733 16.4134,54.626 0,33.8527 -16.4134,54.6259 -16.2852,20.7733 -42.4442,20.7733 -15.7722,0 -27.1847,-6.155 -11.2842,-6.2833 -18.7216,-19.1063 z m 80.272,-50.1379 q 0,-26.0307 -10.7713,-40.7772 -10.6431,-14.8746 -29.3647,-14.8746 -18.7216,0 -29.4929,14.8746 -10.6431,14.7465 -10.6431,40.7772 0,26.0306 10.6431,40.9053 10.7713,14.7465 29.4929,14.7465 18.7216,0 29.3647,-14.7465 10.7713,-14.8747 10.7713,-40.9053 z" />
    </g>
    <g
       style="font-style:normal;font-weight:normal;font-size:97.9527px;line-height:1.25;font-family:sans-serif;fill:#ffffff;fill-opacity:1;stroke:none;stroke-width:2.44883"
       id="text851"
       transform="scale(1,-1)"
       aria-label="Upload your own map or image using the edit tools">
      <path
         id="path860"
         style="fill:#ffffff;stroke-width:2.44883"
         d="m 2323.0804,-4710.6183 h 9.7091 v 43.3804 q 0,11.4788 4.1611,16.5486 4.1611,5.022 13.4876,5.022 9.2788,0 13.4398,-5.022 4.1611,-5.0698 4.1611,-16.5486 v -43.3804 h 9.7092 v 44.5761 q 0,13.9659 -6.9351,21.0923 -6.8873,7.1265 -20.375,7.1265 -13.5354,0 -20.4705,-7.1265 -6.8873,-7.1264 -6.8873,-21.0923 z" />
      <path
         id="path862"
         style="fill:#ffffff;stroke-width:2.44883"
         d="m 2404.0061,-4647.2456 v 28.4101 h -8.8482 v -73.9428 h 8.8482 v 8.1308 q 2.7741,-4.7828 6.983,-7.0786 4.2567,-2.3436 10.1396,-2.3436 9.757,0 15.8312,7.7482 6.1221,7.7482 6.1221,20.3749 0,12.6268 -6.1221,20.375 -6.0742,7.7482 -15.8312,7.7482 -5.8829,0 -10.1396,-2.2958 -4.2089,-2.3436 -6.983,-7.1264 z m 29.9406,-18.701 q 0,-9.7091 -4.0175,-15.2094 -3.9698,-5.5481 -10.9528,-5.5481 -6.9829,0 -11.0005,5.5481 -3.9698,5.5003 -3.9698,15.2094 0,9.7092 3.9698,15.2573 4.0176,5.5003 11.0005,5.5003 6.983,0 10.9528,-5.5003 4.0175,-5.5481 4.0175,-15.2573 z" />
      <path
         id="path864"
         style="fill:#ffffff;stroke-width:2.44883"
         d="m 2457.6697,-4713.6315 h 8.8004 v 74.4211 h -8.8004 z" />
      <path
         id="path866"
         style="fill:#ffffff;stroke-width:2.44883"
         d="m 2505.6416,-4686.6085 q -7.0786,0 -11.1918,5.5481 -4.1133,5.5003 -4.1133,15.1138 0,9.6136 4.0654,15.1617 4.1133,5.5002 11.2397,5.5002 7.0308,0 11.144,-5.5481 4.1133,-5.5481 4.1133,-15.1138 0,-9.5178 -4.1133,-15.0659 -4.1132,-5.596 -11.144,-5.596 z m 0,-7.4612 q 11.4788,0 18.0313,7.4612 6.5525,7.4613 6.5525,20.6619 0,13.1529 -6.5525,20.6619 -6.5525,7.4613 -18.0313,7.4613 -11.5266,0 -18.0791,-7.4613 -6.5047,-7.509 -6.5047,-20.6619 0,-13.2006 6.5047,-20.6619 6.5525,-7.4612 18.0791,-7.4612 z" />
      <path
         id="path868"
         style="fill:#ffffff;stroke-width:2.44883"
         d="m 2569.1578,-4666.1379 q -10.6657,0 -14.779,2.4393 -4.1132,2.4392 -4.1132,8.3221 0,4.6872 3.061,7.4613 3.1088,2.7262 8.4178,2.7262 7.3178,0 11.718,-5.1655 4.448,-5.2133 4.448,-13.8224 v -1.961 z m 17.5531,-3.6349 v 30.5624 h -8.8005 v -8.1309 q -3.0132,4.8785 -7.509,7.2221 -4.4959,2.2958 -11.0006,2.2958 -8.2265,0 -13.105,-4.5916 -4.8307,-4.6393 -4.8307,-12.3875 0,-9.0396 6.0264,-13.6311 6.0742,-4.5916 18.0792,-4.5916 h 12.3397 v -0.8609 q 0,-6.0742 -4.0176,-9.3744 -3.9697,-3.348 -11.1918,-3.348 -4.5916,0 -8.944,1.1001 -4.3523,1.1001 -8.3699,3.3002 v -8.1309 q 4.8306,-1.8653 9.3743,-2.774 4.5437,-0.9566 8.8483,-0.9566 11.6223,0 17.3617,6.0264 5.7395,6.0264 5.7395,18.2705 z" />
      <path
         id="path870"
         style="fill:#ffffff;stroke-width:2.44883"
         d="m 2640.0874,-4684.6475 v -28.984 h 8.8005 v 74.4211 h -8.8005 v -8.0352 q -2.774,4.7828 -7.0307,7.1264 -4.209,2.2958 -10.1397,2.2958 -9.7092,0 -15.8312,-7.7482 -6.0742,-7.7482 -6.0742,-20.375 0,-12.6267 6.0742,-20.3749 6.122,-7.7482 15.8312,-7.7482 5.9307,0 10.1397,2.3436 4.2567,2.2958 7.0307,7.0786 z m -29.9884,18.7009 q 0,9.7092 3.9698,15.2573 4.0175,5.5003 11.0005,5.5003 6.983,0 11.0005,-5.5003 4.0176,-5.5481 4.0176,-15.2573 0,-9.7091 -4.0176,-15.2094 -4.0175,-5.5481 -11.0005,-5.5481 -6.983,0 -11.0005,5.5481 -3.9698,5.5003 -3.9698,15.2094 z" />
      <path
         id="path872"
         style="fill:#ffffff;stroke-width:2.44883"
         d="m 2720.4392,-4634.2363 q -3.7306,9.5657 -7.2699,12.4832 -3.5393,2.9176 -9.47,2.9176 h -7.0308 v -7.3656 h 5.1655 q 3.6349,0 5.6437,-1.7218 2.0088,-1.7219 4.4481,-8.1309 l 1.5783,-4.0176 -21.6663,-52.7069 h 9.3266 l 16.7399,41.8977 16.74,-41.8977 h 9.3266 z" />
      <path
         id="path874"
         style="fill:#ffffff;stroke-width:2.44883"
         d="m 2776.8768,-4686.6085 q -7.0786,0 -11.1918,5.5481 -4.1133,5.5003 -4.1133,15.1138 0,9.6136 4.0655,15.1617 4.1132,5.5002 11.2396,5.5002 7.0308,0 11.1441,-5.5481 4.1132,-5.5481 4.1132,-15.1138 0,-9.5178 -4.1132,-15.0659 -4.1133,-5.596 -11.1441,-5.596 z m 0,-7.4612 q 11.4789,0 18.0314,7.4612 6.5525,7.4613 6.5525,20.6619 0,13.1529 -6.5525,20.6619 -6.5525,7.4613 -18.0314,7.4613 -11.5266,0 -18.0791,-7.4613 -6.5047,-7.509 -6.5047,-20.6619 0,-13.2006 6.5047,-20.6619 6.5525,-7.4612 18.0791,-7.4612 z" />
      <path
         id="path876"
         style="fill:#ffffff;stroke-width:2.44883"
         d="m 2815.1396,-4660.3506 v -32.4277 h 8.8005 v 32.0929 q 0,7.6047 2.9653,11.431 2.9654,3.7784 8.8961,3.7784 7.1265,0 11.2397,-4.5437 4.1611,-4.5437 4.1611,-12.3876 v -30.371 h 8.8004 v 53.5679 h -8.8004 v -8.2265 q -3.2045,4.8785 -7.4613,7.2699 -4.2089,2.3436 -9.8048,2.3436 -9.2309,0 -14.0137,-5.7394 -4.7829,-5.7395 -4.7829,-16.7878 z m 22.1446,-33.7191 z" />
      <path
         id="path878"
         style="fill:#ffffff;stroke-width:2.44883"
         d="m 2909.1704,-4684.5518 q -1.4827,-0.8609 -3.2524,-1.2436 -1.7218,-0.4304 -3.8262,-0.4304 -7.4613,0 -11.4789,4.8785 -3.9697,4.8306 -3.9697,13.9181 v 28.2188 h -8.8483 v -53.5679 h 8.8483 v 8.3221 q 2.774,-4.8785 7.2221,-7.2221 4.448,-2.3914 10.8092,-2.3914 0.9087,0 2.0088,0.1435 1.1,0.096 2.4392,0.3348 z" />
      <path
         id="path880"
         style="fill:#ffffff;stroke-width:2.44883"
         d="m 2970.2951,-4686.6085 q -7.0786,0 -11.1918,5.5481 -4.1133,5.5003 -4.1133,15.1138 0,9.6136 4.0655,15.1617 4.1132,5.5002 11.2396,5.5002 7.0308,0 11.1441,-5.5481 4.1132,-5.5481 4.1132,-15.1138 0,-9.5178 -4.1132,-15.0659 -4.1133,-5.596 -11.1441,-5.596 z m 0,-7.4612 q 11.4789,0 18.0314,7.4612 6.5525,7.4613 6.5525,20.6619 0,13.1529 -6.5525,20.6619 -6.5525,7.4613 -18.0314,7.4613 -11.5266,0 -18.0791,-7.4613 -6.5047,-7.509 -6.5047,-20.6619 0,-13.2006 6.5047,-20.6619 6.5525,-7.4612 18.0791,-7.4612 z" />
      <path
         id="path882"
         style="fill:#ffffff;stroke-width:2.44883"
         d="m 3004.349,-4692.7783 h 8.8005 l 11.0005,41.802 10.9527,-41.802 h 10.3788 l 11.0006,41.802 10.9527,-41.802 h 8.8004 l -14.0137,53.5679 h -10.3788 l -11.5267,-43.9066 -11.5745,43.9066 h -10.3787 z" />
      <path
         id="path884"
         style="fill:#ffffff;stroke-width:2.44883"
         d="m 3134.1076,-4671.5425 v 32.3321 h -8.8004 v -32.0451 q 0,-7.6047 -2.9654,-11.3832 -2.9653,-3.7784 -8.8961,-3.7784 -7.1264,0 -11.2396,4.5437 -4.1133,4.5437 -4.1133,12.3875 v 30.2755 h -8.8483 v -53.5679 h 8.8483 v 8.3221 q 3.1567,-4.8307 7.4134,-7.2221 4.3046,-2.3914 9.9005,-2.3914 9.2309,0 13.9659,5.7394 4.735,5.6916 4.735,16.7878 z" />
      <path
         id="path886"
         style="fill:#ffffff;stroke-width:2.44883"
         d="m 3224.5035,-4682.4952 q 3.3001,-5.9307 7.8917,-8.7526 4.5915,-2.8219 10.8092,-2.8219 8.37,0 12.9137,5.8829 4.5437,5.8351 4.5437,16.6443 v 32.3321 h -8.8483 v -32.0451 q 0,-7.7004 -2.7262,-11.431 -2.7262,-3.7306 -8.3221,-3.7306 -6.8395,0 -10.8093,4.5437 -3.9697,4.5437 -3.9697,12.3875 v 30.2755 h -8.8483 v -32.0451 q 0,-7.7482 -2.7262,-11.431 -2.7263,-3.7306 -8.4178,-3.7306 -6.7439,0 -10.7136,4.5915 -3.9698,4.5437 -3.9698,12.3397 v 30.2755 h -8.8482 v -53.5679 h 8.8482 v 8.3221 q 3.0132,-4.9263 7.2221,-7.2699 4.2089,-2.3436 9.9962,-2.3436 5.835,0 9.9005,2.9654 4.1132,2.9653 6.0742,8.6091 z" />
      <path
         id="path888"
         style="fill:#ffffff;stroke-width:2.44883"
         d="m 3302.5595,-4666.1379 q -10.6657,0 -14.779,2.4393 -4.1132,2.4392 -4.1132,8.3221 0,4.6872 3.061,7.4613 3.1089,2.7262 8.4178,2.7262 7.3178,0 11.718,-5.1655 4.448,-5.2133 4.448,-13.8224 v -1.961 z m 17.5531,-3.6349 v 30.5624 h -8.8005 v -8.1309 q -3.0132,4.8785 -7.509,7.2221 -4.4959,2.2958 -11.0006,2.2958 -8.2265,0 -13.105,-4.5916 -4.8307,-4.6393 -4.8307,-12.3875 0,-9.0396 6.0264,-13.6311 6.0743,-4.5916 18.0792,-4.5916 h 12.3397 v -0.8609 q 0,-6.0742 -4.0176,-9.3744 -3.9697,-3.348 -11.1918,-3.348 -4.5915,0 -8.9439,1.1001 -4.3524,1.1001 -8.37,3.3002 v -8.1309 q 4.8307,-1.8653 9.3744,-2.774 4.5437,-0.9566 8.8482,-0.9566 11.6223,0 17.3618,6.0264 5.7394,6.0264 5.7394,18.2705 z" />
      <path
         id="path890"
         style="fill:#ffffff;stroke-width:2.44883"
         d="m 3346.753,-4647.2456 v 28.4101 h -8.8482 v -73.9428 h 8.8482 v 8.1308 q 2.7741,-4.7828 6.983,-7.0786 4.2567,-2.3436 10.1396,-2.3436 9.757,0 15.8312,7.7482 6.1221,7.7482 6.1221,20.3749 0,12.6268 -6.1221,20.375 -6.0742,7.7482 -15.8312,7.7482 -5.8829,0 -10.1396,-2.2958 -4.2089,-2.3436 -6.983,-7.1264 z m 29.9406,-18.701 q 0,-9.7091 -4.0175,-15.2094 -3.9698,-5.5481 -10.9528,-5.5481 -6.9829,0 -11.0005,5.5481 -3.9698,5.5003 -3.9698,15.2094 0,9.7092 3.9698,15.2573 4.0176,5.5003 11.0005,5.5003 6.983,0 10.9528,-5.5003 4.0175,-5.5481 4.0175,-15.2573 z" />
      <path
         id="path892"
         style="fill:#ffffff;stroke-width:2.44883"
         d="m 3452.3105,-4686.6085 q -7.0786,0 -11.1919,5.5481 -4.1132,5.5003 -4.1132,15.1138 0,9.6136 4.0654,15.1617 4.1132,5.5002 11.2397,5.5002 7.0308,0 11.144,-5.5481 4.1133,-5.5481 4.1133,-15.1138 0,-9.5178 -4.1133,-15.0659 -4.1132,-5.596 -11.144,-5.596 z m 0,-7.4612 q 11.4788,0 18.0313,7.4612 6.5525,7.4613 6.5525,20.6619 0,13.1529 -6.5525,20.6619 -6.5525,7.4613 -18.0313,7.4613 -11.5267,0 -18.0792,-7.4613 -6.5047,-7.509 -6.5047,-20.6619 0,-13.2006 6.5047,-20.6619 6.5525,-7.4612 18.0792,-7.4612 z" />
      <path
         id="path894"
         style="fill:#ffffff;stroke-width:2.44883"
         d="m 3522.5227,-4684.5518 q -1.4827,-0.8609 -3.2524,-1.2436 -1.7218,-0.4304 -3.8262,-0.4304 -7.4613,0 -11.4789,4.8785 -3.9697,4.8306 -3.9697,13.9181 v 28.2188 h -8.8483 v -53.5679 h 8.8483 v 8.3221 q 2.774,-4.8785 7.2221,-7.2221 4.448,-2.3914 10.8092,-2.3914 0.9087,0 2.0088,0.1435 1.1,0.096 2.4392,0.3348 z" />
      <path
         id="path896"
         style="fill:#ffffff;stroke-width:2.44883"
         d="m 3562.8898,-4692.7783 h 8.8005 v 53.5679 h -8.8005 z m 0,-20.8532 h 8.8005 v 11.144 h -8.8005 z" />
      <path
         id="path898"
         style="fill:#ffffff;stroke-width:2.44883"
         d="m 3631.8106,-4682.4952 q 3.3002,-5.9307 7.8917,-8.7526 4.5915,-2.8219 10.8092,-2.8219 8.37,0 12.9137,5.8829 4.5437,5.8351 4.5437,16.6443 v 32.3321 h -8.8482 v -32.0451 q 0,-7.7004 -2.7263,-11.431 -2.7262,-3.7306 -8.3221,-3.7306 -6.8395,0 -10.8092,4.5437 -3.9698,4.5437 -3.9698,12.3875 v 30.2755 h -8.8483 v -32.0451 q 0,-7.7482 -2.7262,-11.431 -2.7262,-3.7306 -8.4178,-3.7306 -6.7438,0 -10.7136,4.5915 -3.9697,4.5437 -3.9697,12.3397 v 30.2755 h -8.8483 v -53.5679 h 8.8483 v 8.3221 q 3.0131,-4.9263 7.2221,-7.2699 4.2089,-2.3436 9.9961,-2.3436 5.8351,0 9.9005,2.9654 4.1132,2.9653 6.0742,8.6091 z" />
      <path
         id="path900"
         style="fill:#ffffff;stroke-width:2.44883"
         d="m 3709.8667,-4666.1379 q -10.6657,0 -14.779,2.4393 -4.1132,2.4392 -4.1132,8.3221 0,4.6872 3.061,7.4613 3.1088,2.7262 8.4178,2.7262 7.3178,0 11.718,-5.1655 4.448,-5.2133 4.448,-13.8224 v -1.961 z m 17.5531,-3.6349 v 30.5624 h -8.8005 v -8.1309 q -3.0132,4.8785 -7.509,7.2221 -4.4959,2.2958 -11.0006,2.2958 -8.2265,0 -13.105,-4.5916 -4.8307,-4.6393 -4.8307,-12.3875 0,-9.0396 6.0264,-13.6311 6.0742,-4.5916 18.0792,-4.5916 h 12.3397 v -0.8609 q 0,-6.0742 -4.0176,-9.3744 -3.9697,-3.348 -11.1918,-3.348 -4.5916,0 -8.9439,1.1001 -4.3524,1.1001 -8.37,3.3002 v -8.1309 q 4.8306,-1.8653 9.3744,-2.774 4.5437,-0.9566 8.8482,-0.9566 11.6223,0 17.3618,6.0264 5.7394,6.0264 5.7394,18.2705 z" />
      <path
         id="path902"
         style="fill:#ffffff;stroke-width:2.44883"
         d="m 3780.7963,-4666.6162 q 0,-9.5657 -3.9698,-14.8268 -3.9219,-5.2611 -11.0484,-5.2611 -7.0786,0 -11.0483,5.2611 -3.922,5.2611 -3.922,14.8268 0,9.5179 3.922,14.779 3.9697,5.2612 11.0483,5.2612 7.1265,0 11.0484,-5.2612 3.9698,-5.2611 3.9698,-14.779 z m 8.8004,20.7576 q 0,13.6789 -6.0742,20.3271 -6.0742,6.696 -18.6053,6.696 -4.6393,0 -8.7526,-0.7174 -4.1132,-0.6696 -7.9873,-2.1045 v -8.5613 q 3.8741,2.1045 7.6525,3.1089 3.7785,1.0044 7.7004,1.0044 8.6569,0 12.9615,-4.5438 4.3046,-4.4958 4.3046,-13.6311 v -4.3524 q -2.7263,4.7351 -6.983,7.0787 -4.2567,2.3436 -10.1875,2.3436 -9.8526,0 -15.879,-7.5091 -6.0264,-7.5091 -6.0264,-19.8967 0,-12.4354 6.0264,-19.9444 6.0264,-7.5091 15.879,-7.5091 5.9308,0 10.1875,2.3436 4.2567,2.3436 6.983,7.0786 v -8.1308 h 8.8004 z" />
      <path
         id="path904"
         style="fill:#ffffff;stroke-width:2.44883"
         d="m 3853.5434,-4668.1945 v 4.3046 h -40.4629 q 0.5739,9.0874 5.4524,13.8702 4.9264,4.735 13.679,4.735 5.0698,0 9.8048,-1.2435 4.7828,-1.2435 9.47,-3.7306 v 8.3221 q -4.735,2.0088 -9.7091,3.0611 -4.9742,1.0522 -10.0918,1.0522 -12.8181,0 -20.3271,-7.4613 -7.4613,-7.4612 -7.4613,-20.1836 0,-13.1528 7.0786,-20.8532 7.1265,-7.7482 19.1792,-7.7482 10.8093,0 17.0748,6.983 6.3134,6.9351 6.3134,18.8922 z m -8.8005,-2.5827 q -0.096,-7.2221 -4.0654,-11.5267 -3.9219,-4.3046 -10.4266,-4.3046 -7.3656,0 -11.8136,4.1611 -4.4003,4.1611 -5.0698,11.718 z" />
      <path
         id="path906"
         style="fill:#ffffff;stroke-width:2.44883"
         d="m 3898.2152,-4660.3506 v -32.4277 h 8.8005 v 32.0929 q 0,7.6047 2.9653,11.431 2.9654,3.7784 8.8961,3.7784 7.1265,0 11.2397,-4.5437 4.1611,-4.5437 4.1611,-12.3876 v -30.371 h 8.8004 v 53.5679 h -8.8004 v -8.2265 q -3.2045,4.8785 -7.4613,7.2699 -4.2089,2.3436 -9.8048,2.3436 -9.2309,0 -14.0137,-5.7394 -4.7829,-5.7395 -4.7829,-16.7878 z m 22.1446,-33.7191 z" />
      <path
         id="path908"
         style="fill:#ffffff;stroke-width:2.44883"
         d="m 3995.3548,-4691.2 v 8.3222 q -3.7306,-1.9132 -7.7482,-2.8697 -4.0176,-0.9566 -8.3222,-0.9566 -6.5525,0 -9.8526,2.0088 -3.2524,2.0088 -3.2524,6.0264 0,3.061 2.3436,4.8306 2.3436,1.7219 9.4222,3.3002 l 3.0132,0.6696 q 9.3744,2.0088 13.2963,5.6916 3.9698,3.635 3.9698,10.1875 0,7.4612 -5.9307,11.8136 -5.8829,4.3524 -16.2139,4.3524 -4.3045,0 -8.9917,-0.8609 -4.6394,-0.8131 -9.8049,-2.4871 v -9.0874 q 4.8785,2.5349 9.6135,3.8263 4.7351,1.2435 9.3744,1.2435 6.2177,0 9.5657,-2.1045 3.348,-2.1522 3.348,-6.0263 0,-3.5872 -2.4392,-5.5003 -2.3915,-1.9132 -10.5701,-3.6828 l -3.0611,-0.7174 q -8.1786,-1.7219 -11.8136,-5.2612 -3.6349,-3.5871 -3.6349,-9.8048 0,-7.5569 5.3567,-11.6702 5.3568,-4.1132 15.2095,-4.1132 4.8785,0 9.1831,0.7174 4.3045,0.7175 7.9395,2.1523 z" />
      <path
         id="path910"
         style="fill:#ffffff;stroke-width:2.44883"
         d="m 4012.2382,-4692.7783 h 8.8005 v 53.5679 h -8.8005 z m 0,-20.8532 h 8.8005 v 11.144 h -8.8005 z" />
      <path
         id="path912"
         style="fill:#ffffff;stroke-width:2.44883"
         d="m 4083.981,-4671.5425 v 32.3321 h -8.8004 v -32.0451 q 0,-7.6047 -2.9654,-11.3832 -2.9654,-3.7784 -8.8961,-3.7784 -7.1264,0 -11.2397,4.5437 -4.1132,4.5437 -4.1132,12.3875 v 30.2755 h -8.8483 v -53.5679 h 8.8483 v 8.3221 q 3.1566,-4.8307 7.4134,-7.2221 4.3045,-2.3914 9.9005,-2.3914 9.2309,0 13.9659,5.7394 4.735,5.6916 4.735,16.7878 z" />
      <path
         id="path914"
         style="fill:#ffffff;stroke-width:2.44883"
         d="m 4136.7836,-4666.6162 q 0,-9.5657 -3.9698,-14.8268 -3.9219,-5.2611 -11.0484,-5.2611 -7.0786,0 -11.0483,5.2611 -3.922,5.2611 -3.922,14.8268 0,9.5179 3.922,14.779 3.9697,5.2612 11.0483,5.2612 7.1265,0 11.0484,-5.2612 3.9698,-5.2611 3.9698,-14.779 z m 8.8004,20.7576 q 0,13.6789 -6.0742,20.3271 -6.0742,6.696 -18.6053,6.696 -4.6393,0 -8.7526,-0.7174 -4.1132,-0.6696 -7.9873,-2.1045 v -8.5613 q 3.8741,2.1045 7.6525,3.1089 3.7785,1.0044 7.7004,1.0044 8.6569,0 12.9615,-4.5438 4.3046,-4.4958 4.3046,-13.6311 v -4.3524 q -2.7262,4.7351 -6.983,7.0787 -4.2567,2.3436 -10.1874,2.3436 -9.8527,0 -15.8791,-7.5091 -6.0264,-7.5091 -6.0264,-19.8967 0,-12.4354 6.0264,-19.9444 6.0264,-7.5091 15.8791,-7.5091 5.9307,0 10.1874,2.3436 4.2568,2.3436 6.983,7.0786 v -8.1308 h 8.8004 z" />
      <path
         id="path916"
         style="fill:#ffffff;stroke-width:2.44883"
         d="m 4203.5521,-4707.9878 v 15.2095 h 18.127 v 6.8394 h -18.127 v 29.0797 q 0,6.5525 1.7697,8.4179 1.8175,1.8653 7.3177,1.8653 h 9.0396 v 7.3656 h -9.0396 q -10.1874,0 -14.0615,-3.7785 -3.8741,-3.8263 -3.8741,-13.8703 v -29.0797 h -6.4569 v -6.8394 h 6.4569 v -15.2095 z" />
      <path
         id="path918"
         style="fill:#ffffff;stroke-width:2.44883"
         d="m 4277.7819,-4671.5425 v 32.3321 h -8.8004 v -32.0451 q 0,-7.6047 -2.9654,-11.3832 -2.9654,-3.7784 -8.8961,-3.7784 -7.1264,0 -11.2397,4.5437 -4.1132,4.5437 -4.1132,12.3875 v 30.2755 h -8.8483 v -74.4211 h 8.8483 v 29.1753 q 3.1566,-4.8307 7.4134,-7.2221 4.3045,-2.3914 9.9005,-2.3914 9.2309,0 13.9659,5.7394 4.735,5.6916 4.735,16.7878 z" />
      <path
         id="path920"
         style="fill:#ffffff;stroke-width:2.44883"
         d="m 4341.1547,-4668.1945 v 4.3046 h -40.4629 q 0.5739,9.0874 5.4525,13.8702 4.9263,4.735 13.6789,4.735 5.0698,0 9.8048,-1.2435 4.7829,-1.2435 9.4701,-3.7306 v 8.3221 q -4.7351,2.0088 -9.7092,3.0611 -4.9742,1.0522 -10.0918,1.0522 -12.818,0 -20.3271,-7.4613 -7.4613,-7.4612 -7.4613,-20.1836 0,-13.1528 7.0787,-20.8532 7.1264,-7.7482 19.1792,-7.7482 10.8092,0 17.0747,6.983 6.3134,6.9351 6.3134,18.8922 z m -8.8004,-2.5827 q -0.096,-7.2221 -4.0655,-11.5267 -3.9219,-4.3046 -10.4266,-4.3046 -7.3656,0 -11.8136,4.1611 -4.4002,4.1611 -5.0698,11.718 z" />
      <path
         id="path922"
         style="fill:#ffffff;stroke-width:2.44883"
         d="m 4432.5547,-4668.1945 v 4.3046 h -40.4629 q 0.574,9.0874 5.4525,13.8702 4.9263,4.735 13.6789,4.735 5.0698,0 9.8049,-1.2435 4.7828,-1.2435 9.47,-3.7306 v 8.3221 q -4.735,2.0088 -9.7092,3.0611 -4.9741,1.0522 -10.0918,1.0522 -12.818,0 -20.3271,-7.4613 -7.4612,-7.4612 -7.4612,-20.1836 0,-13.1528 7.0786,-20.8532 7.1264,-7.7482 19.1792,-7.7482 10.8092,0 17.0748,6.983 6.3133,6.9351 6.3133,18.8922 z m -8.8004,-2.5827 q -0.096,-7.2221 -4.0654,-11.5267 -3.922,-4.3046 -10.4266,-4.3046 -7.3656,0 -11.8137,4.1611 -4.4002,4.1611 -5.0698,11.718 z" />
      <path
         id="path924"
         style="fill:#ffffff;stroke-width:2.44883"
         d="m 4482.2485,-4684.6475 v -28.984 h 8.8005 v 74.4211 h -8.8005 v -8.0352 q -2.774,4.7828 -7.0307,7.1264 -4.2089,2.2958 -10.1397,2.2958 -9.7092,0 -15.8312,-7.7482 -6.0742,-7.7482 -6.0742,-20.375 0,-12.6267 6.0742,-20.3749 6.122,-7.7482 15.8312,-7.7482 5.9308,0 10.1397,2.3436 4.2567,2.2958 7.0307,7.0786 z m -29.9884,18.7009 q 0,9.7092 3.9698,15.2573 4.0175,5.5003 11.0005,5.5003 6.983,0 11.0005,-5.5003 4.0176,-5.5481 4.0176,-15.2573 0,-9.7091 -4.0176,-15.2094 -4.0175,-5.5481 -11.0005,-5.5481 -6.983,0 -11.0005,5.5481 -3.9698,5.5003 -3.9698,15.2094 z" />
      <path
         id="path926"
         style="fill:#ffffff;stroke-width:2.44883"
         d="m 4509.176,-4692.7783 h 8.8004 v 53.5679 h -8.8004 z m 0,-20.8532 h 8.8004 v 11.144 h -8.8004 z" />
      <path
         id="path928"
         style="fill:#ffffff;stroke-width:2.44883"
         d="m 4545.0951,-4707.9878 v 15.2095 h 18.127 v 6.8394 h -18.127 v 29.0797 q 0,6.5525 1.7697,8.4179 1.8174,1.8653 7.3177,1.8653 h 9.0396 v 7.3656 h -9.0396 q -10.1875,0 -14.0616,-3.7785 -3.8741,-3.8263 -3.8741,-13.8703 v -29.0797 h -6.4568 v -6.8394 h 6.4568 v -15.2095 z" />
      <path
         id="path930"
         style="fill:#ffffff;stroke-width:2.44883"
         d="m 4614.6378,-4707.9878 v 15.2095 h 18.127 v 6.8394 h -18.127 v 29.0797 q 0,6.5525 1.7697,8.4179 1.8175,1.8653 7.3177,1.8653 h 9.0396 v 7.3656 h -9.0396 q -10.1874,0 -14.0615,-3.7785 -3.8741,-3.8263 -3.8741,-13.8703 v -29.0797 h -6.4569 v -6.8394 h 6.4569 v -15.2095 z" />
      <path
         id="path932"
         style="fill:#ffffff;stroke-width:2.44883"
         d="m 4665.0968,-4686.6085 q -7.0786,0 -11.1918,5.5481 -4.1133,5.5003 -4.1133,15.1138 0,9.6136 4.0655,15.1617 4.1132,5.5002 11.2396,5.5002 7.0308,0 11.1441,-5.5481 4.1132,-5.5481 4.1132,-15.1138 0,-9.5178 -4.1132,-15.0659 -4.1133,-5.596 -11.1441,-5.596 z m 0,-7.4612 q 11.4789,0 18.0314,7.4612 6.5525,7.4613 6.5525,20.6619 0,13.1529 -6.5525,20.6619 -6.5525,7.4613 -18.0314,7.4613 -11.5266,0 -18.0791,-7.4613 -6.5047,-7.509 -6.5047,-20.6619 0,-13.2006 6.5047,-20.6619 6.5525,-7.4612 18.0791,-7.4612 z" />
      <path
         id="path934"
         style="fill:#ffffff;stroke-width:2.44883"
         d="m 4725.0258,-4686.6085 q -7.0786,0 -11.1919,5.5481 -4.1132,5.5003 -4.1132,15.1138 0,9.6136 4.0654,15.1617 4.1133,5.5002 11.2397,5.5002 7.0308,0 11.144,-5.5481 4.1133,-5.5481 4.1133,-15.1138 0,-9.5178 -4.1133,-15.0659 -4.1132,-5.596 -11.144,-5.596 z m 0,-7.4612 q 11.4788,0 18.0313,7.4612 6.5525,7.4613 6.5525,20.6619 0,13.1529 -6.5525,20.6619 -6.5525,7.4613 -18.0313,7.4613 -11.5267,0 -18.0792,-7.4613 -6.5046,-7.509 -6.5046,-20.6619 0,-13.2006 6.5046,-20.6619 6.5525,-7.4612 18.0792,-7.4612 z" />
      <path
         id="path936"
         style="fill:#ffffff;stroke-width:2.44883"
         d="m 4764.1974,-4713.6315 h 8.8005 v 74.4211 h -8.8005 z" />
      <path
         id="path938"
         style="fill:#ffffff;stroke-width:2.44883"
         d="m 4825.5613,-4691.2 v 8.3222 q -3.7306,-1.9132 -7.7482,-2.8697 -4.0176,-0.9566 -8.3221,-0.9566 -6.5525,0 -9.8527,2.0088 -3.2523,2.0088 -3.2523,6.0264 0,3.061 2.3436,4.8306 2.3436,1.7219 9.4222,3.3002 l 3.0132,0.6696 q 9.3743,2.0088 13.2963,5.6916 3.9697,3.635 3.9697,10.1875 0,7.4612 -5.9307,11.8136 -5.8829,4.3524 -16.2138,4.3524 -4.3046,0 -8.9918,-0.8609 -4.6394,-0.8131 -9.8048,-2.4871 v -9.0874 q 4.8785,2.5349 9.6135,3.8263 4.735,1.2435 9.3744,1.2435 6.2177,0 9.5657,-2.1045 3.348,-2.1522 3.348,-6.0263 0,-3.5872 -2.4393,-5.5003 -2.3914,-1.9132 -10.5701,-3.6828 l -3.061,-0.7174 q -8.1787,-1.7219 -11.8136,-5.2612 -3.635,-3.5871 -3.635,-9.8048 0,-7.5569 5.3568,-11.6702 5.3568,-4.1132 15.2094,-4.1132 4.8785,0 9.1831,0.7174 4.3046,0.7175 7.9395,2.1523 z" />
    </g>
  </g>
</svg>
