<?xml version="1.0" standalone="no"?>
<!DOCTYPE svg PUBLIC "-//W3C//DTD SVG 20010904//EN"
 "http://www.w3.org/TR/2001/REC-SVG-20010904/DTD/svg10.dtd">
<svg version="1.0" xmlns="http://www.w3.org/2000/svg"
 width="549.000000pt" height="549.000000pt" viewBox="0 0 549.000000 549.000000"
 preserveAspectRatio="xMidYMid meet">
<metadata>
Created by potrace 1.11, written by Peter Selinger 2001-2013
</metadata>
<g transform="translate(0.000000,549.000000) scale(0.100000,-0.100000)"
fill="#000000" stroke="none">
<path d="M2509 5486 c-2 -3 -31 -7 -64 -10 -84 -8 -203 -26 -245 -36 -19 -5
-46 -11 -60 -14 -205 -36 -517 -158 -765 -298 -266 -151 -587 -429 -783 -678
-45 -58 -87 -111 -93 -118 -24 -29 -149 -233 -191 -312 -108 -200 -229 -546
-263 -750 -3 -19 -8 -42 -10 -50 -2 -8 -6 -36 -10 -62 -3 -26 -9 -68 -14 -93
-9 -50 -7 -614 2 -655 3 -14 8 -47 12 -75 17 -157 101 -458 178 -639 89 -210
229 -451 364 -626 123 -160 293 -334 443 -454 179 -143 212 -165 235 -156 37
14 208 181 1385 1359 1338 1339 1425 1428 1441 1467 18 48 14 125 -11 182 -52
120 -197 194 -301 152 -48 -19 -217 -185 -1360 -1336 -453 -457 -517 -518
-583 -551 -171 -87 -349 -77 -501 27 -120 82 -215 215 -247 345 -24 98 -20
255 9 310 62 119 149 209 1463 1528 1097 1100 1300 1306 1300 1316 0 8 -26 19
-190 77 -131 47 -321 99 -405 110 -27 3 -53 8 -56 10 -3 1 -30 6 -60 9 -30 4
-67 9 -84 10 -52 7 -530 16 -536 11z"/>
<path d="M3759 4743 c-449 -446 -1692 -1690 -1914 -1917 -88 -90 -217 -223
-288 -295 -70 -72 -132 -143 -138 -158 -34 -89 0 -217 76 -287 48 -44 156 -65
221 -42 47 16 212 174 1099 1055 576 571 769 757 824 795 72 50 145 70 261 69
82 0 119 -5 170 -22 164 -57 310 -191 371 -342 27 -67 34 -202 15 -275 -27
-98 -63 -161 -139 -241 -156 -162 -384 -393 -1225 -1239 -1037 -1041 -1542
-1554 -1542 -1566 0 -26 333 -150 540 -202 238 -60 345 -71 695 -71 238 0 319
5 410 25 22 5 58 11 80 15 22 3 67 13 100 21 33 9 67 17 75 19 38 9 252 80
315 105 641 256 1188 772 1467 1385 100 220 183 469 212 635 3 19 8 46 11 60
23 115 30 235 29 500 -1 257 -4 309 -22 400 -11 58 -24 121 -27 140 -53 303
-242 733 -453 1029 -115 162 -324 389 -462 501 -30 25 -57 47 -60 50 -27 28
-245 178 -297 204 l-33 16 -371 -367z"/>
</g>
</svg>
