<?xml version="1.0" encoding="UTF-8" standalone="no"?>
<!-- Created with Inkscape (http://www.inkscape.org/) -->

<svg
   xmlns:dc="http://purl.org/dc/elements/1.1/"
   xmlns:cc="http://creativecommons.org/ns#"
   xmlns:rdf="http://www.w3.org/1999/02/22-rdf-syntax-ns#"
   xmlns:svg="http://www.w3.org/2000/svg"
   xmlns="http://www.w3.org/2000/svg"
   xmlns:sodipodi="http://sodipodi.sourceforge.net/DTD/sodipodi-0.dtd"
   xmlns:inkscape="http://www.inkscape.org/namespaces/inkscape"
   width="210mm"
   height="50mm"
   viewBox="0 0 210 50"
   version="1.1"
   id="svg8"
   inkscape:version="0.91 r13725"
   sodipodi:docname="SymbIoT_logo_noed.svg">
  <defs
     id="defs2" />
  <sodipodi:namedview
     id="base"
     pagecolor="#ffffff"
     bordercolor="#666666"
     borderopacity="1.0"
     inkscape:pageopacity="0.0"
     inkscape:pageshadow="2"
     inkscape:zoom="1.4142136"
     inkscape:cx="336.57237"
     inkscape:cy="42.083903"
     inkscape:document-units="mm"
     inkscape:current-layer="text817"
     showgrid="false"
     inkscape:window-width="1920"
     inkscape:window-height="1017"
     inkscape:window-x="-8"
     inkscape:window-y="-8"
     inkscape:window-maximized="1" />
  <metadata
     id="metadata5">
    <rdf:RDF>
      <cc:Work
         rdf:about="">
        <dc:format>image/svg+xml</dc:format>
        <dc:type
           rdf:resource="http://purl.org/dc/dcmitype/StillImage" />
        <dc:title />
      </cc:Work>
    </rdf:RDF>
  </metadata>
  <g
     inkscape:label="Capa 1"
     inkscape:groupmode="layer"
     id="layer1"
     transform="translate(0,-247)">
    <g
       style="font-size:34.35300827px;line-height:6.61458302px;font-family:Montserrat;-inkscape-font-specification:Montserrat;letter-spacing:0px;word-spacing:0px;stroke-width:0.26458332;fill:#ffffff"
       id="text817">
      <path
         d="m 25.647865,256.93668 0,3.30446 q -1.929002,-0.92256 -3.639943,-1.37546 -1.710941,-0.4529 -3.304464,-0.4529 -2.767699,0 -4.277352,1.07354 -1.49288,1.07353 -1.49288,3.05285 0,1.66062 0.989662,2.51609 1.006435,0.8387 3.790908,1.35869 l 2.046419,0.41935 q 3.790908,0.72128 5.585719,2.54963 1.811584,1.81159 1.811584,4.86444 0,3.63995 -2.448993,5.51863 -2.43222,1.87868 -7.145695,1.87868 -1.778036,0 -3.790908,-0.40258 -1.996097,-0.40257 -4.1431604,-1.19095 l 0,-3.48897 q 2.0631934,1.1574 4.0425174,1.74449 1.979323,0.58708 3.891551,0.58708 2.90189,0 4.47864,-1.14062 1.576749,-1.14063 1.576749,-3.25415 0,-1.84513 -1.140627,-2.88511 -1.123853,-1.03999 -3.707039,-1.55998 l -2.063193,-0.40257 q -3.790908,-0.75483 -5.485075,-2.36513 -1.6941669,-1.61029 -1.6941669,-4.47864 0,-3.32123 2.3315759,-5.23346 2.34835,-1.91223 6.457963,-1.91223 1.761263,0 3.589621,0.3187 1.828359,0.31871 3.740587,0.95612 z"
         style="stroke-width:0.26458332;fill:#ffffff"
         id="path4186" />
      <path
         d="m 40.123766,282.90272 q -1.308367,3.35479 -2.549638,4.378 -1.24127,1.02321 -3.321238,1.02321 l -2.465767,0 0,-2.58319 1.811584,0 q 1.274819,0 1.979324,-0.60386 0.704505,-0.60386 1.559975,-2.85157 l 0.55354,-1.40901 -7.59859,-18.48487 3.270916,0 5.870875,14.69396 5.870876,-14.69396 3.270916,0 -8.252773,20.53129 z"
         style="stroke-width:0.26458332;fill:#ffffff"
         id="path4188" />
      <path
         d="m 67.263985,265.97783 q 1.157401,-2.07997 2.767698,-3.06963 1.610298,-0.98966 3.790909,-0.98966 2.935437,0 4.528961,2.06319 1.593523,2.04642 1.593523,5.83733 l 0,11.33917 -3.103177,0 0,-11.23853 q 0,-2.7006 -0.956114,-4.00897 -0.956114,-1.30837 -2.918664,-1.30837 -2.398672,0 -3.790908,1.59353 -1.392236,1.59352 -1.392236,4.34445 l 0,10.61789 -3.103177,0 0,-11.23853 q 0,-2.71738 -0.956114,-4.00897 -0.956114,-1.30837 -2.952212,-1.30837 -2.365124,0 -3.75736,1.6103 -1.392236,1.59353 -1.392236,4.32768 l 0,10.61789 -3.103177,0 0,-18.7868 3.103177,0 0,2.91867 q 1.056757,-1.72772 2.532863,-2.54964 1.476106,-0.82192 3.505751,-0.82192 2.04642,0 3.472204,1.03998 1.442558,1.03998 2.130289,3.01931 z"
         style="stroke-width:0.26458332;fill:#ffffff"
         id="path4190" />
      <path
         d="m 99.60412,271.78161 q 0,-3.40511 -1.40901,-5.33411 -1.392236,-1.94578 -3.84123,-1.94578 -2.448994,0 -3.858004,1.94578 -1.392236,1.929 -1.392236,5.33411 0,3.4051 1.392236,5.35088 1.40901,1.929 3.858004,1.929 2.448994,0 3.84123,-1.929 1.40901,-1.94578 1.40901,-5.35088 z M 89.10364,265.223 q 0.972888,-1.67739 2.448994,-2.48254 1.49288,-0.82192 3.556073,-0.82192 3.421882,0 5.552173,2.71737 2.14706,2.71738 2.14706,7.1457 0,4.42831 -2.14706,7.14569 -2.130291,2.71738 -5.552173,2.71738 -2.063193,0 -3.556073,-0.80515 -1.476106,-0.82192 -2.448994,-2.49932 l 0,2.81802 -3.103177,0 0,-26.10023 3.103177,0 0,10.165 z"
         style="stroke-width:0.26458332;fill:#ffffff"
         id="path4192" />
      <path
         d="m 107.84012,256.11476 6.45796,0 0,25.04347 -6.45796,0 0,-25.04347 z"
         style="font-style:normal;font-variant:normal;font-weight:800;font-stretch:normal;font-family:Montserrat;-inkscape-font-specification:'Montserrat Ultra-Bold';fill:#ffffff"
         id="path4194" />
      <path
         d="m 129.32752,266.21266 q -1.99609,0 -3.05285,1.44256 -1.03998,1.42578 -1.03998,4.12639 0,2.7006 1.03998,4.14316 1.05676,1.42578 3.05285,1.42578 1.96255,0 3.00254,-1.42578 1.03998,-1.44256 1.03998,-4.14316 0,-2.70061 -1.03998,-4.12639 -1.03999,-1.44256 -3.00254,-1.44256 z m 0,-4.29412 q 4.84767,0 7.56505,2.61673 2.73415,2.61673 2.73415,7.24634 0,4.6296 -2.73415,7.24633 -2.71738,2.61674 -7.56505,2.61674 -4.86444,0 -7.61536,-2.61674 -2.73415,-2.61673 -2.73415,-7.24633 0,-4.62961 2.73415,-7.24634 2.75092,-2.61673 7.61536,-2.61673 z"
         style="font-style:normal;font-variant:normal;font-weight:800;font-stretch:normal;font-family:Montserrat;-inkscape-font-specification:'Montserrat Ultra-Bold';fill:#ffffff"
         id="path4196" />
      <path
         d="m 141.28733,256.11476 23.08093,0 0,4.88121 -8.30309,0 0,20.16226 -6.45797,0 0,-20.16226 -8.31987,0 0,-4.88121 z"
         style="font-style:normal;font-variant:normal;font-weight:800;font-stretch:normal;font-family:Montserrat;-inkscape-font-specification:'Montserrat Ultra-Bold';fill:#ffffff"
         id="path4198" />
    </g>
    <g
       style="font-size:6.59064817px;line-height:1.26901233px;font-family:Montserrat;-inkscape-font-specification:Montserrat;letter-spacing:0px;word-spacing:0px;stroke-width:0.0507605;fill:#ffffff"
       id="text823">
      <path
         d="m 41.667864,283.05635 0.698326,0 1.332289,1.97591 1.322635,-1.97591 0.698325,0 -1.699151,2.51655 0,2.28806 -0.653272,0 0,-2.28806 -1.699152,-2.51655 z"
         style="letter-spacing:1.46859121px;stroke-width:0.0507605;fill:#ffffff"
         id="path4141" />
      <path
         d="m 48.320798,284.67183 q -0.476277,0 -0.753033,0.3733 -0.276756,0.37008 -0.276756,1.01692 0,0.64684 0.273538,1.02013 0.276756,0.37008 0.756251,0.37008 0.473059,0 0.749815,-0.37329 0.276756,-0.3733 0.276756,-1.01692 0,-0.6404 -0.276756,-1.0137 -0.276756,-0.37652 -0.749815,-0.37652 z m 0,-0.50202 q 0.772342,0 1.21322,0.50202 0.440878,0.50203 0.440878,1.39022 0,0.88497 -0.440878,1.39021 -0.440878,0.50203 -1.21322,0.50203 -0.77556,0 -1.216438,-0.50203 -0.43766,-0.50524 -0.43766,-1.39021 0,-0.88819 0.43766,-1.39022 0.440878,-0.50202 1.216438,-0.50202 z"
         style="letter-spacing:1.46859121px;stroke-width:0.0507605;fill:#ffffff"
         id="path4143" />
      <path
         d="m 52.360643,286.43857 0,-2.18187 0.592129,0 0,2.15934 q 0,0.51168 0.199521,0.76912 0.199522,0.25423 0.598565,0.25423 0.479495,0 0.756251,-0.30572 0.279974,-0.30571 0.279974,-0.83348 l 0,-2.04349 0.592128,0 0,3.60426 -0.592128,0 0,-0.55351 q -0.215612,0.32825 -0.502022,0.48915 -0.283192,0.15769 -0.659709,0.15769 -0.621091,0 -0.9429,-0.38617 -0.321809,-0.38618 -0.321809,-1.12955 z m 1.489976,-2.26876 0,0 z"
         style="letter-spacing:1.46859121px;stroke-width:0.0507605;fill:#ffffff"
         id="path4145" />
      <path
         d="m 60.162435,284.81021 q -0.09976,-0.0579 -0.21883,-0.0837 -0.115851,-0.029 -0.257447,-0.029 -0.502022,0 -0.772342,0.32824 -0.267101,0.32503 -0.267101,0.93647 l 0,1.89867 -0.595347,0 0,-3.60426 0.595347,0 0,0.55995 q 0.186649,-0.32825 0.485932,-0.48593 0.299282,-0.16091 0.727288,-0.16091 0.06114,0 0.13516,0.01 0.07402,0.006 0.164122,0.0225 l 0.0032,0.60822 z"
         style="letter-spacing:1.46859121px;stroke-width:0.0507605;fill:#ffffff"
         id="path4147" />
      <path
         d="m 68.731275,283.21404 0,0.63396 q -0.37008,-0.17699 -0.698326,-0.26388 -0.328245,-0.0869 -0.633963,-0.0869 -0.530985,0 -0.820613,0.20596 -0.28641,0.20596 -0.28641,0.58569 0,0.31859 0.189867,0.48272 0.193086,0.1609 0.727288,0.26066 l 0.392607,0.0804 q 0.727289,0.13838 1.071624,0.48915 0.347554,0.34756 0.347554,0.93325 0,0.69832 -0.469841,1.05875 -0.466623,0.36043 -1.370906,0.36043 -0.341118,0 -0.727289,-0.0772 -0.382952,-0.0772 -0.794868,-0.22848 l 0,-0.66936 q 0.395825,0.22204 0.77556,0.33468 0.379734,0.11263 0.746597,0.11263 0.556729,0 0.85923,-0.21883 0.3025,-0.21883 0.3025,-0.62431 0,-0.35399 -0.21883,-0.55351 -0.215612,-0.19952 -0.711198,-0.29928 l -0.395825,-0.0772 q -0.727288,-0.14481 -1.052315,-0.45375 -0.325027,-0.30894 -0.325027,-0.85923 0,-0.63718 0.447314,-1.00404 0.450533,-0.36686 1.238965,-0.36686 0.337899,0 0.688671,0.0611 0.350772,0.0611 0.717634,0.18343 z"
         style="letter-spacing:1.46859121px;stroke-width:0.0507605;fill:#ffffff"
         id="path4149" />
      <path
         d="m 72.8741,284.67183 q -0.476277,0 -0.753033,0.3733 -0.276756,0.37008 -0.276756,1.01692 0,0.64684 0.273538,1.02013 0.276756,0.37008 0.756251,0.37008 0.473059,0 0.749815,-0.37329 0.276756,-0.3733 0.276756,-1.01692 0,-0.6404 -0.276756,-1.0137 -0.276756,-0.37652 -0.749815,-0.37652 z m 0,-0.50202 q 0.772342,0 1.21322,0.50202 0.440878,0.50203 0.440878,1.39022 0,0.88497 -0.440878,1.39021 -0.440878,0.50203 -1.21322,0.50203 -0.77556,0 -1.216438,-0.50203 -0.43766,-0.50524 -0.43766,-1.39021 0,-0.88819 0.43766,-1.39022 0.440878,-0.50202 1.216438,-0.50202 z"
         style="letter-spacing:1.46859121px;stroke-width:0.0507605;fill:#ffffff"
         id="path4151" />
      <path
         d="m 76.975088,282.85361 0.592128,0 0,5.00735 -0.592128,0 0,-5.00735 z"
         style="letter-spacing:1.46859121px;stroke-width:0.0507605;fill:#ffffff"
         id="path4153" />
      <path
         d="m 80.210411,286.43857 0,-2.18187 0.592128,0 0,2.15934 q 0,0.51168 0.199522,0.76912 0.199521,0.25423 0.598565,0.25423 0.479495,0 0.756251,-0.30572 0.279974,-0.30571 0.279974,-0.83348 l 0,-2.04349 0.592128,0 0,3.60426 -0.592128,0 0,-0.55351 q -0.215612,0.32825 -0.502022,0.48915 -0.283192,0.15769 -0.659709,0.15769 -0.621091,0 -0.9429,-0.38617 -0.321809,-0.38618 -0.321809,-1.12955 z m 1.489975,-2.26876 0,0 z"
         style="letter-spacing:1.46859121px;stroke-width:0.0507605;fill:#ffffff"
         id="path4155" />
      <path
         d="m 86.509354,283.23335 0,1.02335 1.219656,0 0,0.46019 -1.219656,0 0,1.9566 q 0,0.44088 0.119069,0.56638 0.122288,0.12551 0.492368,0.12551 l 0.608219,0 0,0.49558 -0.608219,0 q -0.685453,0 -0.946118,-0.25423 -0.260666,-0.25744 -0.260666,-0.93324 l 0,-1.9566 -0.434442,0 0,-0.46019 0.434442,0 0,-1.02335 0.595347,0 z"
         style="letter-spacing:1.46859121px;stroke-width:0.0507605;fill:#ffffff"
         id="path4157" />
      <path
         d="m 89.979597,284.2567 0.592128,0 0,3.60426 -0.592128,0 0,-3.60426 z m 0,-1.40309 0.592128,0 0,0.74982 -0.592128,0 0,-0.74982 z"
         style="letter-spacing:1.46859121px;stroke-width:0.0507605;fill:#ffffff"
         id="path4159" />
      <path
         d="m 94.672714,284.67183 q -0.476277,0 -0.753033,0.3733 -0.276755,0.37008 -0.276755,1.01692 0,0.64684 0.273537,1.02013 0.276756,0.37008 0.756251,0.37008 0.47306,0 0.749815,-0.37329 0.276756,-0.3733 0.276756,-1.01692 0,-0.6404 -0.276756,-1.0137 -0.276755,-0.37652 -0.749815,-0.37652 z m 0,-0.50202 q 0.772342,0 1.21322,0.50202 0.440879,0.50203 0.440879,1.39022 0,0.88497 -0.440879,1.39021 -0.440878,0.50203 -1.21322,0.50203 -0.775559,0 -1.216438,-0.50203 -0.43766,-0.50524 -0.43766,-1.39021 0,-0.88819 0.43766,-1.39022 0.440879,-0.50202 1.216438,-0.50202 z"
         style="letter-spacing:1.46859121px;stroke-width:0.0507605;fill:#ffffff"
         id="path4161" />
      <path
         d="m 101.76975,285.68553 0,2.17543 -0.59213,0 0,-2.15612 q 0,-0.51167 -0.19952,-0.7659 -0.19952,-0.25423 -0.59857,-0.25423 -0.479493,0 -0.756248,0.30572 -0.276756,0.30571 -0.276756,0.83348 l 0,2.03705 -0.595347,0 0,-3.60426 0.595347,0 0,0.55995 q 0.212394,-0.32503 0.498804,-0.48593 0.28963,-0.16091 0.66614,-0.16091 0.6211,0 0.93969,0.38617 0.31859,0.38296 0.31859,1.12955 z"
         style="letter-spacing:1.46859121px;stroke-width:0.0507605;fill:#ffffff"
         id="path4163" />
      <path
         d="m 108.01835,283.05635 3.03787,0 0,0.54708 -2.38782,0 0,1.42239 2.28806,0 0,0.54708 -2.28806,0 0,1.74099 2.44575,0 0,0.54707 -3.0958,0 0,-4.80461 z"
         style="letter-spacing:1.46859121px;stroke-width:0.0507605;fill:#ffffff"
         id="path4165" />
      <path
         d="m 113.20705,284.2567 0.62753,0 1.12633,3.02501 1.12633,-3.02501 0.62753,0 -1.3516,3.60426 -0.80452,0 -1.3516,-3.60426 z"
         style="letter-spacing:1.46859121px;stroke-width:0.0507605;fill:#ffffff"
         id="path4167" />
      <path
         d="m 122.08368,285.9108 0,0.28963 -2.7225,0 q 0.0386,0.61143 0.36686,0.93324 0.33146,0.31859 0.92037,0.31859 0.34112,0 0.65971,-0.0837 0.32181,-0.0837 0.63718,-0.25101 l 0,0.55995 q -0.31859,0.13516 -0.65327,0.20596 -0.33468,0.0708 -0.67902,0.0708 -0.86245,0 -1.36769,-0.50203 -0.50202,-0.50202 -0.50202,-1.35803 0,-0.88497 0.47628,-1.40309 0.47949,-0.52133 1.29045,-0.52133 0.72729,0 1.14886,0.46984 0.42479,0.46663 0.42479,1.27115 z m -0.59213,-0.17378 q -0.006,-0.48593 -0.27354,-0.77556 -0.26388,-0.28963 -0.70154,-0.28963 -0.49559,0 -0.79487,0.27998 -0.29606,0.27997 -0.34112,0.78843 l 2.11107,-0.003 z"
         style="letter-spacing:1.46859121px;stroke-width:0.0507605;fill:#ffffff"
         id="path4169" />
      <path
         d="m 126.61267,284.81021 q -0.0998,-0.0579 -0.21883,-0.0837 -0.11585,-0.029 -0.25744,-0.029 -0.50203,0 -0.77235,0.32824 -0.2671,0.32503 -0.2671,0.93647 l 0,1.89867 -0.59534,0 0,-3.60426 0.59534,0 0,0.55995 q 0.18665,-0.32825 0.48593,-0.48593 0.29929,-0.16091 0.72729,-0.16091 0.0611,0 0.13516,0.01 0.074,0.006 0.16413,0.0225 l 0.003,0.60822 z"
         style="letter-spacing:1.46859121px;stroke-width:0.0507605;fill:#ffffff"
         id="path4171" />
      <path
         d="m 130.20842,288.19564 q -0.25101,0.64362 -0.48914,0.83992 -0.23814,0.19631 -0.63719,0.19631 l -0.47306,0 0,-0.49559 0.34756,0 q 0.24457,0 0.37973,-0.11585 0.13516,-0.11585 0.29928,-0.54707 l 0.1062,-0.27032 -1.45779,-3.54634 0.62752,0 1.12634,2.81905 1.12633,-2.81905 0.62753,0 -1.58331,3.93894 z"
         style="letter-spacing:1.46859121px;stroke-width:0.0507605;fill:#ffffff"
         id="path4173" />
      <path
         d="m 133.73337,284.2567 0.59213,0 0.74016,2.81261 0.73694,-2.81261 0.69833,0 0.74016,2.81261 0.73694,-2.81261 0.59213,0 -0.9429,3.60426 -0.69833,0 -0.77556,-2.9542 -0.77877,2.9542 -0.69833,0 -0.9429,-3.60426 z"
         style="letter-spacing:1.46859121px;stroke-width:0.0507605;fill:#ffffff"
         id="path4175" />
      <path
         d="m 143.93586,285.68553 0,2.17543 -0.59213,0 0,-2.15612 q 0,-0.51167 -0.19952,-0.7659 -0.19952,-0.25423 -0.59856,-0.25423 -0.4795,0 -0.75625,0.30572 -0.27676,0.30571 -0.27676,0.83348 l 0,2.03705 -0.59535,0 0,-5.00735 0.59535,0 0,1.96304 q 0.21239,-0.32503 0.4988,-0.48593 0.28963,-0.16091 0.66615,-0.16091 0.62109,0 0.93968,0.38617 0.31859,0.38296 0.31859,1.12955 z"
         style="letter-spacing:1.46859121px;stroke-width:0.0507605;fill:#ffffff"
         id="path4177" />
      <path
         d="m 149.67486,285.9108 0,0.28963 -2.72251,0 q 0.0386,0.61143 0.36687,0.93324 0.33146,0.31859 0.92037,0.31859 0.34112,0 0.65971,-0.0837 0.32181,-0.0837 0.63718,-0.25101 l 0,0.55995 q -0.31859,0.13516 -0.65327,0.20596 -0.33468,0.0708 -0.67902,0.0708 -0.86245,0 -1.36769,-0.50203 -0.50202,-0.50202 -0.50202,-1.35803 0,-0.88497 0.47628,-1.40309 0.47949,-0.52133 1.29045,-0.52133 0.72729,0 1.14886,0.46984 0.42479,0.46663 0.42479,1.27115 z m -0.59213,-0.17378 q -0.006,-0.48593 -0.27354,-0.77556 -0.26388,-0.28963 -0.70154,-0.28963 -0.49559,0 -0.79487,0.27998 -0.29606,0.27997 -0.34112,0.78843 l 2.11107,-0.003 z"
         style="letter-spacing:1.46859121px;stroke-width:0.0507605;fill:#ffffff"
         id="path4179" />
      <path
         d="m 154.20385,284.81021 q -0.0998,-0.0579 -0.21883,-0.0837 -0.11585,-0.029 -0.25744,-0.029 -0.50203,0 -0.77235,0.32824 -0.2671,0.32503 -0.2671,0.93647 l 0,1.89867 -0.59534,0 0,-3.60426 0.59534,0 0,0.55995 q 0.18665,-0.32825 0.48593,-0.48593 0.29929,-0.16091 0.72729,-0.16091 0.0611,0 0.13516,0.01 0.074,0.006 0.16412,0.0225 l 0.003,0.60822 z"
         style="letter-spacing:1.46859121px;stroke-width:0.0507605;fill:#ffffff"
         id="path4181" />
      <path
         d="m 159.24131,285.9108 0,0.28963 -2.7225,0 q 0.0386,0.61143 0.36686,0.93324 0.33146,0.31859 0.92037,0.31859 0.34112,0 0.65971,-0.0837 0.32181,-0.0837 0.63718,-0.25101 l 0,0.55995 q -0.31859,0.13516 -0.65327,0.20596 -0.33468,0.0708 -0.67902,0.0708 -0.86245,0 -1.36769,-0.50203 -0.50202,-0.50202 -0.50202,-1.35803 0,-0.88497 0.47628,-1.40309 0.4795,-0.52133 1.29045,-0.52133 0.72729,0 1.14886,0.46984 0.42479,0.46663 0.42479,1.27115 z m -0.59213,-0.17378 q -0.006,-0.48593 -0.27354,-0.77556 -0.26388,-0.28963 -0.70154,-0.28963 -0.49559,0 -0.79487,0.27998 -0.29606,0.27997 -0.34112,0.78843 l 2.11107,-0.003 z"
         style="letter-spacing:1.46859121px;stroke-width:0.0507605;fill:#ffffff"
         id="path4183" />
    </g>
    <g
       id="g4249"
       transform="matrix(9.7378613,0,0,9.7378613,-403.45171,-725.30341)"
       style="fill:#ffffff">
      <path
         style="opacity:1;fill:#ffffff;fill-opacity:1;stroke:none;stroke-width:0.182;stroke-linecap:round;stroke-miterlimit:4;stroke-dasharray:none;stroke-opacity:1"
         d="m 60.680105,100.60863 a 1.794769,1.7947691 0 0 0 -1.794786,1.79472 1.794769,1.7947691 0 0 0 0.820448,1.50525 l 1.804506,-1.80451 c 0.140128,-0.14015 -0.07496,-0.39109 -0.235485,-0.23056 l -1.101111,1.11599 c -0.350825,0.35083 -0.809158,-0.18871 -0.498928,-0.49893 l 1.72861,-1.72855 a 1.794769,1.7947691 0 0 0 -0.723254,-0.15341 z m 0.903543,0.2461 -1.73269,1.73269 c -0.141765,0.14171 0.05999,0.39676 0.229605,0.22715 l 1.10957,-1.10957 c 0.307272,-0.30727 0.861151,0.14162 0.498928,0.50385 l -1.802046,1.8021 a 1.794769,1.7947691 0 0 0 0.79309,0.18719 1.794769,1.7947691 0 0 0 1.794787,-1.79479 1.794769,1.7947691 0 0 0 -0.891244,-1.54862 z"
         id="path4230"
         inkscape:connector-curvature="0"
         inkscape:export-filename="C:\Users\Amanda\Desktop\SymbIoT_logo.png"
         inkscape:export-xdpi="300"
         inkscape:export-ydpi="300" />
    </g>
  </g>
</svg>
